<?xml version="1.0" encoding="utf-8"?>
<!-- Generator: Adobe Illustrator 26.3.1, SVG Export Plug-In . SVG Version: 6.00 Build 0)  -->
<svg version="1.1" xmlns="http://www.w3.org/2000/svg" xmlns:xlink="http://www.w3.org/1999/xlink" x="0px" y="0px"
	 viewBox="0 0 1728 1296" style="enable-background:new 0 0 1728 1296;" xml:space="preserve">
<style type="text/css">
	.st0{fill:#FFFFFF;stroke:#7C8A7D;stroke-miterlimit:10;}
	.st1{fill:#5FA363;}
	.st2{fill:#7D9C3E;}
	.st3{fill:#547317;}
	.st4{fill:#C4D39B;}
	.st5{fill:#D0D27B;}
	.st6{fill:#DDDEB1;}
</style>
<g id="Layer_1">
	<path class="st0" d="M621,729"/>
	<path class="st0" d="M472.4,685.4"/>
	<g>
		<g>
			<path class="st1" d="M683.1,967.3c0,3.1-0.1,6.2,0,9.4c0,0.6,1,0.5,1-0.1c0.1-3.1,0-6.2,0-9.4
				C684.2,966.5,683.1,966.7,683.1,967.3L683.1,967.3z"/>
		</g>
	</g>
	
		<image style="display:none;overflow:visible;" width="907" height="1317" xlink:href="E7F7C01CBF2057C6.png"  transform="matrix(1.1813 0 0 1.1813 362.8141 -340.8039)">
	</image>
	
		<image style="display:none;overflow:visible;" width="907" height="1317" xlink:href="E7F7C01CBF2057C1.png"  transform="matrix(0.9841 0 0 0.9841 1293.7312 -83.0124)">
	</image>
</g>
<g id="Layer_2">
	<g>
		<g>
			<path class="st2" d="M699.2,673.1c-6.4-26.7-9.8-54.3-18-80.6c-3.1-10-4.8-20.1-6.7-30.3c-1.8-9.7-4-19.6-9.9-27.7
				c-1.5-2-5.6-0.7-5.2,2c1,7.3,0.4,14.8,0.7,22.2c0.3,7.6,1.2,15.1,2.2,22.6c2.1,15.2,5.5,30.2,9.4,45c7.8,30,17.9,59.4,25.2,89.5
				c0.6,2.6,4.4,0.9,4.1-1.5c-2.6-15.9-10.7-33-7.5-49.3c-1.3,0.3-2.7,0.7-4,1c8.4,12.6,6.5,29.2,10.5,43.3c0.7,2.3,4.1,1.5,4.6-0.5
				c2.6-12.3,4.6-24.7,2.3-37.2c-0.4-2.2-4.2-1.1-4,0.9c1.2,12-0.5,23.9-3,35.6c1.5-0.2,3-0.4,4.6-0.5c-4.2-14.5-2.5-31.2-11.3-44.2
				c-1-1.5-3.7-0.7-4,1c-3.3,17.1,5.2,34.2,7.6,50.8c1.4-0.3,2.8-0.7,4.1-1c-7.1-29.2-17.4-57.6-25.4-86.6
				c-4-14.4-7.5-28.9-9.8-43.7c-1.2-8-2-16-2.4-24c-0.3-7.8-0.7-16,1.6-23.5c-1.7,0.4-3.4,0.8-5.2,1.3c4.7,8.6,6.3,18.9,8,28.5
				c1.9,10.4,3.9,20.5,7.4,30.5c8.9,25.4,13.5,51.8,20,77.8C695.8,677,699.7,675.4,699.2,673.1L699.2,673.1z"/>
		</g>
	</g>
	<g>
		<g>
			<path class="st2" d="M719.2,577.2c-0.1,0.7-0.2,1.4,0,2.2c0.1,0.4,0.4,0.7,0.8,0.7c2.7,0.1,4-5,4.9-6.8c3-6.3,6.8-12.2,10-18.4
				c7-13.5,13.8-27.2,24.6-38.1c9.9-9.9,21.5-18.4,33.7-25.2c11.6-6.5,25.8-12.7,39.2-8.5c7.1,2.2,13.9,8,15.2,15.6
				c1.4,8-3.3,16-6.5,23c-6.9,15.5-10.4,32.1-15.2,48.3c-4.9,16.3-11.9,31.8-18,47.7c-6.1,15.9-11.7,32-15.8,48.5
				c-4.4,18.1-7.6,37.2-8.8,55.8c-1.2,18.1-0.7,38.7,6.6,55.5c1.2,2.6,4.9,1,4.4-1.6c-1.8-9.3-4-18.2-4.5-27.7
				c-0.4-9,0.1-18.1,1.3-27c2.4-17.4,5.1-35,9.1-52.1c4-17.2,9.9-33.8,16.2-50.3c6.3-16.4,13.4-32.6,18.3-49.5
				c2.5-8.6,4.5-17.3,7-25.9c2.5-8.6,5.9-16.7,9.5-24.8c3-6.9,5.8-14.2,4.7-21.9c-1.1-7.1-5.6-13.5-11.5-17.4
				c-24.1-16.3-55.8,5.4-74.4,20.7c-12.4,10.2-22.6,21.5-30.2,35.7c-4.1,7.7-7.6,15.7-11.4,23.6c-1.8,3.8-4,7.5-5.8,11.3
				c-0.6,1.4-1.2,2.8-1.7,4.2c-0.2,0.4-0.5,1-0.6,1.5c-0.1,0.2-0.2,0.5-0.3,0.8c-0.3,0.7,0,0.7,0.9,0.1
				C721,575.7,719.3,576.1,719.2,577.2L719.2,577.2z"/>
		</g>
	</g>
	<g>
		<g>
			<path class="st2" d="M799.3,768.1c-11.6-36.8-9.7-75.6-0.6-112.7c4.4-18.1,10.3-35.8,16.7-53.2c6.5-17.5,14.1-34.5,20.6-52
				c-2.4-0.3-4.8-0.6-7.2-1c-9,30.1-24.1,58-32.2,88.4c-3.8,14.4-5.5,28.8-6.3,43.6c-0.7,14.8-0.9,30-5.2,44.3c1.7,0,3.4,0,5.1,0
				c-0.9-47.6,11-94.5,25.4-139.6c3.8-11.9,8.2-23.2,13-34.7c5-11.7,9.9-23.7,12.8-36.2c2-8.5,4.2-20.2-1.8-27.7
				c-8-9.9-20.2-3.1-27.4,3.8c-5.2,5-9.5,10.9-14.3,16.3c-5.9,6.6-13.4,11.8-20.4,17.1c-7.6,5.6-15.2,11.1-22,17.6
				c-7.4,7-13.1,15.1-18.7,23.6c-26.5,40.9-47.1,87-50.8,136c-0.3,4.1,6.5,3.7,7,0.1c5.7-41.3,21.6-81,42.3-116.9
				c5-8.7,10.2-17.5,16-25.6c5.4-7.6,12.3-14,19.6-19.8c12.7-10.1,26.3-18.9,36.3-31.9c4.8-6.2,16.8-25.4,26.5-17.2
				c6.7,5.7,3.2,19.1,1.4,26.2c-5.4,22.1-16.2,42.4-23,64c-14.8,47.3-26.1,95.6-27.2,145.4c-0.1,3.2,4.3,2.4,5.1,0
				c4.5-13.7,5.5-27.9,6.4-42.2c1-15.2,2.3-29.9,6.2-44.6c4.1-15.2,9.6-29.9,15.5-44.5c5.9-14.6,11.5-29.3,17.4-43.8
				c1.8-4.5-4.5-6.9-6.5-2.7c-8.3,17.1-15.5,34.9-22.2,52.7c-6.9,18.3-12.9,36.8-17,55.9c-8.1,37.6-8.3,76.3,4.6,112.9
				C795.6,772.7,800.1,770.8,799.3,768.1L799.3,768.1z"/>
		</g>
	</g>
	<g>
		<g>
			<path class="st2" d="M825.8,651.5c-0.2-0.9-0.2,0.1-0.6,0.6c-0.6,0.6-1,1.4-1.5,2.1c-1.6,2-3.3,3.8-5,5.6
				c-4.1,4.5-8.1,9-12.2,13.5c-8.9,9.7-16.5,19.9-23.4,31.1c-20.6,33.2-35,70.5-44.2,108.4c-5.4,22.1-10.4,44.1-16.9,65.9
				c2,0,3.9,0,5.9,0c-1.7-32,9.2-63.3,23.6-91.4c15.1-29.4,34.8-56.4,56.6-81.2c11.4-13,23.5-25.3,35.9-37.2
				c2.7-2.6-1.1-6.7-4.1-4.4c-13.3,10.4-20.4,26.3-33.2,37.2c1.4,1.1,2.8,2.3,4.2,3.4c9.9-14.2,18.1-29.3,24.5-45.4
				c1.1-2.7-2.3-5-4.2-2.5c-14.1,18-25.5,39.6-43.2,54.4c-2.9,2.4-0.1,6.8,3,4.4c19.2-14.4,29.4-37.3,44.1-55.7
				c-1.4-0.8-2.8-1.7-4.2-2.5c-6.5,15.8-14.7,30.6-24.7,44.5c-1.9,2.6,0.9,6.4,3.7,4c12.9-10.7,20.2-26.6,33.5-36.7
				c-1.4-1.5-2.7-3-4.1-4.4c-23.7,22.3-45.4,47-64.3,73.5c-19.2,26.9-35.7,56.3-45,88.1c-5,17.1-7.7,35-8,52.7
				c-0.1,3.7,4.9,2.6,5.9,0c7.2-19.2,11-39.7,15.7-59.6c4.8-20.3,10.5-40.1,18.4-59.4c7.5-18.6,16.2-36.7,26.4-53.9
				c7.1-12,15.1-22.4,24.2-32.7c4.4-5,8.9-10,12.8-15.4c1.5-2.1,5-5.5,4.3-8.4C829,647.7,825.4,649.3,825.8,651.5L825.8,651.5z"/>
		</g>
	</g>
	<g>
		<g>
			<path class="st2" d="M813.9,898.2c-10.2,14.7-16.7,30.9-20.7,48.3c-2.1,9.2-4,18.4-4.2,27.9c-0.3,11.2,0.2,22.1-1.9,33.1
				c2.5,0,5,0,7.5,0.1c-0.4-12.6,3.9-25,9.5-36.1c5.5-11,12.9-20.7,18.6-31.5c11-20.8,8.4-43.6,3.6-65.7c-2.2,0.8-4.4,1.6-6.7,2.4
				c3.5,7.4,0.4,14.3-2.6,21.4c-2.8,6.6-4.8,13.3-6.8,20.2c-4.6,16.3-9.3,32.6-15.5,48.5c-1,2.6,3,3,4.2,1.1
				c9.7-15.5,13.5-33.8,18.1-51.3c2-7.8,4.8-15,7.6-22.5c2.1-5.8,4.3-13.9,1.7-19.9c-1.7-4-7.4-1.5-6.7,2.4
				c2.2,11.6,4.2,23.5,3.6,35.3c-0.6,12-4.6,22.7-10.9,32.9c-12.4,19.9-23.1,39.9-25.4,63.6c-0.4,4.6,6.5,3.5,7.5,0.1
				c3-9.5,2.3-19.6,2.1-29.4c-0.2-10.3,1.2-20,3.4-30.1c3.8-17.4,9.9-33.5,20-48.3C822.5,896.9,816.2,894.8,813.9,898.2L813.9,898.2
				z"/>
		</g>
	</g>
	<g>
		<g>
			<path class="st2" d="M746.4,1062c-0.1-17.2-8-35.1-15.3-50.3c-9.3-19.4-23.2-36-34.8-53.9c-24.9-38.5-32.9-83.8-47-126.6
				c-3.1-9.4-6.2-18.8-8.5-28.4c-2-8.4-4-18-1.4-26.5c-3.6,0.4-7.1,0.8-10.7,1.2c4.9,19.1,14.8,36.8,22.9,54.6
				c8.5,19,15.7,38.6,23.9,57.7c8.3,19.3,17.2,38.4,26.6,57.3c9,18.2,21.2,34.4,30.9,52.2c11.3,20.7,5.7,44.3,12.6,66.1
				c0.2,0.6,1.1,0.2,0.9-0.3c-5.7-18.6-1.6-38.7-7.8-57.2c-3-9.1-8.4-17.6-12.8-26c-4.7-9-9.7-17.8-14.2-26.8
				c-18.8-38.1-34.2-77.9-49.2-117.6c-7.8-20.8-19.6-40.3-23-62.6c-0.8-5.3-7.9-6.3-10.3-1.4c-7.7,15.5-0.2,35.7,5,50.9
				c6.6,19.4,13,38.9,19.7,58.3c7.4,21.6,15.2,43.8,26.6,63.8c11.6,20.4,27.5,38.1,39.9,58c5.6,8.9,10.4,18.3,14.6,28
				c4,9.4,7.8,19.6,8,30C743.1,1064.5,746.4,1063.9,746.4,1062L746.4,1062z"/>
		</g>
	</g>
	<g>
		<g>
			<path class="st2" d="M703.8,1041.5c-16.5-16.6-30.7-34.6-42.5-54.8c-5.6-9.7-10.9-19.4-15.8-29.4c-5.1-10.5-9.1-21.8-14.7-32
				c-1.7-3.2-6.6,0-5.9,3c2.7,11.4,8.2,22.5,13.2,33c5,10.5,10.7,20.8,17.2,30.4c13,19.4,27.9,37.7,44.3,54.3
				C702.1,1048.5,706.4,1044.1,703.8,1041.5L703.8,1041.5z"/>
		</g>
	</g>
	<g>
		<g>
			<path class="st2" d="M631.9,930.4c9.6,21.9,21,42.8,34.1,62.7c14.6,22.1,29.9,43.6,40.9,67.8c0.5,1.2,2.6,0.4,2.1-0.8
				c-9-24-24.4-44.7-38.7-65.7c-14-20.6-26.4-42-36.8-64.7C633.1,928.9,631.5,929.6,631.9,930.4L631.9,930.4z"/>
		</g>
	</g>
	<g>
		<g>
			<path class="st2" d="M703.4,1047.7c-15-16.5-34.5-27.3-53.9-37.5c-8.7-4.6-17-7.8-26.5-10.2c-9.4-2.3-19.1-4-27.6-8.9
				c-1.7-1-4.5,1.7-3,3.3c5.8,6.5,14,9.2,22.1,11.5c9.2,2.6,18.3,4.7,26.9,9.1c19.9,10.1,40.4,20.3,55.7,37.1
				C700,1055.3,706.4,1051,703.4,1047.7L703.4,1047.7z"/>
		</g>
	</g>
	<g>
		<g>
			<path class="st2" d="M611.6,996.6c17.6,8.3,36.6,14.1,53.1,24.5c16.1,10.1,28.8,24.7,45,34.6c1.6,1,4-1.3,2.3-2.6
				c-15.7-11.6-28.3-27-45.2-37c-16.7-9.9-35.5-15.6-53.1-23.6C611.4,991.5,609,995.4,611.6,996.6L611.6,996.6z"/>
		</g>
	</g>
	<g>
		<g>
			<path class="st2" d="M708.5,1057.6c-16.8-27.9-31.3-58-25.1-91.4c-2.4,0-4.8,0-7.2-0.1c2.1,15.5,3,30.9,6.9,46
				c3.9,15.1,10.3,29.5,19.9,41.9c1.5,1.9,4.8-0.3,3.5-2.4c-15.6-25.7-22.4-56.5-23-86.4c-0.1-4.4-6.2-3.5-7.2-0.1
				c-10,33.6,10.6,67.8,27.8,95.3C705.8,1063.2,710.1,1060.2,708.5,1057.6L708.5,1057.6z"/>
		</g>
	</g>
	<g>
		<g>
			<path class="st2" d="M721.3,447.2c-8-37.7-8.9-76.6-18.2-114c-4.9-19.5-12.3-38.3-20.3-56.7c-7.7-17.6-12.4-36-16.2-54.7
				c-4.4-21.5-7.5-43.2-13.9-64.2c-0.6-2-3.6-0.7-3.2,1.2c9.3,37.3,10.1,76.5,21.6,113.3c6,19.2,14.2,37.6,20.3,56.8
				c5.8,18.2,9.5,37.1,12.8,55.9c3.8,21.5,6.7,43.2,11.8,64.5C716.8,452.5,722,450.3,721.3,447.2L721.3,447.2z"/>
		</g>
	</g>
	<g>
		<g>
			<path class="st2" d="M522.2,384c0.5,0,0.5-0.7,0-0.7C521.7,383.3,521.6,384,522.2,384L522.2,384z"/>
		</g>
	</g>
	<g>
		<g>
			<path class="st2" d="M524.5,392.2c8.9,20.1,28.8,29.3,48.2,36.8c20.6,8,41.7,15.6,53.2,35.8c1.1,1.9,4.2-0.2,3.1-2.1
				c-7.6-13.1-15.8-24.6-28.3-33.6c-12.3-8.9-26.1-15.2-39.7-21.7c-0.9-0.4-1.7,1-0.8,1.5c13,6.6,26.4,13.1,38.3,21.6
				c11.8,8.4,23.6,19.4,27.3,33.8c1.2-0.4,2.3-0.9,3.5-1.3c-17.2-42.7-81.5-31.4-100.1-72.6C527.8,387.8,523.3,389.6,524.5,392.2
				L524.5,392.2z"/>
		</g>
	</g>
	<g>
		<g>
			<path class="st3" d="M785.5,814.1c11.6,18.9,13.5,43.4,13,65.1c-0.3,11.2-2.3,21.6-4.9,32.4c-2.4,10-5,20.4-2.1,30.6
				c0.3,1.1,1.9,1.2,2.5,0.3c8.7-11.5,6.2-27.4,14.1-39.1c-1.2,0-2.5,0-3.7,0c0.6,2.1,1.4,4.1,1.8,6.3c0.4,2.6,4.2,1,4.3-1
				c1-15.9-2.5-31.2-6.8-46.5c-4.3-15.4-8.5-30.6-12.1-46.2c-0.5-2.3-4-1-4,1c-0.3,15.4,5.1,30.4,9.6,44.9c4.7,15.4,8.9,31.1,9,47.3
				c1.4-0.3,2.9-0.7,4.3-1c-0.5-2.1-1.4-4.1-2.1-6.1c-0.6-1.8-2.9-1.4-3.7,0c-7.1,11.8-2.4,29.2-12.7,38.9c0.8,0.2,1.7,0.5,2.5,0.7
				c-1.4-11.9,3-24,6.1-35.4c2.8-10.3,3.7-20.6,3.7-31.2c0-21.5-3-44.9-14.7-63.5C788,809.1,784.1,811.8,785.5,814.1L785.5,814.1z"
				/>
		</g>
	</g>
	<g>
		<g>
			<path class="st3" d="M900.1,861.9c-11,18.9-20,39.1-32.6,57c-2.5,3.6-5.1,7.3-8.3,10.4c-2.7,2.6-5.7,4.8-8.4,7.4
				c-3.2,3.1-9.2,8.6-6.2,13.4c0.6,1,1.9,0.1,2-0.8c0.8-6.5,9.1-11.2,13.6-15c6.1-5.1,10.7-11.7,15.2-18.2
				c11.2-16.6,19.5-34.9,29.5-52.2C906.9,860.7,901.8,859,900.1,861.9L900.1,861.9z"/>
		</g>
	</g>
	<g>
		<g>
			<path class="st3" d="M851.2,951.8c16.7-15.9,27.2-36.4,37.4-56.8c3.8-7.7,7.6-15.2,10.5-23.2c1.9-5.1,5.3-18.2,12-18.9
				c-0.6-0.6-1.1-1.2-1.7-1.8c-3.9,10.5-10.7,19.7-15.1,30c-0.8,1.9,1.7,2.8,2.7,1.1c5.9-10,11.5-19.7,15.7-30.7
				c0.3-0.8-0.4-1.8-1.2-1.8c-6.8-0.3-10.7,6.7-13.3,12c-3.7,7.7-6.4,15.7-10.3,23.4c-11.6,22.6-21.6,46.1-40.1,64
				C845.5,951.3,849,953.8,851.2,951.8L851.2,951.8z"/>
		</g>
	</g>
	<g>
		<g>
			<path class="st3" d="M633.8,775.4c2.2-1.7,3.1-2.8,3-5.8c-1,0.4-1.9,0.7-2.9,1.1c12.7,18,14.8,40.5,21.8,60.9
				c0.9,2.6,4.7,0.9,4.2-1.6c-3.4-18.3-10.4-37.6-21.3-52.8c-3.1-4.4-9.9-14-16.4-11c-7,3.2-2.6,13.2,1,17.1c2,2.2,5.4-0.9,4.9-3.3
				c-0.7-3,0.7-5.5,2.1-8c0.6-1-0.5-2-1.5-1.6c-4.5,1.8-6.7,6.3-6.5,11c1.8-0.7,3.6-1.4,5.5-2c-0.7-1-4.5-7.2-2.9-8.5
				c-1.1,0.9,1.9,1.9,2.7,2.6c1,0.8,2,1.7,2.9,2.7c4.8,4.9,8.5,10.8,11.7,16.8c6.3,12,11.2,25.3,13.5,38.7c1.4-0.5,2.8-1,4.2-1.6
				c-6.9-20.8-9.8-43.2-23.4-61.1c-0.9-1.1-3-0.4-2.9,1.1c0.2,2.6-0.4,2.4-1.5,3.7C631.3,774.8,632.6,776.3,633.8,775.4L633.8,775.4
				z"/>
		</g>
	</g>
	<g>
		<g>
			<path class="st3" d="M622.3,767c-9.2,8.3-12.9,21.3-15.2,33.1c-2.9,14.6-5.8,29.2-8.8,43.8c-3.4,17-4.7,34.2-3.1,51.5
				c1.7,18,4.2,35.1-0.7,52.8c-5.2,18.6-14.2,35.9-20.4,54.2c-0.4,1.2,1.5,1.6,2,0.5c6.2-15.3,14.5-29.6,20.2-45
				c2.6-7,4.9-14.3,5.9-21.8c1.1-8.6,0.4-17.3-0.5-25.9c-0.9-8.7-2.2-17.3-2.4-26.1c-0.3-9.3,0.8-18.7,2.3-27.9
				c2.6-15.3,6.6-30.2,9.3-45.5c2.4-13.8,4.5-30.7,15.4-40.7C628.9,767.6,624.8,764.7,622.3,767L622.3,767z"/>
		</g>
	</g>
	<g>
		<g>
			<path class="st3" d="M573.4,1013.5c0.2,11.6-2.9,22.9-3.9,34.4c-0.1,0.9,1.3,0.6,1.4-0.2c1.3-11.5,4.3-22.8,4-34.4
				C574.9,1012.3,573.4,1012.6,573.4,1013.5L573.4,1013.5z"/>
		</g>
	</g>
	<g>
		<g>
			<path class="st3" d="M617.9,765.1c-11.8,3.9-15.8,15.8-18,26.9c-3.3,16.6-6,33.4-8,50.2c-1.1,9.2-2.4,18.4-2.8,27.6
				c-0.4,8.9,0.1,17.8,0.4,26.7c0.7,18.1,1.1,36.6-5.2,53.9c-0.2,0.7,0.9,0.9,1.1,0.3c6-14.6,7.3-30.4,7.7-46.1
				c0.5-17.1,0.7-34,2.7-51.1c2.1-18,4.3-36,6.7-54c1.6-11.6,3.3-27,16.1-31.4C620.9,767.4,620.1,764.3,617.9,765.1L617.9,765.1z"/>
		</g>
	</g>
	<g>
		<g>
			<path class="st3" d="M583.2,975.1c0.2,12.6-0.2,25.4-2.1,37.9c-1.8,12-5.4,23.7-7.5,35.6c-0.3,1.7,2.1,2.2,2.8,0.7
				c5.1-10.8,6.3-23.7,7.2-35.4c1-13,1.5-25.9,1.1-38.9C584.7,974,583.2,974.3,583.2,975.1L583.2,975.1z"/>
		</g>
	</g>
	<g>
		<g>
			<path class="st3" d="M690.8,839c-2.4,12.5-2.7,25.3-8,37.1c1.1,0.2,2.2,0.3,3.4,0.5c1.1-10.5,4.2-20.7,6.1-31c-1.4,0-2.8,0-4.2,0
				c-0.9,10.5-7,19.9-7.1,30.5c0,2.6,4.1,2.4,4.5,0c1.6-10.5,6.3-20.4,6.9-31c0.1-2.4-3.9-2.2-4.2,0c-1.7,10.6-4.1,21-5.5,31.5
				c-0.2,1.7,1.9,2.7,3,1.3c7.9-10.2,7.2-26.1,9.7-38.2C696,836.6,691.4,836.3,690.8,839L690.8,839z"/>
		</g>
	</g>
	<g>
		<g>
			<path class="st3" d="M677.4,945.8c-0.5-1.8-0.7-3.5-0.6-5.4c-1.5,0.4-3,0.7-4.4,1.1c2.5,8.3,0,17.5,3.3,25.7
				c1.1,2.7,4.9,1.4,5-1.2c0.2-4.3-0.6-8.7,0.1-12.9c-1.6,0.4-3.1,0.8-4.7,1.2c1.5,3,2.9,6,4.5,8.9c1.4,2.5,4.7,0.6,5.4-1.3
				c0.3-0.9,0.7-1.9,1.1-2.8c-1.7,0.4-3.5,0.9-5.2,1.3c1.3,1.2,2.3,1.8,4,2.3c2.8,0.7,5.8-3.2,4-5.6c-4.3-5.8-7.8-12.1-12-17.9
				c-1.8-2.5-6.4-0.2-5.4,2.8c2.4,7.1,6.5,13.5,11.1,19.4c1.3-1.9,2.7-3.7,4-5.6c-0.7-0.1-1.3-0.4-1.9-0.8c-1.8-0.9-4.5,0.6-4.8,2.5
				c-0.1,0.9-0.1,2.2-0.5,3c1.8,0,3.7,0,5.5,0c-1.4-3.4-3.3-6.2-5.5-9.1c-1.4-1.9-5-0.7-4.8,1.8c0.3,4.3,0.7,8.6,0,12.9
				c1.6-0.2,3.3-0.4,4.9-0.6c-2.4-8.3-0.7-17.3-3.9-25.5c-0.9-2.4-4.4-1.3-4.4,1.1c0,2.3,0.3,4.2,1.1,6.4
				C674.3,949.6,678.1,948.1,677.4,945.8L677.4,945.8z"/>
		</g>
	</g>
	<g>
		<g>
			<path class="st3" d="M823.9,560.4c0.4,0,0.5-0.7,0-0.7C823.4,559.7,823.4,560.4,823.9,560.4L823.9,560.4z"/>
		</g>
	</g>
	<g>
		<g>
			<path class="st3" d="M817.4,564.6c-5.5,23.7-19.6,44.1-26.4,67.3c-3.4,11.8-4.7,24.1-6.2,36.3c-1.6,12.6-3.8,24.9-6.8,37.3
				c-0.2,0.8,1,1.1,1.4,0.4c10-22.8,8.7-49,16.3-72.5c7.5-23.3,21.5-44,26.9-68.1C823.3,561.9,818.1,561.5,817.4,564.6L817.4,564.6z
				"/>
		</g>
	</g>
	<g>
		<g>
			<path class="st3" d="M781.8,697c4.2-15,5.8-30.5,9.2-45.6c1.7-7.7,3.8-15.4,7.1-22.5c3.5-7.6,8.4-13.6,14-19.8
				c-1.6-0.7-3.3-1.4-4.9-2.1c-3,9.1-7.6,17.2-11.6,25.9c-3.7,8-6.6,16.2-8.6,24.9c-4.2,18.3-6.2,37.8-5.1,56.6
				c1.1-0.3,2.2-0.5,3.3-0.8c-2.9-11.6,0.5-24.8,3.6-36c3.1-11.3,6.7-22.6,10.1-33.8c6.9-22.5,14.6-44.7,22.7-66.8
				c0.7-1.9-2.5-2.5-3.2-0.9c-10.1,22.2-18.5,45.3-24.7,68.9c-3,11.6-6.1,23.2-8.8,34.9c-2.7,11.7-3,22.7-3,34.6
				c0,2.2,3.2,1.5,3.4-0.4c1.1-19.1,1.2-37.9,5.6-56.6c4.1-17.8,13.1-33.1,21.8-48.9c1.4-2.5-1.8-5.1-4-3.3
				c-12.2,10.3-18.3,26.9-21.8,42c-3.8,16.3-5,33.1-9.4,49.2C776.7,699.3,781.1,699.6,781.8,697L781.8,697z"/>
		</g>
	</g>
	<g>
		<g>
			<path class="st3" d="M961.3,528.6c-14.8,23.6-35.3,41.5-57.6,57.8c-21.3,15.5-43.6,29.6-63.1,47.4c-10.7,9.8-20.7,21.2-27.3,34.1
				c-0.4,0.8,0.7,1.4,1.2,0.7c16-22.1,35.9-39.3,58.2-54.7c22.1-15.3,45.2-29.5,64.6-48.3c10.7-10.4,20.4-22.4,27.1-35.8
				C965.4,527.8,962.4,526.9,961.3,528.6L961.3,528.6z"/>
		</g>
	</g>
	<g>
		<g>
			<path class="st3" d="M819.4,661.4c4.7-1,10-0.5,14.5-2.5c5-2.1,7.8-7.2,12.6-9.5c-1-0.8-2-1.7-3-2.5c-1.5,7.4-9,11.3-11.8,18.1
				c-1.1,2.9,2,4.3,4.1,2.4c3-2.8,5.8-6,9.6-7.8c-1-0.6-1.9-1.2-2.9-1.8c-0.5,4.6-3,8.6-6,12c-2.5,2.9,1.5,5.7,4,3.2
				c24.3-23.3,44-51.3,67.2-75.8c12.1-12.8,23.4-26.3,35.2-39.4c8-9,22.2-17.8,23.9-30.7c0.3-2.1-2.4-2.6-3.4-0.9
				c-3.8,6.6-8.1,11.8-13.9,16.7c-5.1,4.3-9.9,8.6-14.5,13.4c-11.9,12.6-23.3,25.6-35.3,38c-22.7,23.6-42.4,50.1-63.3,75.3
				c1.5,0.9,3,1.8,4.5,2.6c2.9-4.9,5.7-9.3,6.1-15.2c0.1-1.4-1.7-2.4-2.9-1.8c-4.4,2.1-7.8,5.3-11.6,8.4c1.2,1,2.4,1.9,3.5,2.9
				c3.1-7.2,10.7-11.2,12-19.3c0.3-1.7-1.3-3.3-3-2.5c-4.3,2.1-7,5.6-10.8,8.4c-4.4,3.1-10,2.9-15,4.1
				C817,658.1,816.7,661.9,819.4,661.4L819.4,661.4z"/>
		</g>
	</g>
	<g>
		<g>
			<path class="st3" d="M939.5,559.2c-30.3,35.8-68.8,63.5-100.9,97.6c1.1,0.9,2.2,1.8,3.3,2.7c14.5-16.1,30.2-31,45.4-46.5
				c2.7-2.7-1-5.9-3.9-4.2c-15.2,8.8-26.3,22.9-41.4,31.7c2,1.7,4.1,3.3,6.1,5c4.1-7.4,10.2-13.6,16.4-19.3
				c6.4-5.9,13.3-11.4,21-15.6c-1.5-2.3-3.1-4.5-4.6-6.8c-25.6,21-53.7,40.9-72.5,68.6c-2.5,3.7,3.2,6.2,5.8,3.5
				c11-11.7,22.1-23.2,34-33.9c12.1-10.8,24.7-21.1,37.2-31.4c4.5-3.7,0.6-9.6-4.6-6.8c-15.7,8.5-32.5,22.2-40.5,38.5
				c-2,4,2.5,7.4,6.1,5c14.5-9.9,25.3-24.3,40.1-33.6c-1.3-1.4-2.6-2.8-3.9-4.2c-14.7,15.9-30.2,30.9-44.2,47.4
				c-2,2.3,1.4,4.8,3.3,2.7c31.3-34.8,70-62.2,100-98.3C943.4,559.4,940.9,557.6,939.5,559.2L939.5,559.2z"/>
		</g>
	</g>
	<g>
		<g>
			<path class="st3" d="M629.8,464.5c2,6.7,6.8,11.8,10.3,17.7c0.3,0.6,1.4,0,1.1-0.6c-2.9-6.1-7.7-11.3-9.6-17.8
				C631.3,462.7,629.5,463.5,629.8,464.5L629.8,464.5z"/>
		</g>
	</g>
	<g>
		<g>
			<path class="st3" d="M630.1,468.7c5.4,8.5,10,17.3,15.2,25.9c0.6,1,2.3,0,1.9-1c-3.2-9.6-8.4-18.7-13.6-27.3
				C632.4,464.1,628.7,466.6,630.1,468.7L630.1,468.7z"/>
		</g>
	</g>
	<g>
		<g>
			<path class="st3" d="M652.7,508.5c0.9,22.5-6.9,46.4,1.3,68.3c0.4,1,2,0.4,1.7-0.6c-2.1-8-2.7-16.1-2.8-24.3
				c-0.1-7.9-0.6-17.7,3.4-24.8c-0.8-0.1-1.7-0.2-2.5-0.3c0.2,2.7,0.6,5.3,0.9,7.9c0.2,1.9,3,1.4,3-0.3c-0.3-7.4-1.1-15,0.7-22.2
				c-0.9,0.1-1.8,0.2-2.7,0.3c2.6,7.2,4.2,14.6,6.5,21.9c1.3-0.5,2.5-0.9,3.8-1.4c-5.1-13.9-10.8-28.7-19.3-41
				c-1-1.5-3.8-0.1-3.2,1.6c5.2,14,13.2,26.8,18.7,40.7c0.9,2.2,4.5,0.8,3.8-1.4c-2.5-7.2-4.5-14.5-7.6-21.5c-0.5-1.2-2.4-1-2.7,0.3
				c-1.9,7.5-0.9,15.3-0.9,23c1-0.1,2-0.2,3-0.3c-0.3-2.6-0.8-5.3-1.2-7.9c-0.2-1.6-2.2-1.3-2.7,0c-6,16.8-1.3,33.1,0.2,50.2
				c0.6-0.1,1.2-0.3,1.8-0.4c-5.4-22.7,0.6-45-0.6-67.9C655.1,506.6,652.7,507,652.7,508.5L652.7,508.5z"/>
		</g>
	</g>
	<g>
		<g>
			<path class="st4" d="M706.5,718.7c-1.2-6.3-0.1-12.5-0.2-18.8c-1.2,0.1-2.3,0.3-3.5,0.4c2.4,16.6-1.2,32.8-1.1,49.4
				c0.1,16.4,1.2,33.1,4.3,49.2c1-0.4,2-0.7,3-1.1c-3.9-18.8-7-37.7-9.8-56.6c-1.3-9-2.7-18.1-3.8-27.1c-0.9-7.9-0.6-15.3-4.2-22.6
				c-1.1,0.7-2.2,1.5-3.3,2.2c3,4.8,4.9,10.1,7,15.3c0.9,2.2,4.2,0.8,3.7-1.4c-0.7-3.3-1.5-6.5-2.2-9.8c-1.1,0.4-2.2,0.8-3.3,1.2
				c2.7,10,4.7,20.1,6.6,30.3c0.4,2.4,3.9,1,4-1c0.5-13.2,3.1-26.2,4-39.3c0.9-13.1-1.7-26.5,3.7-38.9c-1.1,0-2.1,0-3.2,0
				c3.3,10.8-0.5,22.6-2.5,33.3c-1.7,9.5-1.8,19.3-2.7,28.9c-2,20.1-4.6,41.3,0.9,61c0.2,0.9,1.6,0.3,1.4-0.5
				c-4.9-20.8-1.7-43,0.3-64c1-10.4,2-20.5,4.1-30.7c2-9.7,3.9-19.4,1.8-29.3c-0.3-1.6-2.6-1.1-3.2,0c-6.1,11.4-4.5,24.7-5,37.1
				c-0.6,14.4-3.3,28.5-3.7,42.9c1.3-0.3,2.7-0.6,4-1c-2.1-10.1-4.3-20.2-7.2-30.1c-0.6-2.1-3.8-0.7-3.3,1.2
				c0.8,3.3,1.2,6.6,1.8,9.9c1.2-0.5,2.5-0.9,3.7-1.4c-2.2-5.5-4.3-11.1-7.5-16.2c-1.1-1.7-4.3-0.1-3.5,1.8
				c3.2,7.5,3.4,16.4,4.8,24.4c1.5,9,2.9,18,4.4,27c3,18.1,6.1,36.1,9,54.2c0.3,1.7,3.1,0.8,3.1-0.7c-0.9-16.9-3-33.8-2.9-50.8
				c0.1-15.9,3.8-32.1,0.1-47.9c-0.5-2.1-3.8-0.8-3.4,1.2c1.5,6.1,0.7,12.4,2.1,18.6C705.2,720.3,706.7,719.6,706.5,718.7
				L706.5,718.7z"/>
		</g>
	</g>
	<g>
		<g>
			<path class="st4" d="M702.7,739.1c-0.7,32.1-2.9,65.9,4.9,97.4c0.4,1.8,3.2,0.9,3.2-0.8c-0.6-17.4-1.7-34.6-4-51.9
				c-2.4-17.3-5.2-34.5-7.1-51.8c-1.5,0.5-2.9,1.1-4.4,1.6c5.4,7,6.3,17.1,7,25.6c0.8,9.5,0.9,19.1,1.4,28.7
				c0.7,12.2,3.3,24.4,5.5,36.4c2.7,14.7,5.4,29.6,9.5,44c1.3,4.5,8.3,1.6,7.2-2.6c-2.3-8.7-3-17.7-4.9-26.5
				c-1.8-8.9-4.2-17.8-5.8-26.7c-1.3,0.5-2.6,1-4,1.5c1.1,5.4,1.2,10.7,1.1,16.2c0,2.6,3.9,1.8,4-0.5c0.1-2.3,0.8-4.3,1.6-6.4
				c-0.9,0.1-1.8,0.2-2.6,0.3c8.3,18.3,0.5,39.9,3.7,59.1c0.2,1.1,2.2,0.6,2.1-0.5c-2.4-19.5,6.4-41.6-3.2-59.9
				c-0.6-1.1-2.2-0.3-2.5,0.6c-0.7,2.3-2.1,4.4-2.8,6.7c1.3,0,2.6,0,3.9,0c0.5-5.8,0.4-11.5-1.2-17.2c-0.7-2.5-4.5-0.9-4,1.5
				c2,8.2,3.6,16.6,5.2,24.9c1.7,8.9,3.7,18.6,2.2,27.7c2.4-0.3,4.8-0.6,7.2-0.8c-4.3-27.4-13.2-54.2-15.3-81.9
				c-0.7-9.6-1.1-19.1-2.6-28.6c-1.3-8.3-3-17.7-8.8-24.3c-1.7-1.9-4.7-0.3-4.3,2.2c3.1,17.3,6.4,34.6,8.9,52
				c2.4,16.7,4.8,34.1,3.6,51c1.1-0.1,2.2-0.2,3.2-0.4c-4.5-32.4-4.7-64.5-4.1-97.1C706.7,736.1,702.7,736.8,702.7,739.1
				L702.7,739.1z"/>
		</g>
	</g>
	<g>
		<g>
			<path class="st4" d="M719.5,889.2c2.7,21.8,7.6,43.1,8.5,65c1.4-0.3,2.7-0.7,4.1-1c-2.3-9.1-3.1-19.5-3.2-28.8
				c-1.3,0.5-2.5,0.9-3.8,1.4c6,8.3,4.4,19.6,6.8,29c0.7,2.6,4.6,0.9,4.1-1.5c-4.8-23.1-8-47.5-4-70.9c0.4-2.3-2.9-3.1-3.8-1
				c-4.3,10.9-3.1,23.8-1.7,35.2c1.5,12.5,4.9,25,5.3,37.7c1.4-0.2,2.8-0.3,4.3-0.5c-1.1-9.8-1.1-22.4-7.5-30.4
				c-1.4-1.8-4-0.1-3.7,1.9c1.5,9.5,2.1,19.3,3.1,28.8c0.3,2.8,3.9,1.9,4.2-0.5c2.3-21.8-4.5-43.8-7.1-65.2
				C724.7,885.1,719.1,886,719.5,889.2L719.5,889.2z"/>
		</g>
	</g>
	<g>
		<g>
			<path class="st4" d="M764.4,1058.4c1.4,6.6-0.8,13.4-5.2,18.4c1.4,0.2,2.9,0.4,4.3,0.6c-3.2-8.9,3.5-21.9,8.8-28.9
				c-1.4,0.2-2.8,0.4-4.3,0.5c4.5,4,0.6,12-1.6,16.3c-2.6,5-6,9.8-10.3,13.6c2,0.5,4,1.1,6,1.6c0.3-11,4.4-21.5,10.2-30.7
				c-1.9-0.5-3.8-1-5.6-1.5c-1.6,10-8.4,18.4-13.4,26.9c1.3,0.6,2.7,1.1,4,1.7c2-4.4,3.5-8.9,4.7-13.6c0.3-1.4-1.7-1.8-2.2-0.6
				c-1.9,4.3-4,8.5-6.5,12.5c-1.6,2.7,2.5,3.9,4,1.7c6.1-8.9,12.3-17.3,15.3-27.8c0.9-3-3.5-4.5-5.2-2.2
				c-7.3,9.8-11.7,22.2-12.3,34.4c-0.1,2.6,3.5,3.8,5.3,2.3c8.6-7.2,23.2-29.1,11.7-39.1c-1.1-1-3.4-0.7-4.3,0.5
				c-6.2,8.6-13.7,23.5-9.4,34.2c0.7,1.8,3.1,2.1,4.3,0.6c5.2-6.5,7.6-14.8,5.6-23C767.9,1054.3,763.9,1056,764.4,1058.4
				L764.4,1058.4z"/>
		</g>
	</g>
	<g>
		<g>
			<path class="st4" d="M764.9,1049.1c3.1-10,5.8-20.1,9.2-29.9c2-5.8,4.2-11.6,6.9-17c1.7-3.4,4-8.4,7.8-9.9
				c-0.5-0.5-1.1-0.9-1.6-1.4c-1.1,5.3-4,10.6-6.3,15.5c-2.4,5.3-4.9,10.6-7.1,16c-3.6,9-7.2,18.8-6.3,28.6c0.1,0.8,1.1,0.8,1.5,0.2
				c5.9-10.4,10.6-21.6,17.3-31.5c-0.7-0.2-1.4-0.4-2.1-0.6c-2.4,9.4-7.2,18-9.7,27.4c-0.3,1.1,1.2,1.1,1.6,0.2
				c3.4-9.1,8-17.9,10.4-27.3c0.4-1.4-1.6-1.6-2.1-0.6c-5.6,10.5-10.2,21.8-16.6,31.8c0.5,0.1,1,0.1,1.5,0.2
				c-0.6-10.9,3.6-21.4,7.9-31.2c4.1-9.3,8-19,12.6-28.1c0.4-0.8-0.2-1.9-1.2-1.7c-9.1,1.4-13.8,16.7-16.4,23.8
				c-4.2,11.4-7.3,23.2-10.7,34.9C760.6,1051,764.3,1051.2,764.9,1049.1L764.9,1049.1z"/>
		</g>
	</g>
	<g>
		<g>
			<path class="st4" d="M731,1080.2c-2.9-4-6.1-7.9-7.8-12.6c-0.6-1.6-3.1-0.6-2.7,1c3.1,10,9,18.4,16.6,25.5
				c1.7,1.5,4.3-1.3,2.6-2.9c-5.5-5.4-11.6-10.4-17-15.9c-5.8-6-9.8-12.2-13.6-19.5c-0.7-1.3-2.9-0.2-2.8,1.1
				c0.6,7.4,6.9,14.1,11.7,19.2c6,6.4,12.6,12.2,19.1,18.1c0.9-1,1.8-1.9,2.6-2.9c-8.3-5.7-13.1-14.3-16.6-23.5
				c-0.8,0.4-1.7,0.9-2.5,1.3c2.3,4.6,5.2,8.6,8.3,12.6C729.9,1082.6,731.9,1081.3,731,1080.2L731,1080.2z"/>
		</g>
	</g>
	<g>
		<g>
			<path class="st4" d="M717.7,529.6c2.1-8.6,3.3-17.6,4.3-26.4c-1.4,0.2-2.8,0.3-4.2,0.5c3.2,27.6-4,55.3-3.9,82.9
				c1.2-0.1,2.4-0.3,3.7-0.4c-0.5-17.4,5.6-34.1,5.7-51.5c0-2.5-3.8-1.8-3.9,0.4c-0.6,22.1-9.7,43.4-8.5,65.6c0.1,2,3,1.8,3.4,0
				c0.7-3.6,2-6.9,3.8-10.1c-0.9-0.1-1.9-0.3-2.8-0.4c-0.8,9.8-2.7,19.3-5,28.8c-2.3,9.4-6.9,18-10.9,26.7c-0.6,1.4,1.3,2,2,0.8
				c10.1-17.1,15.5-37,17-56.7c0.1-1.7-2.2-1.5-2.8-0.4c-1.9,3.4-3.4,7-4.5,10.7c1.1,0,2.3,0,3.4,0c0.7-22.2,8.5-43.4,8.9-65.6
				c-1.3,0.1-2.6,0.3-3.9,0.4c0.8,17.4-5.4,34.1-5.4,51.4c0,2.4,3.6,1.7,3.7-0.4c0.5-27.8,6.2-55.1,4.5-83c-0.1-2.4-3.7-2.2-4.1,0
				c-1.5,8.6-2.1,17.4-4.2,25.9C713.1,531.7,717.1,531.9,717.7,529.6L717.7,529.6z"/>
		</g>
	</g>
	<g>
		<g>
			<path class="st4" d="M732.3,421.5c1.8-10.1,3.1-20.3,6.7-30c-1.4,0.2-2.9,0.3-4.3,0.5c2.9,17.6-4.4,35.8-7.6,52.9
				c-0.4,2.2,2.9,2.5,3.3,0.4c1.5-7.9,1.6-16,3.6-23.9c-1,0-2,0-2.9,0c0.2,3.8,0.2,7.5-1.3,11.1c0.9,0.1,1.8,0.2,2.7,0.4
				c-2.1-14.3-0.1-29.2,3-43.2c1.5-6.9,3.3-13.8,6-20.3c1.3-3,2.6-5.7,3.1-9c0.4-2.3,0.1-4.2,1.5-6.2c-0.8-0.2-1.5-0.4-2.3-0.6
				c-1.5,7.9-5.1,15.4-5,23.5c0,1.5,2.1,1,2.2-0.2c0.8-7.8,3-15.4,5.2-22.9c0.4-1.3-1.4-1.7-2.1-0.9c-2.3,2.4-1.9,2.1-2.3,5.8
				c-0.4,3.9-1.6,7.8-2.8,11.6c-2.1,6.8-4.3,13.6-6,20.6c-3.2,13.7-5.4,28.2-3.5,42.3c0.2,1.3,2.1,1.7,2.7,0.4
				c1.7-4.1,1.9-8.1,1.8-12.5c-0.1-1.8-2.6-1.5-2.9,0c-2.1,7.8-2.4,15.9-4,23.8c1.1,0.1,2.2,0.3,3.3,0.4c3.7-17.7,11.1-36,8.6-54.4
				c-0.3-2.1-3.3-2.7-4.2-0.6c-3.9,9.8-5.2,20.2-7.1,30.5C727.2,423.9,731.8,424.2,732.3,421.5L732.3,421.5z"/>
		</g>
	</g>
	<g>
		<g>
			<path class="st4" d="M837.4,191.2c5-4,10.5-7.1,14.5-12.2c0.7-0.9-0.5-1.8-1.3-1c-16.7,16.6-35.5,30.5-52.7,46.5
				c-12.8,11.9-30.4,25.3-34.4,43.2c-0.2,0.9,1.1,1,1.4,0.2c5.4-18.4,23.6-32,37.4-44.4c16.5-14.9,34.7-27.9,49.6-44.5
				c-0.4-0.3-0.8-0.7-1.3-1c-3.7,5.1-9.2,8.2-14,12C835.9,190.7,836.6,191.8,837.4,191.2L837.4,191.2z"/>
		</g>
	</g>
	<g>
		<g>
			<path class="st4" d="M778,241.8c-8.8,16.1-17.5,32.3-24.3,49.4c-2.9,7.3-5.4,14.7-7.6,22.2c-2.1,7.4-4.2,14.8-8.1,21.4
				c0.6,0.1,1.3,0.2,1.9,0.3c0.6-5.3,2.6-10.2,5.1-14.9c-0.6-0.1-1.1-0.2-1.7-0.2c-1.8,24.3-2.4,49.3-11.1,72.3
				c-0.5,1.3,1.6,1.7,2.1,0.6c5.3-11.3,7.6-23.6,9.1-35.9c1.5-12.3,2.3-24.8,1.7-37.2c0-0.9-1.4-1-1.7-0.2c-2.1,5.2-4.6,10-5.5,15.6
				c-0.2,1,1.1,1.5,1.7,0.7c4-5.2,6.1-11.4,8-17.6c2.7-8.4,5.3-16.7,8.7-24.9c7.2-17.3,16-33.8,25-50.2
				C782.6,240.9,779.1,239.7,778,241.8L778,241.8z"/>
		</g>
	</g>
	<g>
		<g>
			<path class="st5" d="M726.7,954.7c-0.5-1.4-1-2.8-1.6-4.2c-0.8,0.4-1.6,0.8-2.4,1.2c2.2,3.4,4,6.9,6,10.4
				c0.9-0.6,1.7-1.2,2.6-1.8c-2-2.7-3.9-5.7-5.4-8.7c-0.6,0.5-1.2,1-1.8,1.5c2.8,2.8,9.2,11.1,14.2,8c4.9-3,3.9-13.6,4.2-18.3
				c-1.5,0.4-3,0.7-4.5,1.1c1.6,5.9,0.3,11.7-0.2,17.7c1.4-0.3,2.8-0.7,4.2-1c-2.5-9.7-1.6-20.2-2.8-30.1c-1.2-11-2.7-22-4.2-32.9
				c-0.3-2.2-3.3-1.6-3.4,0.4c-0.5,11.7,1.9,23.4,3.1,35c0.9,9.8,0.8,19.6,3.2,29.2c0.6,2.5,4.1,1,4.2-1c0.5-6.3,1.8-12.5,0.3-18.8
				c-0.6-2.7-4.3-1-4.5,1.1c-0.3,3.1-0.5,6.1-0.8,9.2c-0.1,1.1,0,4.5-0.9,5.2c-1.2,1-9-5.3-10.6-6.4c-0.9-0.7-2.4,0.5-1.8,1.5
				c1.8,2.9,3.2,6.1,4.8,9.1c0.8,1.4,3.4,0,2.8-1.4c-1.6-3.8-3.8-7.3-6.5-10.5c-1-1.2-3,0.1-2.3,1.5c0.7,1.2,1.3,2.5,1.9,3.8
				C725.1,956.7,727.2,956,726.7,954.7L726.7,954.7z"/>
		</g>
	</g>
	<g>
		<g>
			<path class="st5" d="M736.2,972c0.7-0.9,1.4-2.3,2.7-2.5c-0.7-0.3-1.4-0.6-2.1-0.9c3.7,6.1,3.7,12.8,4,19.7
				c1.4-0.5,2.8-1.1,4.3-1.6c-2.1-4.4-3-9.1-3.3-13.9c-1.2,0.3-2.4,0.6-3.7,0.9c1.6,5.4,2.2,11,2.4,16.6c1.3-0.3,2.6-0.6,3.9-0.9
				c-0.9-2.6-2-5.1-2.7-7.7c-0.7-2.3-4.3-0.8-3.8,1.4c0.7,2.6,1.3,5.3,1.9,8c1.2-0.6,2.4-1.3,3.7-1.9c-3-4.7-5-9.7-6.8-14.9
				c-0.4-1-1.4-1.7-2.5-1.5c-1.2,0.2-1.9,0.5-3,1.1c1.1,0.2,2.3,0.3,3.4,0.5c-0.6-0.9-0.3-2.2-0.8-3.2c-1.2-2.9-5.6-1.7-5.6,1.3
				c0,1,0,1.5,0.5,2.4c0.9,1.9,4,1,4.7-0.6c0.3-0.6,0.5-1.2,0.7-1.7c1-2.2-1.2-3.5-3.1-2.5c-0.8,0.4-1.4,1-2,1.7
				c1.5,0.2,3.1,0.4,4.6,0.6c0.1,0.1,0.1,0.1,0.2,0.2c-1.7,0.4-3.5,0.9-5.2,1.3c0.6,1.1,1.1,2.3,1.7,3.4c0.5,0.9,1.9,1.2,2.8,0.8
				c0.4-0.1,0.7-0.2,1.1-0.3c-0.7-0.3-1.5-0.6-2.2-1c2.5,5.1,4.8,10.2,8.1,14.8c1.3,1.8,4.2,0.1,3.7-1.9c-0.7-2.6-1.3-5.3-2-8
				c-1.3,0.5-2.5,0.9-3.8,1.4c0.8,2.6,1.9,5.1,2.6,7.8c0.6,2.3,3.9,1,3.9-0.9c0.2-6-0.9-11.8-2.8-17.5c-0.7-1.9-3.9-1.1-3.7,0.9
				c0.6,5.3,1.1,10.6,2.8,15.7c0.7,2.1,4.1,1.6,4.4-0.5c1.1-7.6-0.3-16-4.2-22.6c-0.4-0.7-1.4-1-2.1-0.9c-3.1,0.4-4.4,1.9-6.2,4.3
				C730.7,971.7,734.3,974.5,736.2,972L736.2,972z"/>
		</g>
	</g>
	<g>
		<g>
			<path class="st5" d="M775.6,716.5c-4.7,8-10.3,15.6-14.4,24c-0.6,1.2,1.1,1.7,1.7,0.7c7-11.1,13.9-22.4,17.7-35
				c0.4-1.3-1.6-1.6-2.1-0.6c-2.3,4.2-5.2,7.9-8.5,11.4c0.6,0.4,1.2,0.7,1.8,1.1c2.8-4.5,5-9.2,7.4-13.9c0.6-1.2-1.1-1.7-1.7-0.7
				c-12.2,20.8-24,43.7-29.2,67.4c-0.2,0.8,1,0.9,1.2,0.2c6.6-23.9,16.9-45.6,29.7-66.9c-0.6-0.2-1.1-0.5-1.7-0.7
				c-2.3,4.6-4.3,9.5-7.5,13.5c-0.9,1.2,0.6,2.4,1.7,1.3c3.6-3.6,6.6-7.4,8.9-11.9c-0.7-0.2-1.4-0.4-2.1-0.6
				c-3.5,12.5-10.1,23.8-17.2,34.6c0.6,0.2,1.1,0.5,1.7,0.7c4.1-8.4,9.7-15.9,14.4-24C777.8,716.1,776.1,715.5,775.6,716.5
				L775.6,716.5z"/>
		</g>
	</g>
	<g>
		<g>
			<path class="st5" d="M720.4,478.7c1.3-7.3,1.7-14.6-0.4-21.8c-0.4-1.3-2.3-0.8-2.6,0.3c-3.7,13.8-1.9,28.6-2.8,42.7
				c0.6-0.1,1.3-0.1,1.9-0.2c0-5.6-0.2-11.2-0.2-16.9c0-0.9-1.3-0.6-1.3,0.2c-0.1,5.6-0.2,11.3-0.4,16.9c0,1.1,1.7,1,1.9,0
				c3-14-1.1-28.6,3.4-42.4c-0.9,0.1-1.7,0.2-2.6,0.3c1.6,6.9,1.4,13.5,0.2,20.5C717.3,480.2,720.1,480.4,720.4,478.7L720.4,478.7z"
				/>
		</g>
	</g>
	<g>
		<g>
			<path class="st5" d="M715.1,475.5c1.4,6.2,2.1,12.5,3.4,18.7c0.1,0.6,1.1,0.2,1-0.4c-1.2-6.2-1.9-12.6-3.2-18.8
				C716.2,474.2,714.9,474.7,715.1,475.5L715.1,475.5z"/>
		</g>
	</g>
	<g>
		<g>
			<path class="st5" d="M720,483.1c-0.1,4.7-0.2,9.3-0.2,14c0,1.7,2.5,1.2,2.6-0.3c0.2-2.5,0.7-5,1.1-7.5c-0.7,0.1-1.4,0.2-2.1,0.2
				c0.8,1.9,1.4,3.9,2.1,5.9c0.4,0.9,2,0.6,1.9-0.4c-0.3-2.2-1.1-4.2-1.9-6.2c-0.4-1-1.9-0.8-2.1,0.2c-0.4,2.6-1.3,5.1-1.6,7.7
				c0.9,0,1.7,0,2.6,0c0.2-4.7,0-9.3-0.1-14C722.3,481.3,720.1,481.7,720,483.1L720,483.1z"/>
		</g>
	</g>
	<g>
		<g>
			<path class="st5" d="M558.3,412.7c-8.1-4.2-18.9-8.1-22.9-17c-0.4,0.2-0.8,0.4-1.2,0.6c3.9,6.4,9.8,11.9,15.7,16.5
				c5.5,4.3,11.8,8.4,18.9,9c0.8,0.1,1.2-1.1,0.3-1.3c-14.1-2.7-24.8-14.7-33.8-25c-0.5-0.6-1.5,0.1-1.2,0.8
				c4.7,9,14.9,13.2,23.4,17.8C558.4,414.7,559.3,413.2,558.3,412.7L558.3,412.7z"/>
		</g>
	</g>
	<g>
		<g>
			<path class="st5" d="M561.8,400.3c-8-3-15.7-7-22.9-11.6c-7-4.4-13-9.8-19.8-14.5c-0.4,0.5-0.7,1-1.1,1.5
				c8.4,3.1,15,9.6,21.2,15.8c6.5,6.5,12.9,12.6,20.7,17.4c17,10.4,32.6,22,45.9,36.8c0.5,0.6,1.6-0.2,1.1-0.7
				c-12.9-15.2-28.5-27.4-45.5-37.7c-15.4-9.4-26-25.7-42.6-33.2c-0.7-0.3-1.8,0.6-1.2,1.3c5.5,6.3,13.3,11,20.3,15.4
				c7.2,4.5,14.7,8.4,22.7,11.4C561.9,402.8,563.1,400.8,561.8,400.3L561.8,400.3z"/>
		</g>
	</g>
	<g>
		<g>
			<path class="st5" d="M685.3,918.4c-3.7-7.1-6.3-14.6-8.4-22.3c-0.2-0.8-1.6-0.4-1.5,0.4c0.7,9.8,4.3,18.9,8.5,27.7
				c4.8,10.1,10,20,14.6,30.1c0.4,0.8,1.6,0.3,1.4-0.5c-2.5-9.5-7.8-18.4-12.2-27.2c-4.8-9.8-9.1-19.7-10.8-30.5
				c-0.5,0.2-1,0.4-1.5,0.6c2.8,7.6,5.3,15.2,9,22.4C684.6,919.6,685.6,919,685.3,918.4L685.3,918.4z"/>
		</g>
	</g>
	<g>
		<g>
			<path class="st5" d="M692,945.2c9.8,14.7,16.8,31.2,28.5,44.6c0.7,0.8,2.1-0.1,1.5-1c-10.5-14.3-17.1-31-26.7-45.8
				C694,941,690.7,943.2,692,945.2L692,945.2z"/>
		</g>
	</g>
	<g>
		<g>
			<path class="st5" d="M737.7,1017.3c3.2,9.5,6.3,19,9.1,28.6c0.3,1.2,2.1,0.4,1.9-0.7c-2.4-9.7-5.5-19.2-8.6-28.8
				C739.6,1015,737.2,1015.9,737.7,1017.3L737.7,1017.3z"/>
		</g>
	</g>
	<g>
		<g>
			<path class="st5" d="M752.8,1070.4c0.8,3.3,1.4,6.7,2.4,9.9c0.9-0.5,1.8-0.9,2.7-1.4c-3.7-7.6-3.3-17.7-4.6-26
				c-1.3-7.9-3.3-15.5-7.1-22.6c-0.8-1.6-3.7,0-3,1.6c2.5,6.8,3.1,14,5.6,20.8c0.9,2.3,4.4,0.8,3.8-1.4c-1.6-6.1-4.3-12.5-4.5-18.8
				c-1.3,0.5-2.6,1-3.9,1.5c3.1,5.5,3.9,11.9,5.3,18c0.7,2.8,4.8,0.9,4.4-1.6c-0.3-1.6-0.5-3.2-0.7-4.8c-1.3,0.3-2.5,0.6-3.8,0.9
				c1.8,7.4,1.6,15.1,1.4,22.6c-0.2,6.5-1.1,13.6,0.2,19.9c0.3,1.3,2.2,0.7,2.4-0.3c1.4-7,1.5-14.8,1.7-21.9
				c0.2-7.4-0.4-14.5-1.9-21.7c-0.5-2.2-3.8-1-3.8,0.9c0,1.8,0,3.6,0.1,5.4c1.5-0.4,3-0.7,4.5-1.1c-1.1-6.6-2.4-13.2-6.1-18.8
				c-1.3-1.9-4.4-0.1-3.8,2c1.8,6.3,3.3,12.8,4.8,19.2c1.3-0.5,2.6-0.9,3.8-1.4c-2.7-6.7-3.6-13.8-6.2-20.6c-1,0.5-2,1-3,1.6
				c3.9,7.3,6,15.3,7.6,23.3c1.5,7.9,3.9,16.4,4.3,24.4c0.1,2,3.2,1.3,2.9-0.7c-0.6-3.3-1.5-6.7-2.2-10
				C755.4,1067.4,752.4,1068.6,752.8,1070.4L752.8,1070.4z"/>
		</g>
	</g>
	<g>
		<g>
			<path class="st5" d="M832.3,962.8c-6.9,6.1-14.7,12-20.9,19c0.8,0.5,1.6,0.9,2.4,1.4c5-7.3,12.3-12.3,17.6-19.4
				c1.1-1.5-0.9-3-2-1.6c-6.1,7.9-13.5,14.5-21.7,20.1c0.6,0.6,1.2,1.3,1.7,1.9c2.5-3.2,5.3-6.2,7.8-9.4c1.2-1.5-0.9-3.1-2.1-1.7
				c-5.3,6.3-11.2,12.1-16.4,18.5c0.8,0.2,1.5,0.4,2.3,0.6c0.1-1.1,0.3-2.1,0.4-3.2c0.2-1.3-1.6-1.7-2.2-0.6c-1.6,3-3.1,6-4.2,9.2
				c-0.4,1.2,1.2,2,2.1,1.2c10.7-8.8,13.1-23.5,23.8-32.5c10.6-8.9,22.9-16.4,30-28.7c0.5-0.8-0.8-1.2-1.3-0.5
				c-8.4,12.7-20.9,19.8-32.1,29.7c-9.4,8.3-12.3,22-21.9,29.9c0.7,0.4,1.4,0.8,2.1,1.2c0.9-3,2.1-5.9,3.6-8.7
				c-0.7-0.2-1.5-0.4-2.2-0.6c-0.2,1.1-0.5,2.3-0.8,3.4c-0.3,1.4,1.4,1.8,2.2,0.9c5.7-6,11.5-11.9,16.6-18.3
				c-0.7-0.6-1.4-1.1-2.1-1.7c-2.4,3.3-5.1,6.3-7.7,9.5c-1,1.3,0.4,2.8,1.7,1.9c8.5-5.4,16.1-12.6,22.2-20.6c-0.7-0.5-1.3-1.1-2-1.6
				c-5.3,7.2-12.6,12.5-18,19.6c-1,1.3,0.4,3,1.8,2c7.8-5.5,14.7-12.5,21.8-18.7C837.1,963.4,834.1,961.2,832.3,962.8L832.3,962.8z"
				/>
		</g>
	</g>
	<g>
		<g>
			<path class="st5" d="M742.2,335.4c0-0.7,0-1.3-0.1-2c-1.3,0.2-2.7,0.3-4,0.5c0.2,4.7,0.6,9.4,0.1,14.1c1.1-0.1,2.2-0.3,3.3-0.4
				c0.3-5,0.4-9.9-0.1-15c-0.2-1.8-2.8-1.3-2.9,0.3c-0.1,2.7,0.2,5.4,0.3,8.1c0.8-0.3,1.5-0.6,2.3-0.8c-2.2-4.3-3.5-9.7-3.5-14.5
				c-0.5,0.1-1.1,0.1-1.6,0.2c0,1.1,0,2.2,0,3.3c0.7-0.2,1.3-0.3,2-0.5c-1.7-4-2.2-8.3-2.8-12.6c-0.6,0.1-1.2,0.3-1.8,0.4
				c0.3,1.2,0.7,2.4,1.1,3.5c0.3,0.9,1.6,0.4,1.6-0.4c0.2-11.3-3.4-22.3-1.8-33.6c0.1-0.7-0.9-0.8-1.1-0.1
				c-2.4,11.3,2.3,22.6,1.2,34c0.5-0.1,1.1-0.3,1.6-0.4c-0.3-1.2-0.6-2.4-0.9-3.6c-0.3-1.1-2-0.4-1.7,0.6c1.1,4.3,1.6,8.7,2.6,12.9
				c0.3,1.2,2,0.5,2-0.5c0.1-1.3-0.1-2.3-0.5-3.5c-0.3-0.8-1.7-0.5-1.6,0.4c0.6,5.3,1.5,10.3,2.9,15.4c0.4,1.4,2.3,0.6,2.4-0.6
				c0.2-2.7,0-5.4,0.1-8.2c-1,0.1-1.9,0.2-2.9,0.3c0.3,4.9,0.4,9.8-0.3,14.6c-0.3,2.1,2.8,2.4,3.2,0.4c0.9-4.8,0.6-9.7,0.7-14.6
				c0.1-2.6-3.9-1.9-4,0.5c0,0.7,0,1.3-0.1,2C738,338.5,742.3,337.8,742.2,335.4L742.2,335.4z"/>
		</g>
	</g>
	<g>
		<g>
			<path class="st5" d="M751.7,290.5c1.1-2.9,2.2-5.8,3.2-8.7c-1.4-0.2-2.8-0.4-4.3-0.6c-0.9,5-2.1,9.8-3.2,14.7
				c1.2,0.2,2.3,0.3,3.5,0.5c1-6.3,2.8-12.2,1.2-18.5c-0.2-0.9-1.6-0.7-2,0c-0.9,1.7-1.6,3.5-2.3,5.3c0.9,0,1.7,0,2.6,0
				c-1.8-5.3,0.1-10.8-0.6-16.3c0-0.4-0.4-0.7-0.9-0.5c-1,0.5-0.9,0.7-0.9-0.2c0-0.7-1.1-0.5-1.1,0.1c-0.1,1.2-0.3,0.7,0,1.8
				c0.1,0.4,0.6,0.4,0.9,0.2c0.8-0.5-0.2,7.5-0.4,8.8c-0.3,2.4-0.2,4.7,0.2,7.1c0.3,1.5,2.4,0.7,2.8-0.3c0.6-1.8,1-3.7,1.6-5.5
				c-0.7,0.1-1.4,0.2-2.1,0.2c1.6,5.9-1,11.8-2.6,17.3c-0.6,2,2.6,2.6,3.3,0.9c2-4.8,3-9.9,4.1-15c0.6-2.9-3.5-3-4.3-0.6
				c-0.9,2.9-2,5.8-3.2,8.7C746.4,292.6,750.8,292.9,751.7,290.5L751.7,290.5z"/>
		</g>
	</g>
	<g>
		<g>
			<path class="st5" d="M747,243.7c0.2,1,0.5,2.1,0.9,3.1c0.4,1,0.7,2,1.9,2.2c0.5,0.1,1.1-0.2,1.3-0.7c0.4-1,0-1.6-0.4-2.6
				c-0.3-0.9-0.6-1.8-0.7-2.7C749.8,240.9,746.7,241.7,747,243.7L747,243.7z"/>
		</g>
	</g>
	<g>
		<g>
			<path class="st5" d="M828,198.7c0.8-1.5,1.6-3,2.3-4.4c0.7-1.4-1.1-2.1-2-1.2c-1.9,1.9-3.7,4-5.7,5.7c0.6,0.4,1.2,0.7,1.8,1.1
				c0.5-3.8,2.4-7.2,4-10.7c-0.6-0.2-1.3-0.3-1.9-0.5c-0.6,2-1.5,3.7-2.7,5.4c-0.6,0.8,0.4,1.6,1.1,0.9c1.7-1.7,2.8-3.8,3.6-6
				c0.4-1.2-1.5-1.5-1.9-0.5c-1.8,3.6-3.9,7.1-4.5,11.1c-0.1,1,1,1.8,1.8,1.1c2.3-1.9,4.2-4.1,6.3-6.1c-0.7-0.4-1.3-0.8-2-1.2
				c-0.8,1.5-1.6,3-2.4,4.4C824.9,199.3,827.2,200.1,828,198.7L828,198.7z"/>
		</g>
	</g>
	<g>
		<g>
			<path class="st5" d="M826.5,183.8c0.2,1.2,0.5,2.4,0.9,3.6c0.2,0.5,0.8,0.2,0.8-0.2c0.2-5.5-0.2-11,0.4-16.5
				c-0.4,0.1-0.8,0.2-1.2,0.3c0.9,3.6,1,7,1.1,10.7c0,1.2,1.8,0.8,1.9-0.2c0.2-3.6-0.8-7.5-1.8-10.9c-0.2-0.7-1.2-0.3-1.2,0.3
				c-0.5,5.5,0,11,0,16.4c0.3-0.1,0.6-0.1,0.8-0.2c-0.4-1.2-0.7-2.3-1-3.5C827.1,183,826.4,183.3,826.5,183.8L826.5,183.8z"/>
		</g>
	</g>
	<g>
		<g>
			<path class="st5" d="M831,173.1c-0.4,2.4-1.2,4.7-2.7,6.7c-0.9,1.2,0.7,2.4,1.6,1.3c2.3-2.7,4.1-5.8,5.1-9.2
				c0.4-1.2-1.5-1.5-2-0.5c-0.6,1.3-1.3,2.6-1.9,3.9c0.6,0.2,1.3,0.3,1.9,0.5c0.2-1.1,0.7-1.8,1.2-2.7c0.5-0.8-0.7-1.4-1.3-0.7
				c-0.8,1.1-1.6,1.9-2,3.2c-0.4,1.2,1.5,1.5,1.9,0.5c0.6-1.3,1.3-2.6,1.9-3.9c-0.7-0.2-1.3-0.4-2-0.5c-0.9,3.1-2.4,5.8-4.6,8.2
				c0.5,0.4,1.1,0.9,1.6,1.3c1.8-2.2,2.7-4.9,3.2-7.7C833.3,172,831.2,171.8,831,173.1L831,173.1z"/>
		</g>
	</g>
	<g>
		<g>
			<path class="st5" d="M827,164.6c0.1,0.6,0.5,1.2,0.2,1.8c0.6,0.1,1.2,0.2,1.8,0.2c-0.2-2.5-1.4-5.5-0.8-8
				c-0.6,0.1-1.2,0.1-1.7,0.2c0.5,1.5,0.9,3.2,1.5,4.7c0.4,1.1,1.9,0.6,2-0.5c0.1-1.7-0.8-3.7-1.8-5.1c-0.5-0.7-1.8-0.2-1.7,0.6
				c0.3,2.7,0.3,5.5,0.7,8.2c0.1,0.9,1.4,1.1,1.8,0.2c0.6-1.2,0.2-1.9-0.1-3.1C828.5,162.9,826.8,163.6,827,164.6L827,164.6z"/>
		</g>
	</g>
	<g>
		<g>
			<path class="st5" d="M822.3,176.4c0.4,0.7,1,1.3,1.7,1.7c0.7,0.5,1.9-0.2,1.6-1.1c-0.8-2.2-1.9-4.3-3.2-6.4
				c-0.6,0.3-1.1,0.6-1.7,0.9c0.9,1.9,2,3.5,2.2,5.7c0.6-0.4,1.1-0.8,1.7-1.1c-0.6-0.3-1.3-0.6-1.9-1c-0.9-0.5-2.2,0.6-1.3,1.4
				c0.6,0.5,1.2,1,1.8,1.4c0.7,0.4,2,0,1.9-1c-0.2-2.3-1.1-5-3-6.4c-0.8-0.6-1.9,0.4-1.4,1.2c1.1,1.9,2.2,3.9,2.9,6
				c0.5-0.4,1.1-0.7,1.6-1.1c-0.6-0.4-0.9-0.8-1.3-1.4C823.4,174.2,821.7,175.4,822.3,176.4L822.3,176.4z"/>
		</g>
	</g>
	<g>
		<g>
			<path class="st5" d="M822.8,187.4c0.2-1.1,0.6-1.7,0.3-2.8c-0.2-0.5-0.9-0.3-1,0.1c-0.8,2.4-0.6,5.1-0.2,7.6
				c0.5-0.5,1-1.1,1.5-1.6c-0.7-0.1-1.3-0.1-2-0.2c-0.5-0.1-1.2,0.4-1.1,1c0.3,1.9,0,3.6,1,5.4c0.6,1.1,2.1,0,1.9-1
				c-0.3-1.6-0.9-3-1.1-4.6c-0.4,0.3-0.9,0.6-1.3,0.9c0.6,0.3,1.1,0.5,1.7,0.8c0.8,0.4,2.2-0.6,1.8-1.5c-0.9-2.2-1.7-4.1-1.2-6.5
				c-0.3,0-0.7,0.1-1,0.1c0.2,0.8-0.3,1.5-0.5,2.2C821.2,188,822.6,188.2,822.8,187.4L822.8,187.4z"/>
		</g>
	</g>
	<g>
		<g>
			<path class="st5" d="M876.5,198.7c-0.5-0.1-0.7-0.3-0.8-0.6c0,0,0,0.1,0,0.1c-0.1,0.1-0.1,0.3-0.2,0.4c-0.2,0.4-0.4,0.8-0.6,1.3
				c-0.4,0.9-0.9,1.7-1.5,2.5c0.7,0.2,1.4,0.4,2,0.5c0.2-0.7,0.4-1.5,0.8-2.1c0.4-0.6,1-1,1.7-1.5c0.7-0.5,0.3-1.6-0.6-1.3
				c-1.9,0.6-3.5,2.7-4,4.6c-0.3,1.3,1.5,1.5,2,0.5c0.8-1.3,1.6-2.7,2.1-4.1c0.3-0.9,0.5-2.5-1-2.3
				C875.2,197,875.1,198.9,876.5,198.7L876.5,198.7z"/>
		</g>
	</g>
	<g>
		<g>
			<path class="st5" d="M868.9,210.1c6,1.6,13.1-1.1,16.6,5.4c1.1-1,2.3-2,3.4-3c-3.5-2.1-6.9-4.3-11-5.1c-1.2-0.2-2.4,1.2-1.6,2.3
				c1.8,2.6,4.1,5.8,6.6,7.9c1.1,0.9,2.5-0.3,2.3-1.5c-0.7-3.2-4.1-6.2-6.5-8.3c-0.6,0.8-1.2,1.6-1.8,2.5c3.5,1.2,6.2,3.5,9,5.7
				c1.8,1.5,4.7-0.9,3.4-3c-4.6-7.7-11.9-4.3-19.2-5.8C868.5,206.9,867.1,209.7,868.9,210.1L868.9,210.1z"/>
		</g>
	</g>
	<g>
		<g>
			<path class="st5" d="M882.4,222.1c0.3,1.5,0.8,3.1,1.8,4.3c0.5,0.7,1.6-0.1,1.2-0.8c-0.7-1.2-1.1-2.5-1.3-3.9
				C884,220.4,882.2,220.9,882.4,222.1L882.4,222.1z"/>
		</g>
	</g>
	<g>
		<g>
			<path class="st5" d="M881.9,226.2c-0.1,1.6-0.6,3.4-0.3,4.9c1.1-0.4,2.3-0.8,3.4-1.3c-0.4-2.1,0.8-4.4,2.3-5.7
				c-0.7-0.2-1.3-0.4-2-0.5c0,1,0.1,2.9,0.9,3.6c0.5,0.4,1.3,0,1.4-0.5c0-0.2,0-0.3,0-0.5c-0.3-0.7-1.2-0.6-1.5,0
				c0.2-0.1,0.3-0.2,0.5-0.4c0.4,0.2,0.7,0.4,1.1,0.7c-0.1-1-0.2-2.1-0.1-3.1c0.1-1.1-1.4-1-2-0.5c-2.3,2-3.2,4.7-4.1,7.5
				c-0.5,1.7,1.5,2.2,2.6,1.6c2.2-1.2,2.3-4,2.5-6.2C886.9,222.7,882,223.4,881.9,226.2L881.9,226.2z"/>
		</g>
	</g>
	<g>
		<g>
			<path class="st5" d="M888.6,225.9c0.9,1.5,2.1,2.7,3.8,2.9c0.8,0.1,1.7-0.6,1.7-1.4c0-0.7,0.2-1.5,0.4-2.2
				c-0.5,0.1-1.1,0.3-1.6,0.4c2.3,2.5,3.9,5.9,7.3,7c1.7,0.6,3.3-1.4,2-2.8c-1.2-1.2-2.3-2-3.8-2.8c-1-0.5-2.1,1-1.2,1.7
				c0.7,0.6,2,1.5,2.2,2.5c1-0.5,1.9-1,2.9-1.5c-2.8-1.8-5.1-4-7.9-5.8c-0.6-0.4-1.6-0.1-1.7,0.7c-0.1,0.9-0.7,1.6-1.1,2.3
				c0.7-0.2,1.4-0.4,2.1-0.5c-0.9-0.6-1.5-1.2-2-2.2C890.7,222.1,887.4,223.9,888.6,225.9L888.6,225.9z"/>
		</g>
	</g>
	<g>
		<g>
			<path class="st5" d="M894.4,217.8c0,0-0.5,0.7-0.5,0.7c0.7,0.5,1.6,0.2,2-0.5c1.1-1.8,1.6-3.9,1.8-6c0.1-0.7-1-0.9-1.4-0.4
				c-0.9,1.3-1.7,2.5-2.3,4c-0.6,1.3-1.3,2.8-1.3,4.2c0,1,1.4,1.2,2,0.5c1.8-2.2,1.2-5.5,2.9-7.8c-0.5-0.2-0.9-0.4-1.4-0.6
				c-0.3,1.8-0.9,3.4-2.2,4.7c0.6-0.1,1.2-0.2,1.8-0.2c-1.4-1.1-3.5-0.8-3.7,1.3C891.8,219.2,894.2,219,894.4,217.8L894.4,217.8z"/>
		</g>
	</g>
	<g>
		<g>
			<path class="st5" d="M892.3,191.5c0.6,2.3,1.3,4.5,2.2,6.7c0.7,1.8,3.6,0.3,2.5-1.3c-0.3-0.5-0.5-0.7-0.9-1.1
				c-0.5,0.5-1,1.1-1.4,1.6c1.1,1.2,1.7,3.6,2.2,5.1c0.7,2,1.9,4.7,0.9,6.9c-0.3,0.6,0.3,1,0.9,0.7c1.2-0.6,1.6-0.7,2.7-1.3
				c0.7-0.4,0.2-1.6-0.6-1.3c-1.2,0.5-1.9,0.8-2.8,1.7c0.3,0.2,0.6,0.5,0.9,0.7c1.4-1.8,0.8-4.3,0.6-6.5c-0.3-2.8-1.4-5.4-3.1-7.5
				c-0.7-0.9-2.2-0.1-1.9,1c0,0.3,0,0.6,0,0.9c0.9-0.2,1.8-0.4,2.7-0.7c-0.6-2.3-1.4-4.5-2.1-6.7
				C894.5,188.8,891.9,189.9,892.3,191.5L892.3,191.5z"/>
		</g>
	</g>
	<g>
		<g>
			<path class="st5" d="M891.8,184.9c-0.5-1.1-0.5-2.3-1.3-3.3c-0.7,0.8-1.4,1.6-2.2,2.4c1.4,0.5,1.8,2,2,3.3
				c0.1,0.6,0.8,0.8,1.3,0.8c0.6-0.1,1.1-0.5,1.2-1.1c0.4-1.2,0.3-2.4-0.3-3.4c-0.5-1-1.4-1.6-2.3-2.2c-1.1-0.8-2.7,0.1-2.7,1.4
				c0,1.1-0.4,2.2-0.4,3.3c0,1.4,1.4,2.2,2.7,1.9C891,187.6,892.4,186.2,891.8,184.9L891.8,184.9z"/>
		</g>
	</g>
	<g>
		<g>
			<path class="st5" d="M904.1,184.2c1.3,0.6,2.4,1.5,3.5,2.4c0.9,0.7,2.2-0.5,1.7-1.4c-0.9-1.5-2.4-2.5-4-3
				C903.9,181.6,902.7,183.5,904.1,184.2L904.1,184.2z"/>
		</g>
	</g>
	<g>
		<g>
			<path class="st5" d="M907.4,187.8c2.7,2.1,4.4,5.1,6.4,7.8c0.7,0.9,2-0.1,1.5-1c-1.7-3.2-3.1-6.6-6.1-8.9
				C908,184.7,906,186.8,907.4,187.8L907.4,187.8z"/>
		</g>
	</g>
	<g>
		<g>
			<path class="st5" d="M918,195.4c-0.2-0.5-0.4-1-0.6-1.5c-0.3-0.9-1.7-0.3-1.4,0.5c0.2,0.5,0.3,1.1,0.5,1.6
				C916.7,196.9,918.3,196.3,918,195.4L918,195.4z"/>
		</g>
	</g>
	<g>
		<g>
			<path class="st5" d="M924.6,184c0.1-1.5,0.3-2.8,1.5-3.8c-0.8-0.1-1.6-0.2-2.4-0.3c0.1,0.5,0.4,1,0.4,1.5c0,0.2-0.1,0.3-0.1,0.3
				c0.1-0.1,0,0-0.1,0c-0.1,0-0.3,0.1-0.4,0.1c-0.4,0-0.9-0.1-1.3-0.2c-0.8-0.2-1.7,0.9-1.2,1.6c1.2,1.6,3.3,1.8,4.9,0.6
				c1.7-1.3,1.7-4.1,0.2-5.5c-0.8-0.7-2.1,0-2.3,0.9c-0.2,0.7-0.3,1.5-0.5,2.2c-0.3,0.9-0.6,1.7-0.7,2.6
				C922.1,185.6,924.5,185.5,924.6,184L924.6,184z"/>
		</g>
	</g>
	<g>
		<g>
			<path class="st5" d="M930,193c0.6,0.3,1.4,0.6,1.6,1.3c0.2,0.6-0.3,1.2-0.5,1.6c-0.5,0.9,0.7,1.4,1.3,0.8c0.8-0.8,1.2-1.9,0.7-3
				c-0.5-1-1.7-1.4-2.7-1.6C929.9,191.9,929.5,192.7,930,193L930,193z"/>
		</g>
	</g>
	<g>
		<g>
			<path class="st5" d="M928.7,202c0.4,0.3,0.6,0.6,0.8,1c0.2-0.5,0.4-1.1,0.6-1.6c-0.3,0.3-0.7,0.6-1,0.9c-0.2,0.2-0.4,0.4-0.6,0.5
				c-0.6,0.3-1,0.7-1,1.4c0,0.6,0.5,1.1,1,1.2c0.8,0.1,1.5,0.2,2.3,0c0.8-0.2,1.4-0.4,2.1-0.9c1.1-0.7,0.6-2.2-0.7-2.2
				c-1,0-2,0.6-3,0.5c0,0.8,0,1.7,0,2.5c0.9-0.4,1.6-1.1,2.3-1.7c0.5-0.4,0.9-1,0.6-1.6c-0.3-0.9-0.8-1.6-1.6-2.2
				C929.4,198.7,927.3,200.9,928.7,202L928.7,202z"/>
		</g>
	</g>
	<g>
		<g>
			<path class="st5" d="M898.8,172.3c1,0.5,1.9,1.1,2.8,1.8c0.7-1,1.5-2.1,2.2-3.1c-0.8-0.4-1.7-0.6-2.5-0.9c-0.8-0.3-1.7-0.6-2.5-1
				c-1.2-0.4-2.8,0.5-2.8,1.9c0,0.7,0.1,1.5,0.6,2.1c0.8,1,2.2,0.4,2.6-0.6c0.2-0.5,0.3-0.9,0.4-1.4c-0.9,0.5-1.8,0.9-2.7,1.4
				c1.7,0.8,3.6,1.7,5.5,2.1c1.9,0.3,3.4-2.7,1.4-3.5c-1.3-0.5-2.7-0.8-4.1-1.1C898.4,169.6,897.6,171.6,898.8,172.3L898.8,172.3z"
				/>
		</g>
	</g>
	<g>
		<g>
			<path class="st5" d="M887.9,174.3c-0.5-0.5-1.1-0.8-1.7-1c-0.4-0.2-0.8,0-1,0.3c-0.6,0.5-1.4,0.8-2,1.3c-0.9,0.7-1.6,1.6-1.6,2.8
				c0,1.3,1.6,1.8,2.5,1.1c1.5-1,2.6-2.9,2.6-4.8c-0.3,0.3-0.6,0.6-0.8,0.9c0.5,0,0.8,0.2,1.2,0.5
				C887.6,175.8,888.5,174.8,887.9,174.3L887.9,174.3z"/>
		</g>
	</g>
	<g>
		<g>
			<path class="st5" d="M856.1,176c-0.3,0-0.6,0-0.9,0.1c-0.8-0.5-1.6-1-2.4-1.5c0.1,0.2,0.2,0.3,0.3,0.5c0-1.3-0.1-2.6-0.1-3.9
				c-0.6,1.3-1,2.9-0.9,4.4c1.2-1.3,2.3-2.5,3.5-3.8c0.2,0,0.3,0,0.5,0.1c0.2,1.4,0.5,2.7,0.7,4.1c0.1,0,0.1-0.1,0.2-0.1
				c-0.8,0.2-1.6,0.4-2.4,0.6c3.2,1,4.8,4,6.3,6.7c1.2,2.4,5.2,0.8,5.6-1.4c0.1-0.4,0.1-1.1,0.2-1.2c-0.9,0.7-1.7,1.5-2.6,2.2
				c0.2,0,0.3,0.1,0.5,0.1c-0.6-0.9-1.2-1.7-1.7-2.6c-1.2,3.8-6.1,3.4-9.3,3.3c-1.6,0-3.3,2.3-1.3,3.2c5.6,2.4,10.9-0.6,14.6-4.8
				c0.9-1,0.9-2.3-0.1-3.2c-0.4-0.4-0.9-0.7-1.4-1c-1-0.6-2.6,0-3.3,0.8c-0.3,0.3-0.5,0.7-0.8,1c1.4-0.2,2.9-0.4,4.3-0.5
				c-2.9-2-6-3.8-8.7-5.9c0.2,0.6,0.4,1.2,0.6,1.8c0-0.1,0-0.1,0-0.2c0.7-3.9-5-3.7-5.5,0c-0.1,0.7,0,1.2,0.3,1.8
				c0.7,1.6,2.6,2.7,4.4,1.9c1-0.5,1.6-0.9,2.3-1.7c0,0,1.5-2.4,0.8-1.5c1.4-1.9,1.8-5-1-6.1c-2-0.7-3.9-0.6-5.5,0.8
				c-1.4,1.2-2.3,2.8-1.5,4.6C852.4,176,854.4,176.8,856.1,176L856.1,176z"/>
		</g>
	</g>
	<g>
		<g>
			<path class="st5" d="M850.4,186.6c-1.1,0.9-1.8,1.9-2.6,3.1c0.2-0.1,0.3-0.3,0.5-0.4c-0.2,0.1-0.5,0.1-0.8,0.3
				c-0.5,0.2-0.7,0.6-1,1c-0.7,1.2,0.2,2.6,1.5,2.6c1.1,0,2.7-1.3,2.1-2.6c-0.3-0.6-0.6-0.9-1.2-1.3c0.2,0.2,0.3,0.4,0.5,0.5
				c0-0.1,0.6-0.8,0.7-0.9c0.3-0.4,0.7-0.7,1.1-0.9C852.4,187.3,851.3,185.8,850.4,186.6L850.4,186.6z"/>
		</g>
	</g>
	<g>
		<g>
			<path class="st5" d="M854.2,205.3c-2.3-0.8-4.4-1.6-6.4-2.8c-0.2,0.7-0.4,1.5-0.6,2.2c3-0.3,5.9,0.9,8.7,1.6
				c0.8,0.2,1.6-1.3,0.6-1.6c-3-0.9-5.9-2-9-2.4c-1.1-0.1-2,1.2-1.1,2.1c1.8,1.7,4.2,2.5,6.4,3.4
				C854.4,208.5,855.9,205.9,854.2,205.3L854.2,205.3z"/>
		</g>
	</g>
	<g>
		<g>
			<path class="st5" d="M858.7,199.9c0.9,0.6,1.9,1,3,1.4c1,0.4,2.3-0.6,1.9-1.7c-0.2-0.6-0.3-1.2-0.4-1.8c-0.1-0.6-0.3-1.1-0.4-1.7
				c-1,0.2-2,0.5-2.9,0.7c0.5,1.2,0.7,2.9,1.8,3.7c1.2,0.9,2.7-0.1,2.8-1.5c0.2-1.6-1.1-3.3-2.5-4.1c-1.4-0.7-3,1.4-1.8,2.5
				c0.2,0.2,0.3,1.1,0.4,1.4c0.1,0.5,0.2,1.1,0.4,1.7c0.6-0.6,1.3-1.1,1.9-1.7c-0.8-0.4-1.6-0.7-2.2-1.3c-0.6-0.5-1.6-0.3-2.1,0.3
				C858.2,198.4,858.1,199.5,858.7,199.9L858.7,199.9z"/>
		</g>
	</g>
	<g>
		<g>
			<path class="st5" d="M862.1,209c0,0.3,0,0.5,0.1,0.8c0.1,0.3,0.2,0.5,0.3,0.7c-0.1-0.2-0.2-0.4-0.3-0.5c0.1,0.2,0.2,0.4,0.2,0.7
				c0.2,0.6,0.6,0.9,1,1.3c0.4,0.4,1.2,0.5,1.7,0.3c0.7-0.2,1.2-0.6,1.6-1.2c0.1-0.2,0.2-0.4,0.3-0.7c0.2-0.6,0.2-1.2,0-1.8
				c-0.1-0.3-0.3-0.6-0.4-0.9c-0.3-0.5-0.7-0.8-1.2-1c-0.7-0.4-1.7-0.1-2.3,0.3C862.6,207.4,862.1,208.2,862.1,209L862.1,209z"/>
		</g>
	</g>
	<g>
		<g>
			<path class="st5" d="M858.1,225.8c-0.2,0.6-0.8,1.1-1.5,1.2c-1-0.6-2.1-1.3-3.1-1.9c0,0,0.2,0.6,0.2,0.6c0,0-0.1-0.7,0-0.1
				c0,0.1,0,0.4,0,0.4c-0.1-0.2,0.2-0.8,0.3-0.9c-0.2,0.3-0.3,0.4,0.3-0.3c-0.3,0.4,0.7-0.5,0.4-0.3c-0.3,0.2,0.9-0.3,0.4-0.2
				c-0.5,0.2,0.8-0.3,0.3-0.1c-0.1,0-0.6,0-0.1,0c0.5,0,0,0-0.1,0c-0.5-0.2,0.5,0.3,0,0c-0.1-0.1-0.3-0.1-0.5-0.2
				c0.3,0.1,0.3,0.2,0,0c-0.1-0.1-0.2-0.2-0.3-0.3c-0.1-0.1-0.4-0.5-0.1-0.1c-0.1-0.2-0.2-0.3-0.3-0.5c0.1,0.5,0.2,1.1,0.3,1.6
				c-0.1,0.1-0.1,0.1,0,0c0.1-0.3,0-0.1-0.3,0.3c-0.1,0-0.1,0.1-0.2,0.1c0.2-0.1,0.2-0.1,0.1,0c-0.2,0,0.7-0.2,0.6-0.1
				c0.2-0.1,0.4-0.2,0.6-0.3c1.4-0.6,1.7-2.7,0-3c-2.3-0.5-5.6,0.8-5.2,3.6c0.3,1.8,1.5,3.3,3.2,4.1c1.7,0.8,3.8,0.7,5.3-0.4
				c1.2-0.9,1.8-2.2,2-3.7c0.1-1.2-0.4-2.3-1-3.3c-0.5-0.9-1.8-1.4-2.8-1.2c-2.2,0.5-3.9,1.7-4.5,4c-0.4,1.5,0.6,3.2,2.3,3.3
				C856,228.5,857.5,227.5,858.1,225.8L858.1,225.8z"/>
		</g>
	</g>
	<g>
		<g>
			<path class="st5" d="M861.9,234.5c3.6,0,6.7,2.7,10,3.7c0.4-1,0.8-2.1,1.2-3.1c-0.9-0.1-1.8-0.2-2.7-0.4c-0.3,0.7-0.5,1.3-0.8,2
				c2,1.1,3.6,2.1,5.3,3.7c0.1-0.9,0.2-1.7,0.3-2.6c-1.1,0.7-2.2,1-3.5,1.1c-1.2,0.1-1.7,2-0.3,2.2c1.8,0.2,3.4,0,5.1-0.6
				c1.2-0.4,1.7-1.9,0.7-2.8c-1.9-1.7-4.4-2.7-6.9-3.1c-1.1-0.2-1.8,1.4-0.8,2c0.7,0.4,1.3,0.8,1.9,1.3c1.6,1.2,3.8-1.1,2.3-2.6
				c-3.3-3.3-6.1-7.3-11.2-7.6C857.9,227.5,856.5,234.5,861.9,234.5L861.9,234.5z"/>
		</g>
	</g>
	<g>
		<g>
			<path class="st5" d="M864.4,250.3c0.4,1.4,0.6,2.9,0.8,4.4c0.2,1.3,2,0.8,2.5,0c1-1.7,1.3-3.6,1-5.5
				C868.4,246,863.6,247.4,864.4,250.3L864.4,250.3z"/>
		</g>
	</g>
	<g>
		<g>
			<path class="st5" d="M867.5,246.6c-0.3-1.2-0.6-2.3-0.4-3.6c-1.5,0.2-3,0.3-4.4,0.5c0.9,2.6,1.2,5.2,1.7,7.9
				c0.5,2.3,1.1,4.8,3.3,5.9c1,0.5,2.4-0.3,2.6-1.4c0.5-2.3-0.6-4.9-1.2-7.2c-0.6-2.6-1.2-5-2.4-7.4c-1.1-2.1-4.2-0.3-4.3,1.6
				c0,1.8,0.4,3.4,0.9,5.1C864.2,250.6,868.2,249,867.5,246.6L867.5,246.6z"/>
		</g>
	</g>
	<g>
		<g>
			<path class="st5" d="M873.9,248.3c2.7,0.5,5.2,1,7.9,0.3c1.3-0.3,1.8-2.2,0.8-3c-0.4-0.3-0.8-0.7-1.1-1c-0.2,0.7-0.4,1.4-0.5,2.1
				c1.5-0.9,2.7-0.2,3.9,0.8c-0.1-0.8-0.3-1.6-0.4-2.4c-1.4,3.4-5.8,5.1-8.4,7.4c-1,0.9,0.1,2.5,1.3,2c4-1.8,9.7-3.6,11.1-8.3
				c0.2-0.6,0-1.5-0.6-1.9c-2.8-1.8-5.7-2-8.4,0.1c-0.7,0.5-1,1.3-0.5,2.1c0.3,0.6,0.6,1.2,0.9,1.7c0.5-0.9,1-1.9,1.6-2.8
				c-2.2,0.3-4.3-0.3-6.4-0.8C872.5,243.8,871.2,247.8,873.9,248.3L873.9,248.3z"/>
		</g>
	</g>
	<g>
		<g>
			<path class="st5" d="M857.7,232.4c0.6,0.3,1,0.8,1,1.6c-0.1,0.4-0.2,0.7-0.3,1.1c-0.1,0.1-0.2,0.3-0.3,0.4
				c-0.3,0.2-0.7,0.5-1,0.7c-0.7,0.3-1.4,0.2-2-0.2c-0.3-0.3-0.4-0.4-0.2-0.3c0.3,0.4,0-0.2,0-0.1c0,0.4,0.3,1.1,0.4,1.5
				c1.4-0.9,2.7-1.8,4.1-2.7c-0.5-0.5-1.1-0.9-1.7-1.3c-0.1-0.1-0.3-0.2-0.4-0.3c-0.3-0.2,0,0.1-0.1-0.1c-0.3-0.3-0.5-0.7-0.7-1.1
				c-1.1,1-2.2,1.9-3.3,2.9c-0.1-0.1,0.1,0.1,0.1,0.1c0.1,0.1,0.2,0.2,0.3,0.3c0.2,0.2,0.3,0.5,0.5,0.8c0.2,0.5,0.5,1.1,0.9,1.6
				c0.8,1.1,2.7,0.4,2.6-1c-0.1-1.6,0-3.4-1-4.7c-0.7-0.8-1.7-1-2.7-0.5c-0.9,0.4-1.6,1.5-1.2,2.5c0.7,1.9,2,3.1,3.4,4.5
				c0.7,0.7,2.2,0.6,3,0c0.9-0.6,1.4-1.7,1.1-2.8c-0.4-1.5-1.5-3.3-3.2-3.3c-1.3,0-2.6,1-2.5,2.4c0,1.1,0.8,1.7,1.8,1.9
				c1,0.2,2.2-0.6,2.5-1.5C859,233.8,858.6,232.9,857.7,232.4L857.7,232.4z"/>
		</g>
	</g>
	<g>
		<g>
			<path class="st5" d="M842,234.9c0,0.2,0,0.3,0,0.5c0,0.3,0.2,0.5,0.5,0.4c0.3,0,0.5-0.3,0.5-0.5c0-0.2,0-0.3,0-0.5
				c0-0.3-0.3-0.5-0.5-0.4C842.2,234.4,842,234.6,842,234.9L842,234.9z"/>
		</g>
	</g>
	<g>
		<g>
			<path class="st5" d="M837.8,230.5c0.5,0,0.5-0.7,0-0.7C837.3,229.8,837.3,230.5,837.8,230.5L837.8,230.5z"/>
		</g>
	</g>
	<g>
		<g>
			<path class="st5" d="M828.4,224.7c0.5,0,0.5-0.7,0-0.7C827.9,224,827.9,224.7,828.4,224.7L828.4,224.7z"/>
		</g>
	</g>
	<g>
		<g>
			<path class="st5" d="M839.4,224.1c1.7-0.4,3.4-0.7,4.9,0.3c-0.2-1.3-0.4-2.6-0.6-3.9c-0.1,0.2-0.2,0.3-0.3,0.5
				c-0.2,0.2-0.1,0.2,0.1-0.1c-0.3,0.3-0.3,0.3,0,0c0.2-0.2,0.4-0.3,0.6-0.4c0.2-0.1,1.2-0.1,0.9-0.1c-0.8,0,0.2,0.1-0.1,0
				c-0.5-0.2-0.4-0.3,0,0c-0.2-0.2-0.5-0.4-0.7-0.6c0.5,0.4,0.1,0.1-0.1-0.2c-0.4-0.6,0.2,0.5-0.1-0.3c-0.9,1.5-1.7,3.1-2.6,4.6
				c-0.3,0.1-1-0.4-0.4,0c0.5,0.4,1.2,0.4,1.8,0.4c1.9,0.1,4-1.5,3.3-3.6c-0.8-2.7-3-4-5.8-3.7c-1.9,0.2-3.7,1.9-3.7,4
				c0.1,3.4,2.5,6.2,5.9,6.7c3.9,0.6,7.3-2.7,7.4-6.4c0.1-1.4-1.2-2.7-2.6-2.9c-3-0.3-6,0.2-8.8,1
				C836.2,220.3,836.5,224.7,839.4,224.1L839.4,224.1z"/>
		</g>
	</g>
	<g>
		<g>
			<path class="st5" d="M836.3,235.5C836.3,235.5,836.4,235.6,836.3,235.5c-0.1-0.1-0.2-0.3-0.4-0.4c0.3,0.3,0.5,0.7,0.7,1
				C836.5,235.9,836.4,235.7,836.3,235.5c0,0.1,0.1,0.2,0.2,0.4c0.2,0.6,0.5,0.9,1,1.3c1.4,1.1,3.6,0.4,4.3-1.1c0.5-1,0.6-2,0.1-3
				c-0.4-0.8-0.8-1.5-1.5-2.1c-1.2-1-3.2-0.6-4.2,0.5c-0.5,0.6-0.9,1.3-0.8,2C835.5,234.4,835.8,234.9,836.3,235.5L836.3,235.5z"/>
		</g>
	</g>
	<g>
		<g>
			<path class="st5" d="M834.7,232.1c0.5,0,0.5-0.7,0-0.7C834.2,231.3,834.2,232.1,834.7,232.1L834.7,232.1z"/>
		</g>
	</g>
	<g>
		<g>
			<path class="st5" d="M818,231c0.5,0,0.5-0.7,0-0.7C817.5,230.3,817.5,231,818,231L818,231z"/>
		</g>
	</g>
	<g>
		<g>
			<path class="st5" d="M788.5,271.3c0-0.2,0.4-0.9,0-0.2c0.1-0.2,0.6-0.8,0-0.1c0.5-0.6-0.7,0.5,0,0c0.6-0.4-0.7,0.2,0,0
				c-1.4-0.4-2.8-0.8-4.2-1.2c0.2,0.4,0.2,0.4,0,0c0.1,0.2,0.1,0.4,0.2,0.6c0.1,0.4,0.1,0.4,0-0.1c0,0.2,0,0.4,0,0.6
				c0,0.2,0,0.4,0,0.6c0-0.5,0-0.5,0-0.1c-0.1,0.9-0.1,1.4,0.1,2.3c0.2,1,1.2,1.7,2,1.9c1.1,0.3,2,0,3-0.5c1.9-1,2.9-3.4,2.9-5.4
				c0-2-1-3.6-2.4-4.9c-1.3-1.1-3.1-0.8-4.5,0c-2.1,1.2-3.6,3.1-3.9,5.5c-0.3,1.8,0.6,3.6,2.6,3.8
				C786,274.4,788.1,273.2,788.5,271.3L788.5,271.3z"/>
		</g>
	</g>
	<g>
		<g>
			<path class="st5" d="M785.1,268.1c0.4,0,0.5-0.7,0-0.7C784.6,267.4,784.6,268.1,785.1,268.1L785.1,268.1z"/>
		</g>
	</g>
	<g>
		<g>
			<path class="st5" d="M777.8,268.6c0.5,0,0.5-0.7,0-0.7C777.3,267.9,777.3,268.6,777.8,268.6L777.8,268.6z"/>
		</g>
	</g>
	<g>
		<g>
			<path class="st5" d="M771.5,279.6C771.4,279.8,771.4,279.7,771.5,279.6c-0.1,0.1-0.1,0.1,0.1,0c-0.2,0.1-0.2,0.1,0.1,0
				c-0.2,0-0.2,0-0.1,0C771.8,279.6,771.8,279.6,771.5,279.6C771.7,279.6,771.7,279.6,771.5,279.6c-0.2-0.1-0.4-0.2-0.6-0.3
				c-0.9-0.4-1.8,0.5-1.6,1.4c0.2,0.8,0.7,1.5,1.4,1.9c0.9,0.5,1.8,0.3,2.8,0.1c1.2-0.3,1.9-2,1.2-3.1
				C774.1,278.4,772.4,278.7,771.5,279.6L771.5,279.6z"/>
		</g>
	</g>
	<g>
		<g>
			<path class="st5" d="M771,280.1c0.5,0,0.5-0.7,0-0.7C770.5,279.4,770.5,280.1,771,280.1L771,280.1z"/>
		</g>
	</g>
	<g>
		<g>
			<path class="st5" d="M773.2,273.1c0.1,0.3,0.7,0.3,0.9,0.3c1.1,0.2,2,0.7,2.8,1.4c0.3,0.3,0.8-0.3,0.5-0.5
				c-0.7-0.6-1.6-1.1-2.5-1.3c-0.3-0.1-0.5-0.1-0.8-0.2c-0.1,0-0.2-0.1-0.3,0c-0.2,0-0.1-0.2,0,0.2
				C773.8,272.4,773.1,272.7,773.2,273.1L773.2,273.1z"/>
		</g>
	</g>
	<g>
		<g>
			<path class="st5" d="M763.5,285.3c-1.8,1.5-4,3.4-4.4,5.8c-0.3,1.9,0.6,3.7,2.7,4c1.8,0.2,4.2-1.1,4.5-3c0-0.1,0-0.2,0-0.2
				c-0.3,0.5-0.6,1-0.8,1.5c1.1-1.1,2.2-2.5,2.9-4c0.7-1.4,1.7-3.9,0.4-5.3c-0.9-1-2.1-1.1-3.2-0.4c-1.3,0.7-1.7,2.2-2.4,3.4
				c-0.6,0.9-1,1.3-1.9,1.8c0.9-0.2,1.7-0.4,2.6-0.6c-0.1,0-0.2,0-0.2,0c0.3,2.1,0.7,4.2,1,6.3c0.5-0.3,0.9-0.8,1.4-1.2
				c-0.9,0.8,1.2-0.9,0.5-0.4c-0.4,0.3,0.5-0.3,0.5-0.3c0.3-0.2,0.7-0.4,1-0.6c1.9-1,2.8-4.1,1.5-5.8
				C768.1,284.3,765.3,283.9,763.5,285.3L763.5,285.3z"/>
		</g>
	</g>
	<g>
		<g>
			<path class="st5" d="M757.7,316.5c-0.1,1.3,0.2,2.5,0.9,3.6c0.6,1,2.3,0,1.9-1c-0.3-1-0.4-1.9-0.3-2.9c0.1-0.7-0.7-1.1-1.3-1.1
				C758.2,315.2,757.7,315.8,757.7,316.5L757.7,316.5z"/>
		</g>
	</g>
	<g>
		<g>
			<path class="st5" d="M767.9,303.5c-0.1,0.5-0.1,0.9,0.1,1.4c0.1,0.2,0.2,0.5,0.3,0.7c0,0,0,0.1,0.1,0.1c0.5,0.6,0.5,0.5-0.1-0.3
				c0.1-0.5,0.1-0.9,0.2-1.4c0,0,0,0,0,0c0.4-0.3,0.8-0.7,1.2-1c0.8-0.3,0.6-0.1,0-0.2c0.4,0.4,0.8,0.9,1.2,1.3c0-0.9,0.4-1.2,1-1.6
				c0.1-0.1,0.3-0.2,0,0c0.1-0.1,0.2-0.1,0.3-0.1c0.1,0,0.7-0.2,0.3-0.1c0.2,0,0.4-0.1,0.6-0.1c0.2,0-0.3,0,0,0c0.1,0,0.2,0,0.3,0
				c0.4,0-0.3-0.1,0.1,0c0.1,0,0.1,0.1,0.2,0.1c0.3,0.1-0.2-0.2-0.1-0.1c0.4,0.3-0.1-0.2,0,0c0.2,0.3-0.2-0.4-0.1-0.2
				c0.1,0.2,0-0.5,0-0.2c0,0.3,0-0.2,0-0.3c0,0.1-0.2,0.4,0,0.1c0.2-0.4-0.1,0.2-0.2,0.3c-0.1,0.1-0.1,0.2-0.2,0.4
				c-0.2,0.3,0.3-0.5,0,0c-0.3,0.4-0.5,0.8-0.7,1.3c-0.7,1.5,0.7,3.2,2.3,2.5c1.9-0.9,3.9-2.9,3.3-5.3c-0.4-1.5-1.8-2.3-3.3-2.3
				c-3.3-0.1-6.2,2.2-6.9,5.4c-0.2,0.9,0.1,1.5,0.8,2.1c0.6,0.5,1.3,0.7,2.1,0.5c0.8-0.3,1.5-1.1,1.5-2c0-0.2,0-0.5-0.1-0.7
				c-0.1-0.4,0,0.1,0,0c-0.1,0.3-0.2,0.7-0.3,1c0,0,0-0.1,0-0.1c0.5-1.1,0.2-2.3-1.1-2.7C769.5,301.5,768.2,302.3,767.9,303.5
				L767.9,303.5z"/>
		</g>
	</g>
	<g>
		<g>
			<path class="st5" d="M770.4,315.6c0.4,0,0.5-0.7,0-0.7C770,314.9,770,315.6,770.4,315.6L770.4,315.6z"/>
		</g>
	</g>
	<g>
		<g>
			<path class="st5" d="M766.3,316.7c0.5,0,0.5-0.7,0-0.7C765.8,315.9,765.8,316.7,766.3,316.7L766.3,316.7z"/>
		</g>
	</g>
	<g>
		<g>
			<path class="st5" d="M792.7,295.9c0.5-1.4,1.1-2.6,1.1-4c-2,0.2-4.1,0.5-6.1,0.7c-0.1,1.3-0.9,2.6-1.5,3.8
				c-0.7,1.3-1.2,2.6-1.5,4c-0.4,1.6,1.7,2.2,2.6,1.1c2.2-2.6,4.3-5.2,6.1-8.1c1-1.7-0.1-3.7-1.9-4c-3-0.5-4.9,2.3-6.3,4.5
				c-1.3,2-0.1,4.6,2.1,5.2C789.6,299.8,791.9,298.2,792.7,295.9L792.7,295.9z"/>
		</g>
	</g>
	<g>
		<g>
			<path class="st5" d="M792.7,299c0,0,0,0.1,0.1,0.1c-0.1-0.2-0.2-0.4-0.3-0.6c0.1,0.2,0.1,0.4,0.2,0.6c0-0.2-0.1-0.4-0.1-0.6
				c0,0.3,0,0.5,0.1,0.8c0.1,0.3,0-0.4,0-0.2c0,0.1-0.1,0.8,0,0.2c-0.1,0.6,0,1,0.4,1.4c0.3,0.4,0.9,0.6,1.4,0.5
				c0.9-0.2,1.6-0.6,2.2-1.3c0.7-0.8,0.9-1.8,0.9-2.8c0-1.7-1.8-2.6-3.3-2c-0.7,0.2-1.3,0.8-1.6,1.4c-0.2,0.4-0.3,0.8-0.3,1.3
				C792.4,298.2,792.5,298.7,792.7,299L792.7,299z"/>
		</g>
	</g>
	<g>
		<g>
			<path class="st5" d="M804.5,301.1c2.1,0,4.3,0.2,6.4,0.6c1.1,0.2,2.1-1.6,0.8-2.1c-2.1-0.8-4.2-1.3-6.4-1.5
				C803.4,297.9,802.5,301.1,804.5,301.1L804.5,301.1z"/>
		</g>
	</g>
	<g>
		<g>
			<path class="st5" d="M811.6,311.9c0.9,1,1.9,1.9,2.8,2.9c0.7,0.7,2.1,0.4,2.8-0.2c0.7-0.6,1.1-1.8,0.5-2.7
				c-0.8-1.1-1.6-2.2-2.3-3.3c-0.9-1.2-2.6-1.1-3.6-0.2C810.6,309.4,810.5,310.8,811.6,311.9L811.6,311.9z"/>
		</g>
	</g>
	<g>
		<g>
			<path class="st5" d="M819.2,300.9c-0.1,0-0.2-0.1-0.2-0.1c0.2,0.1,0.3,0.3,0.5,0.4c-0.3-0.4-0.6-0.7-1-1
				c-0.2-0.2-0.4-0.3-0.7-0.4c-0.4-0.2-0.7-0.2-1.1-0.1c-0.4,0.1-0.9,0.6-0.8,1.1c0.1,0.4,0.2,0.7,0.5,0.9c0.1,0.1,0.3,0.2,0.4,0.4
				c0.2,0.2-0.1-0.1,0,0c0,0.1,0.1,0.1,0.2,0.2c0.1,0.1,0.2,0.3,0.3,0.5c-0.1-0.2-0.1-0.4-0.2-0.6c0-0.3,0-0.2,0-0.1
				c-0.1,0.5,0,1,0.4,1.4c0.5,0.4,1.1,0.4,1.6,0.1c0.5-0.2,0.8-0.7,0.9-1.2C820.1,301.6,819.8,301.1,819.2,300.9L819.2,300.9z"/>
		</g>
	</g>
	<g>
		<g>
			<path class="st5" d="M828.9,309.9c0.5,0,0.5-0.7,0-0.7C828.5,309.2,828.4,309.9,828.9,309.9L828.9,309.9z"/>
		</g>
	</g>
	<g>
		<g>
			<path class="st5" d="M830.7,312.8c0.5,0.2,1.1,0.3,1.6,0.5c0.4,0.1,0.8,0,1-0.4c0.2-0.3,0.1-0.8-0.3-0.9c-0.5-0.2-1-0.4-1.5-0.6
				c-0.4-0.2-0.9,0-1.1,0.4C830.2,312.2,830.2,312.7,830.7,312.8L830.7,312.8z"/>
		</g>
	</g>
	<g>
		<g>
			<path class="st5" d="M836.3,314.6c0.5,0,0.5-0.7,0-0.7C835.8,313.9,835.7,314.6,836.3,314.6L836.3,314.6z"/>
		</g>
	</g>
	<g>
		<g>
			<path class="st5" d="M869.1,303c-0.6-0.2-1.2-0.3-1.8-0.5c-2.4-0.6-5.3,2-5.2,4.4c0.3,3.5,2.4,6.8,6,7.5c2.2,0.4,4.9-1.4,5.3-3.6
				c0.5-2.2-0.8-4.5-3.2-4.7c-0.6-0.1-1.2-0.1-1.7,0c-1.6,0.3-3,1.5-3,3.3c0,0.3,0,0.2,0.1-0.4c0.5-0.8,1.1-1.5,1.6-2.3
				c-0.1,0.1-0.2,0.1-0.3,0.2c1.8,0,3.5,0,5.3,0c-0.6-0.6-1.2-0.9-1.9-1.3c0.3,0.2,0.6,0.4,0.9,0.6c-0.5-0.3-0.9-0.6-1.3-1
				c0.2,0.3,0.5,0.5,0.7,0.8c-0.2-0.2-0.4-0.5-0.5-0.7c-0.2-0.4-0.1-0.2,0.2,0.4c-0.1-0.4-0.1-0.3,0,0.4c-1.7,1.5-3.4,2.9-5.2,4.4
				c0.6,0.1,1.2,0.3,1.8,0.4c2.1,0.4,4.5-1.3,5-3.3c0.2-1,0.2-2.1-0.5-2.9C871,303.7,870.2,303.3,869.1,303L869.1,303z"/>
		</g>
	</g>
	<g>
		<g>
			<path class="st5" d="M860.9,289.5c0.2-0.5,0.4-0.9,0.6-1.4c-1.1,0.4-2.3,0.9-3.4,1.3c0.2,0.1,0.4,0.2,0.6,0.3
				c0.1,0,0.6,0.3,0.3,0.1c0.4,0.2,0.8,0.5,1.1,0.8c-0.2-0.2-0.1-0.1,0.1,0.1c0.3,0.4,0.6,0.7,1,0.9c0.5,0.3,1.1,0.5,1.8,0.7
				c0.9,0.2,2.2-0.5,2.5-1.3c0.4-0.9,0.6-1.9,0.3-2.8c-0.3-0.9-1-1.6-1.7-2.1c-1.4-1-3-1.4-4.7-1.3c-1.2,0.1-2,1-2.4,2.1
				c-0.1,0.3-0.2,0.5-0.3,0.8c-0.5,1.2-0.3,2.6,1,3.1C858.7,291.3,860.4,290.7,860.9,289.5L860.9,289.5z"/>
		</g>
	</g>
	<g>
		<g>
			<path class="st5" d="M862.5,280.9c1.6,2.1,3.6,4,5.3,6.1c1.7,2.2,2.8,4.4,3.8,7c0.6,1.6,3.2,1.3,3.5-0.4
				c0.9-6.3-7.2-9.9-10.8-13.9C863.5,278.8,861.7,279.8,862.5,280.9L862.5,280.9z"/>
		</g>
	</g>
	<g>
		<g>
			<path class="st5" d="M868.6,295.1c-2.5,1.4-5.2,2.3-7.5,4.2c-1.7,1.5-4.1,4.8-2.2,7c1.1,1.2,2.8,0.4,2.9-1.1
				c0.1-1.1-0.7-2.1-0.6-3.2c0.1-1.1,1.2-1.8,2.1-2.3c1.9-1.1,4.1-1.7,6.1-2.7C870.9,296.2,870.1,294.2,868.6,295.1L868.6,295.1z"/>
		</g>
	</g>
	<g>
		<g>
			<path class="st5" d="M858.2,302c0.5,0,0.5-0.7,0-0.7C857.7,301.3,857.7,302,858.2,302L858.2,302z"/>
		</g>
	</g>
	<g>
		<g>
			<path class="st5" d="M771.1,350.9c0.4,0.5-0.2-0.3-0.3-0.4c-0.3-0.4-0.5-0.7-0.7-1.1c-0.4-0.7-0.8-1.3-1.3-2
				c-1.1-1.4-3.8-0.9-4.2,1c-0.3,2-0.1,4-0.2,6c-0.2,3,3.4,3.9,5.5,2.8c1.1-0.6,2-1.5,2.3-2.8C772.6,353,772.1,351.9,771.1,350.9
				L771.1,350.9z"/>
		</g>
	</g>
	<g>
		<g>
			<path class="st5" d="M764.2,345.4c0.5,0,0.5-0.7,0-0.7C763.7,344.7,763.7,345.4,764.2,345.4L764.2,345.4z"/>
		</g>
	</g>
	<g>
		<g>
			<path class="st5" d="M762.6,333.4c0.5,0,0.5-0.7,0-0.7C762.1,332.7,762.1,333.4,762.6,333.4L762.6,333.4z"/>
		</g>
	</g>
	<g>
		<g>
			<path class="st5" d="M775.9,342.8c2.8,1.4,5.9,0.6,8.8,0.2c2-0.3,6.9-0.9,8.7,0.3c1.7,1.1,4.8-0.9,3.3-2.9
				c-1.7-2.3-5.5-0.8-7.8-0.3c-3.3,0.8-8.3,1.5-11.5-0.2C775.8,339,774.1,341.8,775.9,342.8L775.9,342.8z"/>
		</g>
	</g>
	<g>
		<g>
			<path class="st5" d="M788.8,345.6c0.1,1.4,0.2,2.8,0.5,4.2c0.2,1.3,0.9,2.5,1.5,3.7c0.7,1.3,2.8,1.7,4.1,1.1
				c1.6-0.6,2.6-2,2.7-3.7c0-1,0.2-2,0.2-2.9c0-0.5,0-1,0-1.5c0-0.1,0.1-1.3,0.1-0.8c0.4-2.7-1-5-4-5
				C791.4,340.6,788.6,342.8,788.8,345.6L788.8,345.6z"/>
		</g>
	</g>
	<g>
		<g>
			<path class="st5" d="M792.9,356.3c0.4,0,0.5-0.7,0-0.7C792.5,355.7,792.4,356.3,792.9,356.3L792.9,356.3z"/>
		</g>
	</g>
	<g>
		<g>
			<path class="st5" d="M799.7,351.8c2.7,0.5,5.3,1.1,8,0.7c2.5-0.3,5.4,0.1,7.2-1.9c1.7-1.8-0.2-4-2.3-3.4
				c-1.2,0.3-1.5,1.1-2.4,1.6c-1,0.5-2.2,0.2-3.2,0c-2.1-0.3-4.2-0.7-6.3-1.1C798.2,347.2,796.9,351.3,799.7,351.8L799.7,351.8z"/>
		</g>
	</g>
	<g>
		<g>
			<path class="st5" d="M756.5,377.9C756.6,377.6,756.5,377.7,756.5,377.9c-0.2,0.7-0.6,1.2-1.2,1.5c-0.5,0.2-1,0.4-1.5,0.6
				c-1.3-0.3-1.7-0.3-1.1-0.1c-0.4-0.4-0.9-0.7-1.3-1.1c0.9,1.1,1.8,2.2,3,2.9c0.7,0.4,1.8,0,2.3-0.6c0.8-0.8,0.9-1.8,1-2.8
				c0.1-1,0.1-2.2-0.3-3.1c-0.6-1.4-2.1-2.1-3.5-2.1c-1.6,0-3,0.8-4,2c-1.5,1.8-1.4,4.7,1,5.7C753.1,381.8,755.8,380.2,756.5,377.9
				L756.5,377.9z"/>
		</g>
	</g>
	<g>
		<g>
			<path class="st5" d="M752.1,387.7c-0.6,1.7-2.1,6.3,1.1,6.3c0.8,0,1.3-1.2,0.7-1.7c0.1,0.1,0-0.1-0.1-0.3
				c-0.1-0.4-0.1-0.7-0.1-1.1c0-1,0.3-1.9,0.5-2.9C754.7,386.5,752.5,386.4,752.1,387.7L752.1,387.7z"/>
		</g>
	</g>
	<g>
		<g>
			<path class="st5" d="M754.8,392.4c0.5,0,0.5-0.7,0-0.7C754.3,391.7,754.3,392.4,754.8,392.4L754.8,392.4z"/>
		</g>
	</g>
	<g>
		<g>
			<path class="st5" d="M762.6,390.1c3.2-1.8,7.6-3.7,9.4-7.1c0.5-1,0.3-2.5-0.9-2.9c-3.9-1.2-8.8,0.3-12.4,1.8
				c-2.6,1.1-4.5,4-3.2,6.8C756.8,391.5,760.1,391.5,762.6,390.1L762.6,390.1z"/>
		</g>
	</g>
	<g>
		<g>
			<path class="st5" d="M742.4,389.3c1.8,1.1,0.7,2.5,0,4c1.1,0.2,2.3,0.3,3.4,0.5c0-0.5-0.1-1.1-0.2-1.6c-0.3-1.3-2.1-0.8-2.6,0
				c-0.2,0.4-0.5,0.8-0.7,1.2c-1.2,2.1,2.3,3.4,3.2,1.3c1.2-2.6,0.1-5.3-2.6-6.1C742.6,388.4,741.9,388.9,742.4,389.3L742.4,389.3z"
				/>
		</g>
	</g>
	<g>
		<g>
			<path class="st5" d="M751.9,247.1c0-0.7-0.1-1.5-0.5-2.1c-0.5-0.8-1.5-1.2-2.5-1c-0.7,0.1-1.3,0.5-1.8,1.1
				c-0.4,0.5-0.6,1.3-0.4,1.9c0.2,0.4,0.4,0.9,0.6,1.3c0.3,0.4,0.6,0.7,0.9,0.9c0.5,0.3,1,0.4,1.6,0.2c0.6-0.2,1-0.7,1.2-1.3
				c0.3-0.9,0.2-1.8-0.1-2.7c-0.7,1-1.4,2-2.1,2.9c0,0,0,0,0.1,0c-0.2,0-0.4,0-0.6,0c0.1,0,0.1,0,0.2,0c-0.2,0-0.4-0.1-0.5-0.1
				c0,0,0.1,0,0.1,0c-0.2-0.1-0.3-0.2-0.5-0.3c0,0,0.1,0,0.1,0.1c-0.1-0.1-0.3-0.3-0.4-0.4c0,0,0.1,0.1,0.1,0.1
				c-0.1-0.2-0.2-0.3-0.2-0.5c0,0.1,0.1,0.2,0.1,0.2c0-0.2-0.1-0.4-0.1-0.6c0,0.2,0,0.4,0,0.5c0-0.2,0-0.4,0.1-0.6
				c0,0.1,0,0.1,0,0.2c-0.1,0.6-0.1,1.1,0.3,1.7c0.4,0.6,1.1,0.9,1.7,0.9C750.7,249.6,751.8,248.5,751.9,247.1L751.9,247.1z"/>
		</g>
	</g>
	<g>
		<g>
			<path class="st5" d="M768.5,247.2c-0.1-0.4-0.1-0.3,0,0.1c0-0.1,0-0.3,0-0.4c-0.1-0.6-0.2,0.6,0,0c-0.2,0.5-0.3,0.6-0.2,0.4
				c0.1-0.2,0-0.1-0.3,0.3c0.2-0.1,0.3-0.4,0.5-0.5c-1.9-0.5-3.9-1-5.8-1.6c0-0.2,0.1-0.4,0-0.1c0,0.1-0.2,0.7,0,0.2
				c0.2-0.4,0,0,0,0.1c-0.1,0.1-0.1,0.3-0.2,0.4c-0.3,0.7-0.6,1.3-0.8,2.1c-0.2,0.8,0,1.9,0.8,2.4c1,0.7,2.2,0.7,3.3,0
				c0.7-0.6,0.8-0.7,0.3-0.2c0.1-0.1,0.2-0.2,0.3-0.2c0.3-0.3,0.7-0.6,1-0.9c1-1.1,1.7-2.3,2-3.7c0.3-1.2-0.2-2.5-1.3-3.2
				c-1.2-0.7-2.6-0.5-3.7,0.2c-2.4,1.6-3.1,4.3-2.5,7c0.4,1.8,2.7,2.4,4.2,1.8C767.9,250.7,768.9,249.1,768.5,247.2L768.5,247.2z"/>
		</g>
	</g>
	<g>
		<g>
			<path class="st5" d="M758.2,263.6c0.8,2.4,2.5,7.9,6,6.5c1.9-0.8,1.8-2.8,1.2-4.4c-0.5-1.4-1-2.8-1.5-4.2
				C762.8,257.9,757.1,260.2,758.2,263.6L758.2,263.6z"/>
		</g>
	</g>
	<g>
		<g>
			<path class="st5" d="M796.4,209.6c0.1-1.1,0.3-1.7,1.3-2.2c-1.2-0.3-2.4-0.7-3.6-1c1,2.5,0.1,4.7,0,7.2c0,1.3,1.8,1.5,2.5,0.7
				c2-2.5,3.4-6.4,2.2-9.6c-0.6-1.6-2.3-1.7-3.6-1c-2,1.1-3.3,3-3.7,5.3C791,212.2,796,212.5,796.4,209.6L796.4,209.6z"/>
		</g>
	</g>
	<g>
		<g>
			<path class="st5" d="M785,226.4c0.3,2.1,0.4,4.6,2.1,6.1c1,0.9,2.6,0.4,3.4-0.4c1.4-1.5,1.6-3.7,1.9-5.6c0.1-1,0.1-1.8-0.4-2.6
				c-0.6-1-1.7-1.4-2.8-1.4C787.2,222.4,784.7,224.2,785,226.4L785,226.4z"/>
		</g>
	</g>
	<g>
		<g>
			<path class="st6" d="M815.5,226.4c-0.3,0.4-0.7,0.8-0.9,1.2c-0.1,0.2,0,0.2,0,0.1c-0.3-1,1.8,0,0.6-0.5c0.3,0.6,0.6,1.1,0.8,1.7
				c0.6-1.7,1.6-3.1,2.5-4.7c0.6-1-0.8-2.1-1.7-1.4c-1.7,1.4-2.9,3.3-3.9,5.2c-0.3,0.6-0.3,1.5,0.3,1.9c1,0.6,2,1,3.1,0.5
				c0.8-0.4,1.3-1.2,2-1.8c0.7-0.7,0.7-2-0.1-2.6C817.5,225.4,816.2,225.6,815.5,226.4L815.5,226.4z"/>
		</g>
	</g>
	<g>
		<g>
			<path class="st6" d="M830.9,227.2c0.3-0.7,0.6-1.4,1-2c0.7-1.5,0.5-3.2-1-4.1c-1.4-0.8-3.5-0.5-4.5,0.8c-1.5,2-3.2,4.3-3.2,6.9
				c0,1.3,1.6,2.3,2.8,1.7c2.1-1.1,3.7-2.9,5.5-4.6c-1.8-1.1-3.7-2.2-5.5-3.3c-0.6,0.9-0.9,1.9-1.2,2.9c-0.4,1.6,0.5,3.2,2.1,3.6
				C828.2,229.5,830.3,228.8,830.9,227.2L830.9,227.2z"/>
		</g>
	</g>
	<g>
		<g>
			<path class="st6" d="M828.6,231.7c-0.7,0.9-1.2,1.8-1,3c0.2,1.1,1.2,2,2.3,2.2c0.5,0.1,0.9-0.1,1.4-0.2c0.1,0,0.1,0,0.2-0.1
				c0.3-0.1-0.2,0-0.2,0c0.1-0.1,0.6,0,0.7-0.1c0.6-0.1-0.5,0-0.3,0c1.1,0,2.1-0.2,2.8-1.1c0.5-0.6,0.8-1.3,0.8-2
				c0-0.7-0.3-1.4-0.9-1.9c-0.8-0.7-1.8-0.6-2.8-0.4c0.3,0,0.2,0-0.1,0c-0.2,0-0.4,0.1-0.6,0.1c-0.3,0.1-0.6,0.1-0.8,0.2
				c-0.8,0.1-1.6,0.3-2.3,0.7c-0.9,0.4-1.7,1.2-1.7,2.3c0,1,0.8,1.7,1.7,1.9c1.8,0.4,3.5,0.6,5.3,0c-1-1.4-1.9-2.8-2.9-4.3
				c-0.3,0.3,0.7-0.5,0.3-0.3c-0.1,0.1-0.3,0.2-0.4,0.3c-0.2,0.1-0.1,0.1,0.3-0.1c-0.1,0-0.2,0.1-0.3,0.1c-0.1,0-0.2,0.1-0.3,0.1
				c0.6,0,1.2,0,1.9,0c-0.3,2.5-0.1,3.3,0.7,2.4c1-0.9,1-2.7-0.1-3.5C831.3,230.5,829.4,230.7,828.6,231.7L828.6,231.7z"/>
		</g>
	</g>
	<g>
		<g>
			<path class="st6" d="M816,240.3c0.4,0.3,0.8,0.6,1.2,0.8c0.5,0.3,0.7,0.5,1.4,0.5c0.2,0,0.4,0,0.6,0c0.3,0,0.6,0,0.8,0
				c0.3-0.1,0.6-0.1,0.9-0.2c0.5-0.2,0.8-0.4,1.2-0.7c0.5-0.4,1.1-1.1,1.2-1.8c0-0.1,0-0.2,0.1-0.4c0.1-0.3,0.1-0.8,0.1-1.1
				c0-0.4-0.1-0.8-0.2-1.2c0,0.3,0.1,0.6,0.1,1c0-0.3-0.1-0.6-0.1-0.9c0-1.5-1-2.8-2.3-3.4c-0.7-0.3-1.4-0.4-2.2-0.3
				c-0.6,0.1-1.2,0.2-1.7,0.6c-0.6,0.2-1.1,0.6-1.5,1.1c-0.5,0.6-0.9,1.2-1.1,2C814.3,237.8,814.8,239.3,816,240.3L816,240.3z"/>
		</g>
	</g>
	<g>
		<g>
			<path class="st6" d="M871.5,168.1c-0.5,1.6-1.4,3.5-1.3,5.3c0.1,1.5,1.9,1.3,2.5,0.3c1-1.5,1.3-3.5,1.8-5.2
				c0.2-0.8-0.4-1.5-1.1-1.7C872.5,166.7,871.7,167.3,871.5,168.1L871.5,168.1z"/>
		</g>
	</g>
	<g>
		<g>
			<path class="st6" d="M875.6,177.5C876.2,177.1,874.9,177.4,875.6,177.5c-0.7-0.7-1.3-1.4-1.9-2c0.1,2.2-0.5,4.7,1.4,6.3
				c1.4,1.1,3.7,0.1,4-1.5c0.3-1.2,0.5-2.5,0.6-3.8c0.1-0.7-0.6-1.2-1.2-1.3c-0.7-0.1-1.4,0.3-1.8,0.9c-0.5,0.9-1.1,1.7-1.8,2.4
				c1.4,0.2,2.7,0.4,4.1,0.6c-0.2-0.6-0.5-1.2-0.5-1.7c-0.1-0.8-0.1-1.6-0.2-2.4c-0.1-1-0.7-1.9-1.8-2c-1.6-0.1-2.7,0.5-3.8,1.5
				c-0.8,0.7-0.8,2.1-0.1,2.8C873.4,178.1,874.7,178.2,875.6,177.5L875.6,177.5z"/>
		</g>
	</g>
	<g>
		<g>
			<path class="st6" d="M878.8,169.8c0.4,0,0.5-0.7,0-0.7C878.3,169.1,878.3,169.8,878.8,169.8L878.8,169.8z"/>
		</g>
	</g>
	<g>
		<g>
			<path class="st6" d="M840.6,208.3C840.6,208.3,840.6,208.3,840.6,208.3c-0.4-0.4-0.8-0.8-1.1-1.3c0,0,0,0,0,0
				c0.8-1,1.5-2.1,2.3-3.1c0,0,0,0,0,0c0.2,0,0.4,0,0.6,0c-0.8,0-1.6-0.2-2.5,0c-0.9,0.1-1.7,0.7-1.9,1.6c-0.2,0.7,0,1.4,0.6,1.9
				c-0.2-0.2-0.3-0.5-0.5-0.7c0.2,0.5,0.5,0.9,1.1,1.1c0.7,0.3,1.3,0.1,1.9-0.2c0.5-0.3,0.8-1.1,0.7-1.6c-0.1-0.2-0.1-0.4-0.2-0.5
				c-0.1-0.1-0.2-0.2-0.3-0.3c0.2,0.2,0.4,0.5,0.4,0.8c-0.3,0.5-0.6,1-0.9,1.5c0.2-0.1,0.4-0.3,0.6-0.5c-0.8,0.2-1.6,0.4-2.4,0.6
				c0.4,0.1,0.7,0.3,1,0.5C840.2,208,840.4,208.2,840.6,208.3c0.7,0.2,1.4,0.2,2.1-0.1c0.7-0.3,1.2-0.9,1.4-1.7
				c0.1-0.5,0.1-0.5,0-0.9c0-0.3-0.1-0.6-0.3-0.8c-0.2-0.3-0.5-0.6-0.9-0.7c-0.4-0.2-0.8-0.2-1.2-0.2c-0.7,0.1-1.3,0.4-1.7,0.9
				C839.1,205.8,839.1,207.7,840.6,208.3L840.6,208.3z"/>
		</g>
	</g>
	<g>
		<g>
			<path class="st6" d="M831.1,206.8c-0.7-0.2-1.3-0.3-2-0.2c-1,0.1-2.1,0.5-2.3,1.6c-0.1,0.5-0.1,1.1,0,1.7
				c0.2,0.6,0.5,1.1,1.1,1.4c0.5,0.3,1,0.3,1.5,0.1c0.4-0.2,0.9-0.8,0.9-1.3c-0.1-0.4-0.1-0.7-0.2-1.1c0-0.1-0.1-0.5,0-0.1
				c0-0.2,0-0.1,0,0.1c0-0.2,0-0.1,0,0.1c-0.5,0.3-1,0.7-1.5,1c0.1,0,0.3,0,0.4-0.1c0.4,0-0.3-0.1,0.1,0c0,0,0.1,0,0.1,0
				c0.2,0,0.2,0,0,0c0.1,0,0.3,0.1,0.4,0.2c0.9,0.4,2.1-0.1,2.5-1C832.2,208.4,832.1,207.1,831.1,206.8L831.1,206.8z"/>
		</g>
	</g>
	<g>
		<g>
			<path class="st6" d="M855.5,192.8c-0.2-0.1-0.4-0.1-0.7-0.2c0.2,0.1,0.5,0.2,0.7,0.3C855.5,192.9,855.5,192.9,855.5,192.8
				c-0.5-0.3-1.2-0.3-1.8,0c-0.3,0.1-0.5,0.3-0.7,0.6c-0.2,0.3-0.3,0.6-0.3,1c0,0,0,0.1,0,0.1c0-0.1,0-0.3,0.1-0.4
				c0,0.2-0.1,0.4-0.1,0.6c0.1-0.2,0.1-0.3,0.2-0.5c0,0,0,0.1-0.1,0.1c0.1-0.1,0.2-0.3,0.3-0.4c0,0,0,0,0,0c0.1-0.1,0.3-0.2,0.4-0.4
				c0,0,0,0,0,0c0.2-0.1,0.3-0.2,0.5-0.3c0,0,0,0,0,0c0.2,0,0.4-0.1,0.5-0.1c0,0,0,0,0,0c0.2,0,0.3,0,0.5,0c0,0,0,0-0.1,0
				c0.2,0,0.3,0.1,0.5,0.1c-0.4-0.1-0.7-0.2-1.1-0.2c-0.5,0.1-0.9,0.3-1.3,0.6c-0.3,0.3-0.7,0.7-0.7,1.2c-0.1,0.3-0.1,0.7,0,1
				c0.1,0.4,0.6,1,1,1.1c0.6,0.2,1.1,0.2,1.6,0c0.2-0.1,0.4-0.2,0.6-0.3c0.5-0.3,0.9-0.8,1-1.4c0.2-0.8-0.2-1.6-0.6-2.2
				c-0.5,0.8-0.9,1.7-1.4,2.5c0,0,0.1,0,0.1,0c-0.3,0-0.5-0.1-0.8-0.1c0.2,0.1,0.4,0.1,0.6,0.2c0.9,0.3,1.9-0.1,2.3-1
				c0.2-0.4,0.2-0.8,0-1.2C856.3,193.1,856,192.9,855.5,192.8L855.5,192.8z"/>
		</g>
	</g>
	<g>
		<g>
			<path class="st6" d="M877.9,207.3c1.1,0.1,2.2,0.1,3.3,0.1c1.3,0,2.3,0.1,3-1.1c0.2-0.4,0.2-0.9,0-1.2c0-0.1-0.1-0.1-0.1-0.2
				c-0.3-0.4-0.9-0.7-1.4-0.6c-1.5,0.3-3,0.5-4.5,0.6C877,205.1,876.4,207.2,877.9,207.3L877.9,207.3z"/>
		</g>
	</g>
	<g>
		<g>
			<path class="st6" d="M895.5,208.9c0.7-0.3,1.4-0.7,2.1-1c0.8-0.4,1.3-0.9,1.8-1.7c0.7-1.2-0.3-2.4-1.6-2.3
				c-0.9,0.1-1.3,0.3-1.8,0.6c-0.5,0.2-1.1,0.5-1.6,0.7c-1,0.4-1.9,1.5-1.5,2.6C893.3,208.8,894.5,209.4,895.5,208.9L895.5,208.9z"
				/>
		</g>
	</g>
	<g>
		<g>
			<path class="st6" d="M798.6,265c0-0.1,0-0.2-0.1-0.3c-0.1-0.1,0,0.2,0,0.1c0,0.2-0.1,0.4-0.1,0.6c0,0,0,0,0,0
				c-0.4,0.2-0.9,0.5-1.3,0.7c0,0,0,0,0,0c-0.2-0.1-0.4-0.1-0.5-0.2c0.1,0,0,0,0,0c-0.1-0.1-0.1-0.1,0,0c0,0,0,0,0-0.1
				c0,0,0,0.1,0,0.1c0.1,0.2,0.2,0.4,0.3,0.6c0.1,0.2,0-0.1,0,0.1c0.1,0.2,0.1,0.4,0.2,0.6c0.1,0.2,0-0.3,0,0c0,0.1,0,0.2,0,0.4
				c1-0.5,2-1.1,3-1.6c-0.2-0.2-0.5-0.4-0.8-0.5c-0.3-0.2,0.1,0.1,0,0c-0.1-0.1-0.2-0.1-0.3-0.2c-0.2-0.1-0.3-0.3-0.5-0.4
				c-0.2-0.1-0.3-0.2-0.5-0.3c-0.3-0.1,0.2,0.1-0.1-0.1c-0.5-0.3-1.2-0.4-1.7,0c-0.5,0.4-0.8,1-0.6,1.6c0.2,0.7,0.6,1.2,1.1,1.7
				c0.4,0.5,0.9,0.9,1.5,1.1c0.7,0.3,1.5,0.1,2-0.4c0.6-0.5,0.8-1.1,0.6-1.9c-0.1-0.8-0.7-1.5-1.3-2c-0.5-0.4-1.5-1-2.2-0.7
				c-0.5,0.2-0.8,0.6-0.9,1.2c0,0.5,0.4,0.8,0.7,1.1C797.6,266.9,798.9,265.9,798.6,265L798.6,265z"/>
		</g>
	</g>
	<g>
		<g>
			<path class="st6" d="M806.2,270.9c1.4,1.8,3.4,2.6,5.6,1.8c2.1-0.7,2.8-2.9,1.9-4.7c0.5,1,0-0.2-0.1-0.5
				c-0.1-0.4-0.3-0.9-0.6-1.3c-1.4,1.2-2.9,2.5-4.3,3.7c1.5,1,2.7,2.4,4.7,2.3c0.8,0,1.8-0.8,2-1.7c0.4-2.2-1.3-3.6-2.8-4.9
				c-1.5-1.3-4.3-0.2-4.6,1.8c-0.2,0.9-0.4,1.9-0.2,2.8c1.1-1.1,2.1-2.3,3.2-3.4c-0.1,0-0.3,0-0.4,0.1c-0.2,0-0.2,0,0.2,0
				c0.2,0.1,0.7,0.4,0.2,0c-1.2-1-2.9-0.7-4,0.3C805.9,268,805.3,269.7,806.2,270.9L806.2,270.9z"/>
		</g>
	</g>
	<g>
		<g>
			<path class="st6" d="M805.4,257.3C805.4,257.1,805.5,256.9,805.4,257.3c-0.4,0.7-1.2,1.1-1.9,1c0.3,0-0.5-0.1-0.1,0
				c0.1,0,0.3,0.2,0.1,0c-0.3-0.2,0.1,0.1,0.1,0.1c0.1,0.1,0.2,0.1,0.2,0.2c0.1,0.1,0.2,0.2,0.3,0.3c0.3,0.3,0,0,0,0
				c0,0,0.2,0.3,0.2,0.3c0.3,0.4,0.7,0.6,1.2,0.7c0.3,0,0.5,0,0.8,0c0.8-0.2-0.4,0.1-0.1,0c0.9-0.2,1.8-1,1.7-2
				c0-0.7-0.5-1.3-0.9-1.8c-0.5-0.5-1-1-1.7-1.4c-1.7-0.8-3.6,0.3-4,2.1c-0.2,1,0.4,2.2,1.5,2.3
				C803.8,259.1,805.2,258.4,805.4,257.3L805.4,257.3z"/>
		</g>
	</g>
	<g>
		<g>
			<path class="st6" d="M817,258.7C817.1,258.2,817.1,258.6,817,258.7c-0.5,0.2,0.5-0.1,0.1-0.1c0.5-0.1,1.1-0.2,1.6-0.2
				c1.6-0.3,3.1-1,3.5-2.6c0.4-1.3-0.9-1.9-2-1.6c-0.4,0.1-1.1,0.3-1.6,0.4c-0.5,0.1-1.4,0.3-2.1,0.5c-1.6,0.4-2.9,1.5-3.2,3.2
				C812.9,260.7,816.4,260.9,817,258.7L817,258.7z"/>
		</g>
	</g>
	<g>
		<g>
			<path class="st6" d="M839.1,283.7c0.8,1.5,1.8,2.8,2.9,4c1.1,1.1,3.3,0,3.5-1.3c0.2-1.3,0.2-2.4-0.1-3.7
				c-0.8,0.7-1.6,1.4-2.4,2.1c1.1,0.5,1.9,2,2.5,3c0.7,1.1,1.3,2.3,2.1,3.3c0.8,1.1,2.9,0.1,2.4-1.2c-1-3-2.7-5.7-5-7.9
				c-1.1-1.1-2.7,0.3-2.9,1.5c-0.1,0.7-0.2,1.2-0.5,1.8c1.1-0.3,2.2-0.6,3.3-0.8c-0.9-0.9-1.7-2-2.3-3.2
				C841.5,279.1,838,281.5,839.1,283.7L839.1,283.7z"/>
		</g>
	</g>
	<g>
		<g>
			<path class="st6" d="M850.5,296.5c0.8,2.1,2,4,4.2,4.8c1.3,0.4,3,0,3.6-1.4c0.1-0.3,0.1-0.3,0-0.1c0.1-0.1,0.3-0.3,0.4-0.4
				c0.3-0.4,0.6-0.8,0.8-1.2c-1.3,0.2-2.7,0.3-4,0.5c0.6,0.7,0.9,1.4,1.2,2.2c0.8,2.7,5.2,0.9,4.3-1.6c-0.4-1.2-0.8-2.4-1.3-3.6
				c-0.8-1.8-3.6-1.1-3.5,0.8c0,1.5,0.3,2.9,0.5,4.3c1.4-0.5,2.9-1.1,4.3-1.6c-0.3-1.2-0.8-2.3-1.6-3.3c-1.1-1.5-3.1-0.9-4,0.5
				c0.4-0.6,0.1-0.2-0.2,0c-0.2,0.1-0.4,0.3-0.6,0.5c1.1,0,2.1,0,3.2,0c-0.6-0.6-1.3-1.7-1.6-2.5c-0.6-1.5-2.1-2.1-3.6-1.6
				C851.2,293.3,849.9,295,850.5,296.5L850.5,296.5z"/>
		</g>
	</g>
	<g>
		<g>
			<path class="st6" d="M854.9,275.2c0-0.4,0-0.8,0.1-1.3c-1,0.7-2,1.3-2.9,2c2,0.5,3.7,1.5,5.7,1.8c1.6,0.2,3-1.3,2.7-2.9
				c-0.3-1.5-0.9-2.8-1.4-4.3c-0.8,0.8-1.5,1.7-2.3,2.5c3.4,0.3,5.8,3.4,8.9,4.5c1.7,0.6,3.3-1.1,2.5-2.8c-0.2-0.3-0.3-0.7-0.5-1
				c-0.7,0.8-1.5,1.6-2.2,2.4c3.7,1.6,7.7,4.2,7.5,8.5c-0.1,1.3,1.9,1.3,2.3,0.3c1-2.3,1.4-4.8-0.2-6.9c-1.9-2.5-5.5-2.3-7.6-4.6
				c-1-1-2.8,0.3-2.8,1.4c0,0.4,0,0.8,0,1.2c0.9-0.6,1.9-1.3,2.8-1.9c-3.3-1.6-6.1-4.2-9.8-4.8c-1.4-0.2-2.6,1.1-2.3,2.5
				c0.3,1.3,0.5,2.6,0.7,4c0.9-0.8,1.8-1.6,2.7-2.3c-1.9-0.3-3.3-1.4-5-2c-1.1-0.4-2.8,0.1-3.3,1.3c-0.7,1.8-0.8,2.4-0.4,4.2
				C850.8,279.9,855.7,278.1,854.9,275.2L854.9,275.2z"/>
		</g>
	</g>
	<g>
		<g>
			<path class="st6" d="M873,286.9c0.5,0,0.5-0.7,0-0.7C872.5,286.1,872.5,286.9,873,286.9L873,286.9z"/>
		</g>
	</g>
	<g>
		<g>
			<path class="st6" d="M856.7,281c-0.1-0.3-0.2-0.5-0.2-0.8c-0.5-1.6-3.1-1.2-3.3,0.4c-0.3,2,0,4-0.1,5.9c1.7-0.4,3.3-0.8,5-1.2
				c-0.5-1.3-0.8-2.6-1.3-3.9c-0.8-2-3.3-1.2-3.9,0.5c-0.6,1.8-0.4,4.1,0.6,5.8c1.4,2.3,5.5,0.1,4.6-2.4c-0.6-1.7-1-3.4-1.5-5.1
				c-1.1,0.4-2.2,0.8-3.3,1.2c0.1,0.3,0.2,0.5,0.3,0.8C854.1,284.2,857.3,282.9,856.7,281L856.7,281z"/>
		</g>
	</g>
	<g>
		<g>
			<path class="st6" d="M824.8,309.9c-0.5-0.7-1-1.2-1.7-1.6c-1-0.7-2.8,0.3-2.3,1.5c0.6,1.6,1.9,4,3.8,4c1.1,0,2.2-1,1.5-2.1
				c-0.4-0.7-1.1-1-1.6-1.6c-0.5-0.5-0.9-1-1.2-1.6c-0.6,0.7-1.2,1.4-1.9,2c0.4,0.2,0.6,0.7,0.8,1.1c0.4,0.7,1.5,0.7,2,0.3
				C824.9,311.5,825.3,310.6,824.8,309.9L824.8,309.9z"/>
		</g>
	</g>
	<g>
		<g>
			<path class="st6" d="M827.3,307.7c0.8-0.9,1.2-2.1,1.3-3.3c-0.5,0.3-1,0.5-1.5,0.8c0.7,0.8,1.4,1.5,2.4,2.1
				c1,0.6,2.3-0.4,1.7-1.5c-0.7-1.3-1.9-1.9-3.2-2.1c-0.6-0.1-1.3,0.6-1.1,1.2c0.2,0.7,0.2,1.4-0.5,1.9
				C825.5,307.4,826.6,308.5,827.3,307.7L827.3,307.7z"/>
		</g>
	</g>
	<g>
		<g>
			<path class="st6" d="M806.6,292.3c0.4-1.7,0.1-3.8,1-5.2c-1.7-0.2-3.4-0.5-5.1-0.7c0,0,0.1,0.6,0,0.6c0,0,0.2-0.9,0.3-0.8
				c-0.1,0-0.8,0.9-0.8,1c-0.6,1.2-0.1,2.5,1.1,3c2.8,1.2,5-1.9,4.7-4.4c-0.4-3.2-4.6-2.8-5.4,0c-0.6,1.9-0.4,4-0.9,5.9
				C801.1,294.9,806,295.2,806.6,292.3L806.6,292.3z"/>
		</g>
	</g>
	<g>
		<g>
			<path class="st6" d="M799,289.4c0.4,0,0.5-0.7,0-0.7C798.6,288.8,798.5,289.4,799,289.4L799,289.4z"/>
		</g>
	</g>
	<g>
		<g>
			<path class="st6" d="M795.4,286.3c-0.2-0.4-0.5-0.8-0.5-1.3c-0.5,0.2-0.9,0.3-1.4,0.5c0.6,0.8,0.6,1.9,0.7,2.8
				c0,0.9,0.1,1.7,0.3,2.5c0.2,1,1.8,0.5,1.7-0.4c-0.1-2.1-0.4-3.9-1.4-5.8c-0.4-0.7-1.3-0.1-1.4,0.5c-0.1,0.7,0.2,1.3,0.5,1.9
				C794.2,288.2,795.9,287.3,795.4,286.3L795.4,286.3z"/>
		</g>
	</g>
	<g>
		<g>
			<path class="st6" d="M803.2,308c0.1,0.7,0.2,1.5,0.3,2.2c1.7-1.5,3.4-2.9,5.1-4.4c0,0-0.1,0-0.1-0.1c0.4,0.4,0.9,0.7,1.3,1.1
				c-0.2-0.3-0.4-0.7-0.6-1.1c0.1,0.2,0.2,0.5,0.3,0.7c-0.1-0.2-0.2-0.4-0.2-0.6c-1.9,1-3.9,2-5.8,3c0.1,0.1,0.1,0.2,0.2,0.3
				c-0.1-0.2-0.2-0.5-0.3-0.7c0.3,0.8,0.7,1.6,1.4,2.2c0.9,0.8,2.3,0.7,3.4,0.2c0.5-0.3,0.9-0.6,1.3-1.1c0.4-0.5,0.7-1.2,0.6-1.8
				c-0.1-0.5-0.1-0.8-0.3-1.2c-0.2-0.4-0.4-0.8-0.6-1.2c0.1,0.2,0.2,0.5,0.3,0.7c-0.1-0.1-0.1-0.2-0.1-0.4c-0.4-1.5-2.1-2.1-3.5-1.8
				c-0.7,0.2-1.4,0.5-1.9,1.1c-0.5,0.6-1,1.4-0.9,2.2c0.1,0.9,0.3,1.7,0.5,2.6c0-0.6,0-1.1,0-1.7c0,0,0,0.1,0,0.1
				c-0.2,0.9-0.1,1.7,0.4,2.5c0.5,0.9,1.6,1.3,2.6,1.3c2.1,0,3.8-1.6,3.9-3.7c0-0.5,0-0.9,0-1.4c0-0.9-0.4-1.8-1.1-2.3
				c-0.7-0.5-1.7-0.8-2.5-0.7c-1,0.1-1.9,0.6-2.6,1.3C803.6,306.2,803.1,307.1,803.2,308L803.2,308z"/>
		</g>
	</g>
	<g>
		<g>
			<path class="st6" d="M766.7,316c0,0.3,0,0.3,0-0.1c0,0.1-0.1,0.3-0.1,0.4c-0.1,0.6,0.3-0.6,0,0.1c0,0.1-0.1,0.2-0.1,0.2
				c-0.2,0.3-0.1,0.2,0.1-0.2c0,0-0.5,0.5-0.5,0.6c1.5,0,3,0,4.5,0c-0.2-0.3-0.2-0.3,0,0c0-0.1-0.1-0.1-0.1-0.2
				c-0.1-0.3-0.1-0.3,0,0c0-0.1,0-0.2,0-0.3c0-0.2,0-0.1,0,0.1c0-0.1,0-0.2,0.1-0.3c0.1-0.2,0-0.1-0.1,0.2c0.1-0.1,0.1-0.2,0.2-0.3
				c-1.5,0.2-3.1,0.4-4.6,0.6c0.3,0.4,0.6,0.8,1,1.1c0.8,0.8,2.1,0.2,2.8-0.4c0.6-0.5,0.9-1.2,1.1-2c0.2-1.1-0.2-2.3-1.3-2.7
				c-1.1-0.4-2.5-0.1-3.2,0.8c-1.4,1.8-1.6,3.9-1,6c0.6,1.9,2.7,2,4.2,1.2c1.7-1,2.9-2.8,3.2-4.7c0.3-1.8-0.8-3.3-2.7-3.3
				C768.3,312.7,766.8,314.2,766.7,316L766.7,316z"/>
		</g>
	</g>
	<g>
		<g>
			<path class="st6" d="M762.5,308.6c0-0.3,0-0.5,0-0.6c0-0.1,0.1-0.3,0-0.1c0.1-0.3,0.1,0,0,0c0-0.1,0.1-0.1,0.1-0.1
				c-0.1,0.1-0.1,0.1-0.2,0.2c0.4-0.2-0.1,0-0.1,0c0,0,0.3-0.1,0.3-0.1c-0.3,0.1-0.3,0.1-0.2,0.1c0.1,0,0.1,0,0,0
				c-0.3,0,0.5,0.1,0.2,0c-0.3-0.1,0,0,0.1,0.1c0.1,0.1-0.3-0.3-0.1,0c0.1,0.1-0.3-0.4-0.1-0.1c0.2,0.3,0-0.2,0-0.1
				c0,0,0.1,0.4,0,0.1c0-0.3,0,0.2,0,0.3c0.8-0.6,1.5-1.3,2.3-1.9c0,0-0.5-0.1-0.2,0c-0.1,0-0.3-0.1-0.4-0.2
				c-0.9-0.2-1.8,0.1-2.1,1.1c-0.4,1.3,0.6,2.4,1.8,2.5c1.2,0.2,2.2-0.8,2.3-1.9c0.1-2.2-1.9-3.7-4-3.1c-2,0.6-2.9,2.7-2.3,4.6
				C760.3,310.6,762.5,310,762.5,308.6L762.5,308.6z"/>
		</g>
	</g>
	<g>
		<g>
			<path class="st6" d="M781.4,289.4c-2.4,0-2.4,2.8-3.7,4.2c0.8,0,1.7,0,2.5,0c-0.3-0.4,0-0.1,0,0c0-0.1,0.1-0.3,0.1-0.4
				c0.1-0.4,0.4-0.7,0.5-1.1c0.4-0.8,1-1.4,1.3-2.3c0.5-1.2-0.9-1.9-1.7-1c-1.4,1.5-4.4,4.4-2.9,6.7c0.7,1.1,2.1,0.6,2.7-0.3
				c0.5-0.8,0.7-1.6,0.8-2.6c0-0.3,0-0.7,0.1-1c0-0.1,0-0.3,0.1-0.5c0.1-0.2-0.2,0,0,0C782.3,291.1,782.7,289.4,781.4,289.4
				L781.4,289.4z"/>
		</g>
	</g>
	<g>
		<g>
			<path class="st6" d="M757.5,331.8c0.9,1.1,1.9,2.2,3.1,3c0.7,0.5,1.6,0.5,2.3,0c0.6-0.4,1.2-1.4,0.9-2.2
				c-0.5-1.2-1.1-2.3-1.5-3.4c-0.4-0.9-1.3-1.4-2.3-1.2c-0.9,0.2-1.8,1.1-1.8,2.1c0.1,1.3,0.6,2.5,1.5,3.5c0.5,0.6,1.2,0.8,1.9,0.5
				c0.6-0.2,1.3-1,1.2-1.7c-0.2-1.1-0.3-2.2-0.6-3.3c-1.1,0.8-2.2,1.5-3.4,2.3c0.7,0.6,0.9,1.6,1.2,2.5c1.1-0.7,2.1-1.4,3.2-2.2
				c-1-0.7-1.8-1.4-2.4-2.3c-0.6-0.8-1.8-0.9-2.7-0.4C757.3,329.8,756.8,331,757.5,331.8L757.5,331.8z"/>
		</g>
	</g>
	<g>
		<g>
			<path class="st6" d="M768.5,339.3c-0.3-0.1-0.7-0.1-1-0.2c-1.3-0.2-2.3,1.1-2.1,2.2c0.2,1.3,1.3,2.3,1.7,3.5
				c0.8-0.7,1.6-1.3,2.3-2c-0.7-0.3-1.4-0.5-2.2-0.6c-1.2-0.1-2.2,1.4-1.2,2.3c0.6,0.5,1.2,0.9,1.9,1.2c1.2,0.6,2.6-0.8,2.3-2
				c-0.3-1.3-1.2-2.3-1.5-3.6c-0.7,0.7-1.4,1.5-2.1,2.2c0.4,0,0.7,0.1,1.1,0.1c0.9,0.1,1.8-0.5,2-1.4
				C769.9,340.2,769.3,339.4,768.5,339.3L768.5,339.3z"/>
		</g>
	</g>
	<g>
		<g>
			<path class="st6" d="M756.7,350.1C756.2,349.6,756.6,350,756.7,350.1c0,0.1,0,0.1,0.1,0.2C756.9,350.5,756.8,350.4,756.7,350.1
				c-0.1,0,0.1,0.3,0.1,0.4c0.2,0.5,0-0.6,0,0c1.6-0.8,3.1-1.6,4.7-2.4c-0.2-0.1-0.4-0.2-0.5-0.4c-0.1-0.1-0.2-0.1-0.2-0.2
				c-0.4-0.3,0.3,0.3,0.1,0.1c-0.3-0.4-0.6-0.8-0.8-1.2c-0.3-0.6-1.2-1-1.8-1.1c-0.6-0.1-1.2,0.1-1.8,0.3c-1.1,0.6-2.2,2.1-1.6,3.4
				c0.3,0.8,0.7,1.6,1.2,2.3c0.3,0.4,0.7,0.8,1,1.1c0.5,0.5,1.2,0.7,1.9,0.9c1.1,0.2,2.3-0.5,3-1.3c0.6-0.8,0.8-2.1,0.2-3
				c-0.5-0.6-0.8-1.2-1.6-1.4c-1-0.4-1.9,0-2.6,0.7c-0.6,0.6-0.8,1.3-0.9,2c1.7-0.4,3.5-0.8,5.2-1.3c-0.4-0.6-1-1-1.5-1.5
				c0.2,0.2,0.3,0.4,0.5,0.5c-0.4-0.5-0.8-1.1-1.1-1.7c-1.6,1.1-3.3,2.2-4.9,3.3c0.8,1.3,1.9,2.2,3.1,2.9c0.8,0.5,2,0.1,2.7-0.3
				c0.7-0.5,1.5-1.5,1.3-2.4c-0.1-0.9-0.3-1.5-0.7-2.3c-0.3-0.6-0.8-1.1-1.2-1.5c-1-1-2.9-0.5-3.8,0.5c-0.4,0.5-0.8,1.2-0.7,1.9
				C755.9,349.1,756.2,349.6,756.7,350.1L756.7,350.1z"/>
		</g>
	</g>
	<g>
		<g>
			<path class="st6" d="M747,300.4c0.1-0.3,0.2-0.6,0.3-0.9c-1.8,0-3.7,0-5.5,0c0.1,2.1-0.2,4.2-0.1,6.3c1.8-0.7,3.6-1.4,5.4-2
				c-0.5-1.1-0.2-2.3-0.7-3.4c-0.5-1.1-1.6-1.3-2.7-0.7c-2.4,1.4-2.4,4.5-1.9,6.9c0.2,1.2,1.7,1.9,2.9,1.7c1.3-0.1,2.5-1.1,2.8-2.4
				c0.6-2.2,0.3-4.7,0-7c-0.2-1.3-1-2.3-2.5-2.3c-1.3,0-2.7,0.9-3,2.3c-0.1,0.3-0.1,0.6-0.2,0.9C741,303.3,746.1,303.5,747,300.4
				L747,300.4z"/>
		</g>
	</g>
	<g>
		<g>
			<path class="st6" d="M741.9,287.4c1-0.5,1.5-1.3,1.9-2.3c0.1-0.4,0.3-0.8,0.4-1.2c0,0.1,0.2-0.6,0.1-0.4c0.1-0.4,0.6-0.8,0-0.2
				c-1-0.3-2-0.6-3-0.8c0.4,1.1,1.1,2.5,2.1,3c0.4,0.2,1.1,0.1,1.4-0.2c1.6-1.4,1.3-3.8-0.2-5.1c-0.9-0.8-2.7-0.3-3.2,0.8
				c0,0.1-0.3,0.8-0.2,0.5c-0.1,0.2-0.2,0.5-0.3,0.7c-0.1,0.4-0.2,0.8-0.2,1.2c-0.1,0.3-0.1,0.7-0.2,1c0,0.1-0.1,0.5-0.1,0.5
				c-0.1-0.2,0.7-0.6,0.6-0.5c-0.8,0.4-1.4,1.2-1.2,2.1C740.1,287.3,741.2,287.8,741.9,287.4L741.9,287.4z"/>
		</g>
	</g>
	<g>
		<g>
			<path class="st6" d="M744.5,265.2c0.1-1.7-0.2-4.2,1-5.6c-1.2,0-2.5,0-3.7,0c0.8,1.3,0.7,3,1.1,4.5c0.4,1.6,2.3,1.6,3.4,0.9
				c1.3-0.7,1.7-2.2,1.1-3.5c-0.5-0.9-1.8-0.8-2.4-0.3c-0.5,0.3-0.2,0.2,0.7-0.2c0.6,0.6,1.2,1.3,1.8,1.9c0.1-2.1-0.2-4.4-1.6-6.1
				c-1.2-1.5-3.1-0.9-4.1,0.5c-1.6,2.4-1.4,5.6-1.6,8.3c-0.1,1.2,1.2,1.9,2.2,1.8C743.6,267.4,744.4,266.3,744.5,265.2L744.5,265.2z
				"/>
		</g>
	</g>
	<g>
		<g>
			<path class="st6" d="M758.5,253.6c0,0.4,0-0.2,0-0.2c0.1-0.4-0.1,0.2,0,0c0.1-0.3-0.4,0.4,0,0c0.3-0.4-0.4,0.3,0.1-0.1
				c-1.1-0.1-2.1-0.3-3.2-0.4c0.2,0.3,0.3,0.6,0.5,0.8c0.2,0.4,0-0.1,0.2,0.3c0.3,0.6,0.5,1.2,0.8,1.8c0.8,1.5,3.3,0.9,3.9-0.5
				c0.6-1.4,0.9-2.9,0.4-4.4c-0.6-1.5-2.8-1.1-3.1,0.4c-0.1,0.3-0.2,0.9-0.3,1.1c-0.1,0.2-0.2,0.4-0.3,0.6c0.2-0.3-0.2,0.2-0.2,0.2
				c1.3,0.4,2.6,0.7,3.9,1.1c-0.1-0.9-0.3-1.6-0.7-2.5c-0.3-0.6-0.6-1.1-1-1.7c-0.7-1-2.2-1.1-3.2-0.4c-1.5,1.1-2.3,2.6-2.3,4.4
				c0,1.2,1.2,2.1,2.3,1.9C757.5,255.8,758.4,254.9,758.5,253.6L758.5,253.6z"/>
		</g>
	</g>
	<g>
		<g>
			<path class="st6" d="M785.1,254.4c1.9-2.2,3.7-4.5,5.5-6.7c-1.1-0.5-2.2-0.9-3.3-1.4c-0.4,2.7-2.1,4.9-2.9,7.4
				c-0.6,2,2.4,3,3.5,1.5c4.2-5.8,7.1-12,10.6-18.2c0.8-1.4-1.3-2.5-2.2-1.3c-4.1,5.5-7.3,11.6-11.4,17.1c1.1,0.7,2.2,1.3,3.3,2
				c1.1-2.8,3-5.3,3-8.4c0-1.8-2.4-2.1-3.4-0.9c-1.9,2.2-3.7,4.4-5.5,6.7C780.7,254.2,783.5,256.3,785.1,254.4L785.1,254.4z"/>
		</g>
	</g>
	<g>
		<g>
			<path class="st6" d="M804.2,243c2.5-1.1,8.6-3.5,6.5-7.3c-0.5-0.8-1.7-0.1-1.7,0.6c-0.1,2.9-3.2,3.9-5.5,4.7
				C802.3,241.5,802.8,243.6,804.2,243L804.2,243z"/>
		</g>
	</g>
	<g>
		<g>
			<path class="st6" d="M812,232.2c0.4,0,0.5-0.7,0-0.7C811.6,231.5,811.5,232.2,812,232.2L812,232.2z"/>
		</g>
	</g>
	<g>
		<g>
			<path class="st6" d="M802.1,208.1c-0.6,1.3-1.3,2.5-2,3.7c1.8-0.2,3.5-0.4,5.3-0.6c-0.4-0.6-0.1,0.8,0,0.1c0,0,0-0.8,0-0.5
				c0.1-0.6,0.2-0.8,0.5-1.2c0.4-0.7,0.8-1.4,0.5-2.3c-0.2-0.8-1-1.3-1.8-1.3c-1.7,0-3,1.4-3.7,2.8c-0.3,0.6-0.6,1.3-0.7,1.9
				c-0.1,0.4-0.1,0.8-0.2,1.2c0,0.1,0,0.3,0,0.4c0-0.2,0-0.2,0,0.1c-0.2,1.3,0.2,2.5,1.5,3.1c1.3,0.5,2.7,0,3.7-0.9
				c1.2-1.2,2.2-2.7,3.1-4.1c0.8-1.4,0.3-3.6-1.3-4.2C805,205.8,802.9,206.5,802.1,208.1L802.1,208.1z"/>
		</g>
	</g>
	<g>
		<g>
			<path class="st6" d="M810.2,201.7c0.1,0,0.2,0.1,0.4,0.1c0.1,0,0.2,0.1,0.3,0.1c0.1,0,0.2,0,0.3,0c0.1,0,0.2-0.1,0.3-0.1
				c0.2-0.1,0.3-0.2,0.4-0.3c0.1-0.1,0.2-0.2,0.2-0.3c0.1-0.1,0.1-0.2,0.2-0.3c0.1-0.1,0.1-0.2,0.1-0.3c0-0.2,0-0.3,0-0.5
				c0-0.1-0.1-0.2-0.1-0.3c-0.1-0.2-0.2-0.4-0.4-0.6c-0.2-0.1-0.4-0.2-0.6-0.3c-0.3,0-0.5,0-0.7,0.1c-0.2,0.1-0.4,0.2-0.5,0.3
				c-0.2,0.1-0.3,0.3-0.4,0.4c-0.1,0.2-0.2,0.4-0.2,0.7C809.4,201,809.7,201.5,810.2,201.7L810.2,201.7z"/>
		</g>
	</g>
	<g>
		<g>
			<path class="st6" d="M815.8,199.6c0.5,0,0.5-0.7,0-0.7C815.3,198.9,815.3,199.6,815.8,199.6L815.8,199.6z"/>
		</g>
	</g>
	<g>
		<g>
			<path class="st6" d="M819.2,202.7c0.4,0,0.5-0.7,0-0.7C818.8,202.1,818.8,202.7,819.2,202.7L819.2,202.7z"/>
		</g>
	</g>
	<g>
		<g>
			<path class="st6" d="M833.9,182.1c-0.2,0-0.5,0-0.7,0c0.9,0.8,1.9,1.6,2.8,2.3c0,0,0-0.1,0-0.1c0,0.3,0.1,0.6,0.1,0.9
				c0-0.2,0-0.4,0-0.6c0,0.3-0.1,0.6-0.1,0.9c0-0.1,0-0.2,0.1-0.2c-0.1,0.3-0.2,0.6-0.3,0.9c0-0.1,0.1-0.1,0.1-0.2
				c-0.2,0.3-0.4,0.5-0.5,0.8c0.1-0.1,0.2-0.2,0.3-0.3c-0.2,0.2-0.5,0.4-0.7,0.6c0.6-0.5,1.2-0.9,1.6-1.6c0.4-0.7,0.6-1.6,0.3-2.4
				c-0.6-2.1-3.1-2.4-4.8-1.7c-0.9,0.4-1.7,0.9-2.3,1.7c-0.5,0.7-1,1.3-1.2,2.1c-0.2,0.9-0.1,1.7,0.2,2.5c0.5,1.4,1.6,2.4,3.1,2.6
				c1.6,0.2,3.2-0.4,4.2-1.6c1-1.1,1.5-2.6,1-4.1C836.6,183.4,835.3,182.1,833.9,182.1L833.9,182.1z"/>
		</g>
	</g>
	<g>
		<g>
			<path class="st6" d="M834,193.2c0.5,0,0.5-0.7,0-0.7C833.5,192.5,833.5,193.2,834,193.2L834,193.2z"/>
		</g>
	</g>
	<g>
		<g>
			<path class="st6" d="M815.8,203.3c0.5,0,0.5-0.7,0-0.7C815.3,202.6,815.3,203.3,815.8,203.3L815.8,203.3z"/>
		</g>
	</g>
	<g>
		<g>
			<path class="st6" d="M828.6,265.2c0,0-0.1,0.1-0.1,0.1c-0.1,0.1-0.2,0.2-0.2,0.3c-0.1,0.2-0.2,0.4-0.2,0.6c0,0.1,0,0.3,0,0.4
				c0,0.2,0.1,0.4,0.2,0.6c0,0,0.1,0.1,0.1,0.1c0.1,0.1,0.2,0.2,0.3,0.3c0.2,0.2,0.4,0.2,0.6,0.3c0.1,0.1,0.3,0.1,0.5,0.1
				c0.2,0,0.3,0,0.5-0.1c0.3,0,0.5-0.1,0.7-0.3c0.1-0.1,0.3-0.2,0.4-0.3c0.1-0.1,0.2-0.3,0.3-0.4c0.1-0.2,0.2-0.4,0.2-0.7
				c0-0.2,0-0.3,0-0.4c0-0.2,0-0.3-0.1-0.4c-0.1-0.2-0.2-0.4-0.4-0.5c-0.1-0.1-0.3-0.2-0.4-0.2c-0.1,0-0.3-0.1-0.4-0.1
				c-0.2,0-0.3,0-0.5,0c-0.3,0-0.5,0.1-0.7,0.2C829,264.8,828.8,265,828.6,265.2L828.6,265.2z"/>
		</g>
	</g>
	<g>
		<g>
			<path class="st6" d="M830.2,270.7c0.4,0,0.5-0.7,0-0.7C829.8,270,829.7,270.7,830.2,270.7L830.2,270.7z"/>
		</g>
	</g>
	<g>
		<g>
			<path class="st6" d="M836,282.8c0.5,0,0.5-0.7,0-0.7C835.5,282.1,835.5,282.8,836,282.8L836,282.8z"/>
		</g>
	</g>
	<g>
		<g>
			<path class="st6" d="M834.8,278.8c0.5,0,0.5-0.7,0-0.7C834.4,278,834.3,278.8,834.8,278.8L834.8,278.8z"/>
		</g>
	</g>
	<g>
		<g>
			<path class="st6" d="M831.1,277.3c0.5,0,0.5-0.7,0-0.7C830.6,276.6,830.6,277.3,831.1,277.3L831.1,277.3z"/>
		</g>
	</g>
	<g>
		<g>
			<path class="st6" d="M835.7,275.2c0.4,0.2,0.8,0.5,1,0.9c0.1,0.2,0.5,0.2,0.7,0.1c0.2-0.2,0.3-0.4,0.2-0.7
				c-0.3-0.5-0.7-1-1.2-1.3c-0.3-0.2-0.6-0.1-0.9,0.2C835.3,274.7,835.4,275,835.7,275.2L835.7,275.2z"/>
		</g>
	</g>
	<g>
		<g>
			<path class="st6" d="M826,276.3c0.1,0.1,0.2,0.3,0.3,0.4c-0.1-0.2-0.2-0.5-0.3-0.7C825.9,276,826,276.1,826,276.3
				c0-0.2,0-0.5-0.1-0.8c0,0.1,0,0.2,0,0.2c0-0.3,0.1-0.5,0.1-0.8c0,0.1,0,0.1-0.1,0.2c0.1-0.2,0.2-0.5,0.3-0.7c0,0,0,0.1,0,0.1
				c-0.3,0.7-0.5,1.5-0.3,2.2c0.2,0.6,0.6,1.1,1.2,1.4c1.2,0.7,3.1,0.4,4-0.7c0.2-0.3,0.5-0.6,0.6-0.9c0.3-0.6,0.4-1.1,0.4-1.7
				c0-0.3,0-0.5-0.1-0.7c0-0.3-0.1-0.6-0.2-0.9c-0.2-0.5-0.5-1-0.9-1.3c-0.2-0.1-0.5-0.3-0.7-0.4c-0.9-0.4-2-0.2-2.8,0.2
				c-0.8,0.4-1.4,1-1.7,1.9C825.4,274.4,825.4,275.5,826,276.3L826,276.3z"/>
		</g>
	</g>
	<g>
		<g>
			<path class="st6" d="M833.4,275.6c0.4,0,0.5-0.7,0-0.7C832.9,274.9,832.9,275.6,833.4,275.6L833.4,275.6z"/>
		</g>
	</g>
	<g>
		<g>
			<path class="st6" d="M835.4,271.5c0.5,0,0.5-0.7,0-0.7C834.9,270.8,834.9,271.5,835.4,271.5L835.4,271.5z"/>
		</g>
	</g>
	<g>
		<g>
			<path class="st6" d="M820.7,263.2c0.5,0,0.5-0.7,0-0.7C820.2,262.4,820.2,263.2,820.7,263.2L820.7,263.2z"/>
		</g>
	</g>
	<g>
		<g>
			<path class="st6" d="M827.9,263.1c2.5-0.2,5-0.4,7.5-0.5c1.7,0,2.7-2.7,0.9-3.5c-2.8-1.1-5.6-0.8-8.5-0.6
				C824.9,258.7,824.7,263.3,827.9,263.1L827.9,263.1z"/>
		</g>
	</g>
	<g>
		<g>
			<path class="st6" d="M841.4,265.1c0.5,0.2,1.1,0.3,1.6,0.5c0.8,0.2,1.6,0.3,2.4,0c0.3-0.1,0.5-0.3,0.8-0.4
				c-0.4,0.2-0.5,0.2-0.1,0.1c-0.6,0-1.2,0-1.8,0c0.5,0.1,0.9,0.5,1.2,0.8c0.5,0.4-0.3-0.3,0.6,0.6c0,0,0.5,0.6,0.3,0.3
				c0.7-1.2,1.4-2.5,2.1-3.7c-1,0.2-1.9,0.4-3,0.4c-1.2,0-2.2,1.4-1.8,2.5c0.3,1.1,1,2,2.2,2.2c1,0.1,1.9-0.6,1.9-1.7
				c0-0.6-0.3-0.9-0.4-1.4c-0.8,0.7-1.6,1.4-2.4,2.1c1,0.2,1.9,0.4,2.8,0.6c1.7,0.3,3.4-1.5,2.9-3.2c-0.3-1-0.8-1.7-1.6-2.3
				c-0.6-0.5-1.5-0.7-2.1-1.1c0.2,0.3,0.4,0.7,0.7,1c-0.1-0.3-0.1-0.3,0,0.2c0-1.1-0.7-2-1.6-2.4c-0.5-0.2-1-0.4-1.5-0.6
				c-1.6-0.6-3.5,0.1-4.4,1.7C839.4,262.4,839.7,264.6,841.4,265.1L841.4,265.1z"/>
		</g>
	</g>
	<g>
		<g>
			<path class="st6" d="M847.3,272.4c0.4,0,0.5-0.7,0-0.7C846.8,271.7,846.8,272.4,847.3,272.4L847.3,272.4z"/>
		</g>
	</g>
	<g>
		<g>
			<path class="st6" d="M843.8,273.8c0.4,0,0.5-0.7,0-0.7C843.3,273.2,843.3,273.8,843.8,273.8L843.8,273.8z"/>
		</g>
	</g>
</g>
</svg>
