<?xml version="1.0" encoding="utf-8"?>
<!-- Generator: Adobe Illustrator 26.3.1, SVG Export Plug-In . SVG Version: 6.00 Build 0)  -->
<svg version="1.1" id="Layer_1" xmlns="http://www.w3.org/2000/svg" xmlns:xlink="http://www.w3.org/1999/xlink" x="0px" y="0px"
	 viewBox="0 0 540.2 1022.9" style="enable-background:new 0 0 540.2 1022.9;" xml:space="preserve">
<style type="text/css">
	.st0{fill:#FFFFFF;stroke:#7C8A7D;stroke-miterlimit:10;}
	.st1{fill:#5FA363;}
	.st2{fill:#7D9C3E;}
	.st3{fill:#547317;}
	.st4{fill:#C4D39B;}
	.st5{fill:#D0D27B;}
	.st6{fill:#DDDEB1;}
</style>
<g id="Layer_1_00000183942468096113953130000005159354055179625381_">
	<path class="st0" d="M145.9,626.9"/>
	<path class="st0" d="M-2.7,583.3"/>
	<g>
		<g>
			<path class="st1" d="M208,865.2c0,3.1-0.1,6.2,0,9.4c0,0.6,1,0.5,1-0.1c0.1-3.1,0-6.2,0-9.4C209.1,864.4,208,864.6,208,865.2
				L208,865.2z"/>
		</g>
	</g>
</g>
<g id="Layer_2_00000040557430175237569340000016701383904087744899_">
	<g>
		<g>
			<path class="st2" d="M270.6,588.2c-0.9,2.2,2.6,4.5,3.7,2.2c11.6-24.2,21.3-49.1,35.1-72.3c5.4-9.1,9.4-18.6,13.3-28.4
				c3.6-9.1,7.2-18.8,13.5-26.3c-1.7-0.8-3.3-1.6-4.8-2.3c0.8,7.8-1.3,15.8-3.1,23.3c-2,7.8-4.4,15.4-7.1,23
				c-5.2,14-11.5,27.6-18.3,40.9c-13.6,26.8-29.4,52.6-42.1,79.8c1.2,0.6,2.5,1.2,3.8,1.8c5.7-15.8,17.4-30.9,17.6-48.3
				c0-1.7-2.4-3-3.7-1.8c-11.2,11-12.9,27.7-19.9,41.1c1.5,0.4,3,0.9,4.4,1.4c-0.1-12,0.6-24,4.2-35.5c0.6-1.9-2.9-3.8-3.7-1.7
				c-4.7,11.8-5.3,24.3-5.2,36.9c0.1,2.1,3.3,3.5,4.4,1.4c6.7-13,8.2-29.7,18.9-40.3c-1.2-0.6-2.5-1.2-3.7-1.8
				c-0.1,16.6-11.5,31.8-17.2,46.8c-0.8,2.3,2.6,4.7,3.7,2.3c13.2-28,28.9-54.8,42.5-82.7c6.8-13.7,13.1-27.7,18.2-42.2
				c2.5-7.2,4.9-14.3,6.7-21.7c1.8-7.2,2.7-14.7,5.1-21.6c0.9-2.6-2.8-4.7-4.7-3c-7.4,6.8-11.5,16-15.2,25.2
				c-3.9,9.6-7.6,19.2-12.6,28.4C291,536.9,282.2,563.3,270.6,588.2L270.6,588.2z"/>
		</g>
	</g>
	<g>
		<g>
			<path class="st2" d="M270.1,490.2c0.1-1.1-1.5-1.8-1.7-0.3c0.8,0.8,1.1,0.8,0.9,0.1c0-0.3-0.1-0.6-0.1-0.8c0-0.5-0.2-1.2-0.3-1.6
				c-0.2-1.5-0.5-3-0.8-4.5c-1-4.1-2.4-8.1-3.4-12.2c-2.1-8.5-4-17-6.5-25.4c-4.6-15.4-12.4-28.5-22.5-41
				c-15.2-18.7-41.9-46.3-68.8-35.1c-6.6,2.6-12.2,8-14.7,14.8c-2.6,7.3-1.3,15,0.2,22.4c1.9,8.7,3.6,17.3,4.4,26.2
				c0.7,8.9,1,17.8,1.7,26.8c1.4,17.5,5.2,34.8,8.1,52.2c2.9,17.4,5.4,34.9,5.9,52.5c0.5,17.6-0.4,35.3-1.5,52.9
				c-0.6,9-1.9,18-4.1,26.7c-2.4,9.2-6.3,17.5-9.9,26.2c-1,2.4,2.3,4.8,4,2.4c10.5-15,15.1-35.1,17.5-53.1
				c2.5-18.5,3.2-37.8,2.5-56.4c-0.7-17-3-33.9-5.8-50.7c-2.8-16.8-6.6-33.4-8.1-50.3c-1.5-16.8-1.6-33.8-5.3-50.4
				c-1.7-7.5-4.8-16.3-1.8-23.8c2.8-7.2,10.6-11.5,18-12.3c14-1.4,26.6,7.5,36.7,16.1c10.6,9.1,20.3,19.7,28,31.4
				c8.4,12.8,12.3,27.6,16.5,42.2c1.9,6.7,4.4,13.3,6.1,20c0.5,1.9,0.8,7.2,3.4,7.6c0.4,0.1,0.7-0.2,0.9-0.5
				C270,491.6,270.1,490.9,270.1,490.2L270.1,490.2z"/>
		</g>
	</g>
	<g>
		<g>
			<path class="st2" d="M153.6,661.3c-1.3,2.5,2.7,5.2,4.5,2.5c19.9-33.3,27.5-71.3,27-109.7c-0.2-19.5-2.4-38.9-5.5-58.2
				c-3-18.8-6.5-37.7-11.3-56.1c-1.1-4.5-7.8-3.4-6.9,1.4c2.9,15.4,5.4,30.9,8.3,46.4c2.9,15.5,5.3,31,6.3,46.7
				c0.9,15.2-0.8,29.8-2.8,44.9c-2,14.2-3.8,28.3-2.1,42.6c0.3,2.5,4.5,4.2,5,1c8.8-49,7.4-98.6,2.3-147.9
				c-2.4-22.5-8.9-44.6-9.8-67.3c-0.3-7.3-1.1-21.1,6.6-25.4c11.1-6.1,19.1,15.1,22.5,22.1c7.2,14.7,18.8,26.1,29.2,38.5
				c6,7.1,11.5,14.8,15.3,23.3c4.1,9.1,7.4,18.8,10.6,28.3c13.1,39.3,20.8,81.4,18.2,123c-0.2,3.6,6.4,5.4,6.9,1.3
				c6.1-48.8-4.9-98-22.7-143.4c-3.8-9.4-7.8-18.5-13.6-26.9c-5.4-7.7-11.7-14.6-18.1-21.6c-5.8-6.6-12.1-13.2-16.6-20.8
				c-3.6-6.2-6.7-12.9-10.8-18.8c-5.7-8.2-16.3-17.3-26.1-9.2c-7.4,6.2-7.6,18.1-7.3,26.8c0.4,12.8,2.8,25.6,5.3,38
				c2.4,12.2,4.5,24.2,5.8,36.6c5.1,47.1,7.4,95.4-2.9,141.9c1.7,0.3,3.3,0.7,5,1c-1.4-14.9,1.5-29.8,3.7-44.4
				c2.2-14.7,3.4-29.1,2.5-44c-1.9-31.4-11.1-61.8-13.9-93c-2.4-0.1-4.8-0.3-7.3-0.5c2.9,18.4,6.9,36.6,9.8,55.1
				c2.8,18.3,5.1,36.8,5.8,55.5C178.2,589.2,172.3,627.6,153.6,661.3L153.6,661.3z"/>
		</g>
	</g>
	<g>
		<g>
			<path class="st2" d="M150.9,541.8c0.8-2.1-2.4-4.4-3.5-2.1c-1.3,2.7,1.5,6.7,2.5,9.1c2.7,6.1,6.2,11.9,9.5,17.6
				c6.9,11.9,12.6,23.7,17.2,36.9c6.6,18.9,11.5,38.4,15.1,58.1c3.9,20.5,5.5,41,6.2,61.9c0.6,20.4,0.3,41.3,3.5,61.5
				c0.5,2.7,5.1,4.8,5.8,1.2c3.2-17.4,4.2-35.5,2.7-53.2c-2.8-33-13.1-65.1-26.5-95.3c-13.2-29.7-29.6-58.3-48.4-84.8
				c-1.7,1.1-3.2,2.3-4.9,3.5c11,12.5,15,29.6,25.5,42.6c2.3,2.9,5.8-0.3,4.4-3.2c-7-15.6-12.1-31.8-15.3-48.5
				c-1.5,0.5-3.1,1.1-4.6,1.6c10.7,21,16.2,45.4,32.1,63.4c2.6,3,6.2-0.8,3.8-3.7c-14.4-18-21.3-41.5-31.5-61.9
				c-1.4-2.8-5.2-1.3-4.6,1.6c3.1,17.1,8.1,33.5,15,49.4c1.6-0.8,3.2-1.7,4.8-2.5c-10.4-13.2-14.2-30.2-25.1-43.1
				c-2.5-2.9-7,0.4-4.9,3.5c9.8,14.1,19.2,28.6,27.8,43.6c16.4,28.6,30.3,59,39.3,90.9c8.5,30.4,13,63.3,4.9,94.3
				c2,0.4,3.8,0.8,5.8,1.2c-2-22.7-2.5-45.2-3.4-67.9c-1.5-39-8.1-78.4-21.7-115c-4.5-12.4-9.9-23.9-16.7-35.1
				c-3.1-5.2-6.1-10.4-9.3-15.7c-1.3-2.1-2.6-4.2-3.8-6.5c-0.4-0.8-0.6-1.6-1.1-2.4C151,541.9,151.2,540.9,150.9,541.8L150.9,541.8z
				"/>
		</g>
	</g>
	<g>
		<g>
			<path class="st2" d="M113.3,785.9c-1.6-3.8-8.2-3-6.4,1.3c6.9,16.5,9.7,33.5,10,51.3c0.1,10.3-0.4,20.1-2.7,30.2
				c-2.1,9.6-4.8,19.3-3.8,29.2c0.3,3.5,6.8,6,7.4,1.4c2.5-23.7-4-45.4-12.2-67.4c-4.1-11.3-5.9-22.5-4.1-34.4
				c1.8-11.7,6.1-22.9,10.6-33.9c1.5-3.7-3.6-7.3-6.1-3.7c-3.7,5.4-3.2,13.7-2.3,19.8c1.2,7.9,2.6,15.5,3,23.6
				c1,18.1,1.1,36.8,7.5,53.9c0.8,2.1,4.8,2.5,4.3-0.2c-2.9-16.8-4.3-33.7-5.5-50.6c-0.6-7.2-1.2-14.1-2.6-21.1
				c-1.5-7.6-3.2-14.9,1.7-21.5c-2.1-1.2-4.1-2.5-6.1-3.7c-9.1,20.7-16.2,42.5-9.6,65.1c3.4,11.7,8.8,22.7,11.9,34.6
				c3.3,12,5,25,2.1,37.3c2.5,0.4,4.9,0.9,7.4,1.4c0.1-11.2,2.8-21.8,4.7-32.8c1.7-9.3,1.7-18.7,1.4-28.2
				C123.6,819.5,120.4,802.4,113.3,785.9L113.3,785.9z"/>
		</g>
	</g>
	<g>
		<g>
			<path class="st2" d="M146.8,959.9c-0.4,1.9,2.7,3.1,3.2,1.2c2.3-10.2,8-19.4,13.8-27.8c6-8.7,12.6-16.9,19.9-24.5
				c16.1-17,35.2-31.2,50.7-48.9c15.2-17.3,27.2-37.5,38.8-57.2c10.4-17.7,20.6-35.5,30.9-53.2c8.1-13.9,19.5-32.2,15-48.9
				c-1.4-5.3-8.5-5.7-10.4-0.7c-7.8,21.2-23.2,37.9-35,56.8c-22.6,35.9-45.6,71.8-71.7,105.4c-6.2,7.9-12.9,15.5-19.3,23.4
				c-6,7.4-13,14.6-17.7,22.9c-9.8,16.9-9.8,37.4-19,54.5c-0.3,0.5,0.5,1,0.8,0.5c11.1-20,10.3-44.2,25.5-62.3
				c13.1-15.5,28.2-29,40.7-45c13-16.6,25.5-33.6,37.5-50.8c11.8-17.1,22.8-34.9,34.9-51.8c11.5-15.8,24.7-31.2,33.3-48.9
				c-3.4-1.1-6.8-2.2-10.2-3.3c0.9,8.8-3,17.9-6.7,25.7c-4.2,8.9-9.1,17.5-14,26.1c-22.3,39.1-39.2,81.9-71.3,114.7
				c-14.9,15.2-31.9,28.7-44.8,45.9C161.7,927.1,150.4,943,146.8,959.9L146.8,959.9z"/>
		</g>
	</g>
	<g>
		<g>
			<path class="st2" d="M192.7,948.3c-3.1,2,0.3,7.2,3.2,5.2c19.4-13,37.6-28,54.2-44.4c8.3-8.1,15.9-17.1,22.9-26.4
				c7-9.3,14.6-19.1,19.5-29.7c1.3-2.8-2.9-6.9-5.2-4.1c-7.5,8.9-13.7,19.2-20.8,28.4c-6.8,8.8-13.9,17.3-21.3,25.7
				C229.7,920.5,212.2,935.3,192.7,948.3L192.7,948.3z"/>
		</g>
	</g>
	<g>
		<g>
			<path class="st2" d="M285.3,853.7c0.6-0.7-0.9-1.7-1.4-1c-14.7,20.2-31.1,38.7-49,56.1c-18.2,17.7-37.4,34.9-51,56.7
				c-0.7,1.1,1.2,2.3,1.9,1.2c15.6-21.5,34.9-39.5,53.6-58.3C256.2,891.5,271.5,873.3,285.3,853.7L285.3,853.7z"/>
		</g>
	</g>
	<g>
		<g>
			<path class="st2" d="M191.8,954.4c-3.6,2.6,1.8,8.1,5.3,5.6c18.3-13.4,40.5-19.3,62-25.3c9.3-2.6,18.6-2.8,28.2-3.6
				c8.4-0.6,17-1.7,23.9-6.9c1.8-1.3-0.4-4.5-2.3-3.8c-9.3,3.1-19.2,2.8-28.8,3.2c-9.8,0.5-18.6,1.9-28,4.7
				C231.1,934.6,209.8,941.3,191.8,954.4L191.8,954.4z"/>
		</g>
	</g>
	<g>
		<g>
			<path class="st2" d="M292,922.7c2.8-0.7,1.2-5-1.2-4.4c-18.8,4.3-38.4,6.2-56.7,12.5c-18.6,6.4-34,19-51.7,27.2
				c-1.9,0.9,0,3.7,1.7,3c17.8-6.5,33.2-18.2,51-24.9C253.3,929.2,273.1,927.3,292,922.7L292,922.7z"/>
		</g>
	</g>
	<g>
		<g>
			<path class="st2" d="M184.9,963.1c-2.1,2.2,1.5,6,3.8,3.6c22.3-23.5,49.3-52.9,46.2-87.8c-0.3-3.5-6.1-5.6-7.1-1.3
				c-6.5,29.2-19.3,58-39.8,80.1c-1.7,1.8,1.1,4.6,3,3c11.9-10.2,21-23.1,27.9-37.1c6.8-14,10.8-28.9,15.9-43.7
				c-2.4-0.4-4.7-0.9-7.1-1.3C227.1,912.5,206.9,939.1,184.9,963.1L184.9,963.1z"/>
		</g>
	</g>
	<g>
		<g>
			<path class="st2" d="M294,362.4c-1.3,2.9,3.4,6.1,4.8,3.1c9.2-19.9,16.4-40.5,24.4-60.9c7-17.8,14.4-35.5,23.7-52.2
				c9.8-17.6,21.5-34,31.2-51.6c18.6-33.8,27.2-72,43.7-106.7c0.8-1.8-1.9-3.7-2.9-1.8c-10.5,19.3-17.8,40-26.4,60.1
				c-7.5,17.6-15.7,34.7-26.8,50.4c-11.5,16.4-22.5,33.4-31.2,51.5C318,289.1,309.3,327.1,294,362.4L294,362.4z"/>
		</g>
	</g>
	<g>
		<g>
			<path class="st2" d="M501.7,340.2c0.6,0.1,0.6-0.6,0.1-0.7C501.3,339.4,501.2,340.1,501.7,340.2L501.7,340.2z"/>
		</g>
	</g>
	<g>
		<g>
			<path class="st2" d="M497.8,347.7c1.7-2.3-2.4-5-4.2-2.7c-26.4,36.7-87.2,12.8-112.6,51.2c1.1,0.6,2.1,1.3,3.2,2
				c6.5-13.4,20.3-21.8,33.5-27.7c13.4-6,27.8-9.7,41.8-13.5c1-0.3,0.5-1.8-0.5-1.6c-14.6,3.7-29.4,7.1-43.2,13.4
				c-14,6.3-24.4,16-34.4,27.3c-1.5,1.6,1.2,4.3,2.6,2.7c15.3-17.5,37.5-20.7,59.3-24.5C463.7,370.7,485.1,365.7,497.8,347.7
				L497.8,347.7z"/>
		</g>
	</g>
	<g>
		<g>
			<path class="st3" d="M157.9,709.2c1.8-2-1.5-5.4-3.5-3.3c-15.2,15.9-22.8,38.2-27.1,59.3c-2.1,10.4-3.3,20.7-2.6,31.3
				c0.8,11.8,2.7,24.5-1.1,35.9c0.8,0,1.8-0.2,2.6-0.2c-8.2-11.6-0.1-27.7-4.7-40.7c-0.5-1.5-2.7-2.4-3.6-0.7
				c-1.1,1.8-2.4,3.6-3.3,5.6c1.3,0.6,2.7,1.3,4,1.8c3.3-15.9,10.6-30.4,18.2-44.6c7.3-13.3,15.6-26.9,18.4-42.1
				c0.4-2-2.8-3.9-3.7-1.8c-6.6,14.6-13.8,28.6-21.1,42.9c-7.3,14.1-13.7,28.4-15.9,44.2c-0.3,2,3.1,4.3,4,1.8c0.8-2.1,2-3.9,3-5.8
				c-1.2-0.2-2.4-0.5-3.6-0.7c5.4,13-0.2,28.1,6,41.1c0.4,1,2,1.2,2.5,0.2c4.9-9.4,4.4-20.1,4-30.4c-0.4-11.1-0.3-21.7,1.7-32.7
				C136.1,749,142.8,725.4,157.9,709.2L157.9,709.2z"/>
		</g>
	</g>
	<g>
		<g>
			<path class="st3" d="M36.1,733.2c-1.1-3.2-6.4-2.5-5.1,1c6.4,18.9,10.8,38.5,18.5,57c3.1,7.3,6.3,14.7,11.3,20.9
				c3.7,4.6,10.8,10.9,10.3,17.4c-0.1,0.9,1,2,1.8,1.2c3.9-4.1-0.9-10.7-3.4-14.4c-2.1-3.1-4.6-5.8-6.8-8.9
				c-2.5-3.7-4.3-7.8-6.1-11.8C47.9,775.5,43.1,753.9,36.1,733.2L36.1,733.2z"/>
		</g>
	</g>
	<g>
		<g>
			<path class="st3" d="M66.1,831c1.8,2.4,5.7,0.6,3.9-2c-14.6-21.2-19.7-46.2-26.5-70.7c-2.3-8.3-3.3-16.7-5.4-25
				c-1.5-5.7-3.9-13.3-10.6-14.4c-0.8-0.2-1.7,0.7-1.5,1.5c1.9,11.6,5.5,22.2,9.3,33.2c0.6,1.9,3.3,1.5,2.9-0.5
				c-2.3-11-7.1-21.3-8.8-32.4c-0.7,0.5-1.3,1-2,1.4c6.4,2,7.1,15.5,8,20.9c1.2,8.4,3.5,16.5,5.7,24.8
				C46.7,789.9,52.9,812.1,66.1,831L66.1,831z"/>
		</g>
	</g>
	<g>
		<g>
			<path class="st3" d="M314.3,701.5c1,1.1,2.6-0.1,2.1-1.2c-0.8-1.5-1.4-1.4-0.7-3.9c0.4-1.5-1.5-2.6-2.6-1.7
				c-16.9,14.8-24.2,36.2-35.1,55.2c1.3,0.9,2.5,1.6,3.8,2.4c4.9-12.7,12.4-24.7,20.9-35.2c4.3-5.2,9.1-10.3,14.8-14.1
				c1.1-0.8,2.2-1.5,3.4-2.1c0.9-0.5,4.1-0.9,3.2-2c1.3,1.6-3.7,6.9-4.5,7.8c1.7,1,3.4,2,5,3.1c1.1-4.6-0.1-9.4-4.2-12.1
				c-0.9-0.6-2.2,0.2-1.8,1.3c0.9,2.7,1.7,5.5,0.5,8.3c-1,2.3,1.7,6,4.1,4.2c4.3-3.1,10.6-12,4.4-16.6c-5.8-4.2-14.3,3.8-18.3,7.5
				c-13.7,12.7-24.4,30.2-31.4,47.5c-1,2.4,2.4,4.8,3.8,2.4c10.9-18.6,17.5-40.2,33.5-55.3c-0.9-0.6-1.7-1.1-2.6-1.7
				C311.8,698.1,312.5,699.4,314.3,701.5L314.3,701.5z"/>
		</g>
	</g>
	<g>
		<g>
			<path class="st3" d="M327.3,695.5c-2-2.8-6.6-0.7-4.5,2.1c8.7,12,7.4,29,7,43c-0.4,15.5,0.5,30.9,0,46.4
				c-0.4,9.3-1.2,18.7-3.3,27.8c-1.9,8.6-4.9,16.8-7.6,25.1c-2.6,8.2-5,16.6-5.7,25.3c-0.5,7.5,0.3,15.2,1.4,22.5
				c2.5,16.2,7.8,31.9,10.8,48.1c0.3,1.2,2.2,1.2,2.1-0.1c-2.4-19.2-7.8-37.9-9.2-57.2c-1.3-18.3,4.6-34.6,9.8-51.9
				c5-16.6,7.2-33.7,7.2-51.1c0-14.9,0-29.8,0.1-44.7C335.6,719,334.6,705.5,327.3,695.5L327.3,695.5z"/>
		</g>
	</g>
	<g>
		<g>
			<path class="st3" d="M326,946.8c0.2-0.9-1.2-1.5-1.4-0.5c-2.6,11.3-1.9,23-2.9,34.5c-0.1,0.8,1.3,1.4,1.3,0.5
				C324.3,969.9,323.5,958.2,326,946.8L326,946.8z"/>
		</g>
	</g>
	<g>
		<g>
			<path class="st3" d="M331.9,694.5c-2-1.2-3.4,1.7-1.3,2.8c11.7,6.9,10.3,22.3,9.5,34c-1.2,18.1-2.7,36.2-4.2,54.3
				c-1.4,17.2-4.6,33.8-7.5,50.6c-2.7,15.5-4.6,31.2-1.6,46.7c0.1,0.6,1.2,0.7,1.1-0.1c-2.7-18.2,1.4-36.3,5.6-53.9
				c2.1-8.7,4.3-17.3,5.7-26.1c1.4-9.1,2-18.4,2.8-27.6c1.4-16.9,2.1-33.9,2.2-50.8C344.3,713.2,342.7,700.7,331.9,694.5
				L331.9,694.5z"/>
		</g>
	</g>
	<g>
		<g>
			<path class="st3" d="M324.1,907.2c0.2-0.8-1.3-1.4-1.4-0.4c-3,12.7-5.1,25.4-6.7,38.3c-1.4,11.6-2.8,24.5,0,36.1
				c0.4,1.6,2.8,1.6,2.9-0.1c0.3-12.1-0.9-24.3-0.3-36.4C319.2,932.2,321.4,919.6,324.1,907.2L324.1,907.2z"/>
		</g>
	</g>
	<g>
		<g>
			<path class="st3" d="M245.8,752.4c0-2.8-4.6-3.4-4.6-0.2c0,12.4-3.8,27.8,1.9,39.4c0.8,1.6,3.1,1,3.2-0.7
				c0.7-10.6,0.4-21.2,0.9-32c0.1-2.2-3.7-3.2-4.1-0.8c-1.5,10.5,1.1,21.1,0.6,31.8c-0.1,2.4,3.9,3.4,4.4,0.9
				c2-10.4-2.1-20.8-0.9-31.3c-1.4-0.3-2.7-0.6-4.1-0.8c-0.2,10.5,0.8,21.1-0.2,31.6c1.2,0,2.3,0.2,3.4,0.2
				C243.4,777.8,245.6,765.2,245.8,752.4L245.8,752.4z"/>
		</g>
	</g>
	<g>
		<g>
			<path class="st3" d="M237.6,859.8c-1.1,2.1,2.3,4.3,3.7,2.5c1.2-2,1.9-3.8,2.4-6.1c0.5-2.4-2.7-4.1-4.1-2
				c-4.8,7.4-4.9,16.6-8.9,24.2c1.5,0.5,3.2,1,4.7,1.6c0.2-4.4,1.4-8.5,2.6-12.6c0.7-2.4-2.6-4.3-4.3-2.7c-2.7,2.4-5.2,4.8-7.2,7.8
				c1.8,0.4,3.6,0.7,5.4,1.1c-0.2-0.9,0-2.1,0.1-3c0.1-1.9-2.3-3.9-4.2-3.4c-0.7,0.3-1.3,0.4-2,0.4c0.9,2.1,1.9,4.2,2.8,6.3
				c5.7-4.9,11-10.3,14.7-16.8c1.6-2.7-2.5-5.9-4.7-3.8c-5.3,4.8-10,10.3-15.3,15.1c-2.2,2-0.1,6.4,2.8,6.3c1.8-0.2,2.9-0.5,4.4-1.5
				c-1.6-0.7-3.3-1.6-4.8-2.3c0.2,1,0.4,2,0.5,3c0.3,2,3.2,4.5,5,2.4c2.1-2.5,4.1-5.2,6.2-7.8c-1.5-0.7-2.9-1.4-4.4-2.1
				c-0.2,4.3-1.8,8.4-2.5,12.7c-0.4,2.6,3,4.6,4.7,2.2c4.9-7.4,4.3-16.9,8.4-24.5c-1.3-0.7-2.7-1.3-4.1-2
				C239,856.5,238.5,858.1,237.6,859.8L237.6,859.8z"/>
		</g>
	</g>
	<g>
		<g>
			<path class="st3" d="M170.9,452.9c0.5,0.1,0.6-0.6,0.1-0.7C170.5,452.1,170.5,452.8,170.9,452.9L170.9,452.9z"/>
		</g>
	</g>
	<g>
		<g>
			<path class="st3" d="M176.4,458.3c-0.1-3.2-5.2-3.8-5.2-0.4c0.5,24.7,10.1,47.8,12.8,72.1c2.8,24.5-3.7,50,1.5,74.3
				c0.3,0.8,1.5,0.7,1.5-0.1c-0.5-12.7-0.2-25.2,0.8-37.9c1-12.3,2.1-24.6,1.2-36.8C186.8,505.4,177.1,482.6,176.4,458.3
				L176.4,458.3z"/>
		</g>
	</g>
	<g>
		<g>
			<path class="st3" d="M184.9,595.1c0.2,2.7,4.5,3.3,4.3,0.4c-1.1-16.7,1.1-33.4,0.6-50.1c-0.4-15.5-3.1-33-13-45.5
				c-1.8-2.2-5.5-0.3-4.6,2.4c5.4,17.2,11.1,34,11.6,52.3c0.6,19.2-3.1,37.6-5.8,56.6c-0.2,1.9,2.8,3.2,3.3,1.1
				c2.4-11.7,4.3-22.5,4-34.5c-0.3-12-1-24-1.7-36c-1.4-24.4-5-48.7-10.5-72.4c-0.4-1.7-3.6-1.8-3.3,0.2c3.5,23.3,6.7,46.6,8.9,70
				c1.1,11.7,2.4,23.4,3.2,35.1c0.8,11.6,1.5,25.2-3.6,36c1,0.5,2.1,0.9,3.1,1.4c4.8-18.2,6.8-37.7,6.3-56.5
				c-0.2-8.9-1.4-17.5-3.5-26.1c-2.2-9.3-5.1-18.2-6.2-27.7c-1.7,0.4-3.5,0.7-5.2,1.1c4.3,7.2,7.9,14,9.8,22.2
				c1.8,7.6,2.3,15.6,2.5,23.5C185.3,564.1,183.8,579.6,184.9,595.1L184.9,595.1z"/>
		</g>
	</g>
	<g>
		<g>
			<path class="st3" d="M42.6,394.4c-0.7-1.9-3.9-1.6-3.3,0.6c3.9,14.5,11,28.2,19.4,40.5c15.3,22.3,35.1,40.8,53.7,60.2
				c18.8,19.5,34.9,40.4,46.1,65.2c0.4,0.8,1.5,0.4,1.3-0.4c-3.9-14-11.4-27.1-20-38.9c-15.6-21.3-34.6-39.6-52.4-59
				C68.9,442.1,52.4,420.4,42.6,394.4L42.6,394.4z"/>
		</g>
	</g>
	<g>
		<g>
			<path class="st3" d="M155.2,552.8c2.5,1,3-2.8,1-4.1c-4.7-2.2-10.2-3.1-13.9-7c-3.2-3.5-5.1-7.5-8.9-10.4
				c-1.5-1.1-3.4,0.1-3.4,1.9c-0.3,8.2,6.3,13.6,7.9,21.3c1.3-0.8,2.6-1.4,4-2.1c-3.1-3.8-5.8-7.6-9.7-10.5c-1.1-0.8-3-0.2-3.2,1.2
				c-0.8,5.9,1.1,10.7,2.9,16.1c1.6-0.5,3.3-1.1,4.9-1.7c-15.5-28.9-29.5-58.8-47-86.4c-9.3-14.5-17.9-29.6-27-44.3
				c-3.6-5.6-7.4-10.8-11.5-16c-4.7-6-7.9-11.9-10.3-19.1c-0.6-1.9-3.4-1.9-3.5,0.2c-0.9,13,11.3,24.4,17.3,34.8
				c9,15.2,17.3,30.7,26.6,45.6c17.9,28.6,31.6,60,50.7,87.7c2,2.9,6.4,1,4.6-2.3c-2.3-3.9-3.9-8.3-3.5-13c-1.1,0.4-2.1,0.8-3.2,1.2
				c3.4,2.5,5.5,6.2,7.9,9.6c1.7,2.3,5,1.5,4.5-1.5c-1.4-7.2-8-12.5-8-20.1c-1.1,0.6-2.3,1.3-3.4,1.9c4.2,3.2,6,8.8,10.5,11.8
				C145.5,550.3,150.7,550.9,155.2,552.8L155.2,552.8z"/>
		</g>
	</g>
	<g>
		<g>
			<path class="st3" d="M57.8,428.7c-1.1-1.8-3.9-0.6-2.6,1.6c22.2,41.4,54.7,75.9,78.4,116.3c1.4,2.4,5.3,0.7,3.8-2
				c-10.4-19-22.6-36.7-33.9-55.3c-1.6,1.1-3.1,2.2-4.7,3.3c12.6,12.1,20.4,28.3,32.6,40.9c3,3.1,8.1,0.6,7-3.7
				c-4.6-17.6-18.3-34.3-32-45.8c-4.5-3.8-9.5,1.2-5.9,5.7c10.2,12.6,20.5,25.2,30.2,38.2c9.5,12.9,18.1,26.3,26.6,40
				c2,3.2,8.1,1.9,6.4-2.3c-12.9-30.9-36.5-56-57.4-81.7c-1.9,2-3.9,3.8-5.9,5.7c6.7,5.7,12.4,12.4,17.5,19.5
				c4.9,6.8,9.7,14.1,12.2,22.2c2.3-1.3,4.7-2.4,7-3.7c-13-11.6-21.1-27.7-34.3-39.3c-2.5-2.2-6.8,0.2-4.7,3.3
				c11.8,18.2,24.2,35.9,35.2,54.6c1.3-0.7,2.5-1.3,3.8-2C112.6,504.6,80.4,469.8,57.8,428.7L57.8,428.7z"/>
		</g>
	</g>
	<g>
		<g>
			<path class="st3" d="M380.2,397.6c0.5-0.9-1.1-2.1-1.6-1c-3.2,6-8.9,10.1-13,15.5c-0.4,0.5,0.5,1.3,1,0.8
				C371.2,407.8,376.9,403.8,380.2,397.6L380.2,397.6z"/>
		</g>
	</g>
	<g>
		<g>
			<path class="st3" d="M379.1,401.7c1.8-1.8-1.3-5-3-3c-6.8,7.4-13.7,15.3-18.8,24c-0.6,0.9,0.9,2.2,1.7,1.4
				C365.8,416.6,372.1,408.9,379.1,401.7L379.1,401.7z"/>
		</g>
	</g>
	<g>
		<g>
			<path class="st3" d="M349,436.2c0.3-1.5-2-2.3-2.5-0.6c-5.7,22.2-4.3,45.2-14.1,66.4c0.6,0.2,1.1,0.5,1.7,0.8
				c4.9-16.5,12.7-31.5,10.2-49.2c-0.2-1.4-2.1-2.1-2.6-0.5c-0.9,2.5-1.9,5-2.8,7.5c1,0.3,1.9,0.6,2.9,0.9c1.5-7.5,4.1-15,3.7-22.7
				c0-1.3-1.9-1.9-2.6-0.8c-4.4,6.2-7.8,13-11.7,19.6c-1.1,2,2.1,4.1,3.4,2.1c8.2-12.5,18.6-23.5,26.4-36.2c0.9-1.5-1.5-3.5-2.8-2.2
				c-10.8,10.4-19.3,23.7-27.1,36.3c1.2,0.7,2.3,1.4,3.4,2.1c3.7-6.7,6.8-13.6,10.7-20.2c-0.9-0.3-1.7-0.6-2.6-0.8
				c0.3,7.4-2,14.7-3.7,21.9c-0.3,1.7,2.3,2.7,2.9,0.9c0.8-2.5,1.7-5,2.5-7.6c-0.8-0.1-1.7-0.1-2.5-0.2c2.5,7.8,0.1,17.3-1.6,25
				c-1.7,8-3.9,15.8-7.6,23.3c-0.5,0.9,1,1.8,1.5,0.9C346.5,483,343.6,458,349,436.2L349,436.2z"/>
		</g>
	</g>
	<g>
		<g>
			<path class="st4" d="M254.4,631.4c-0.4,0.8,1,1.8,1.6,0.6c2.6-5.8,3.1-12.1,5.8-17.8c0.8-1.9-2.2-3.8-3.1-1.9
				c-6.8,14.7-6.4,31.4-9.4,47c-3.3,16.7-8.7,32.8-13,49.2c-0.3,1.5,2.3,2.9,2.9,1.3c6.4-17.2,13.1-34.2,19.6-51.3
				c3.3-8.5,6.4-17.1,9.7-25.6c3-7.6,4.9-16.2,9.6-23c1.2-1.7-1.7-3.9-3.1-2.5c-4.2,4.4-7.3,9.4-10.6,14.4c1.1,0.7,2.3,1.4,3.3,2.1
				c1.2-3.1,2.3-6.3,3.7-9.3c0.9-1.8-2-3.8-3-1.8c-4.8,9.1-9,18.6-13.1,28.1c1.2,0.7,2.5,1.2,3.7,1.8c2.5-14.2,2.6-28.5,4.9-42.8
				c2-12.3,6.2-25,2.5-37.4c-0.4-1.2-2.5-2.1-3.1-0.6c-4,9.3-4.1,19.2-4.1,29.1c0,10.4-1,20.5-2.1,30.9c-2.2,21-3.5,43.4-12.5,62.8
				c-0.4,0.7,0.9,1.6,1.3,0.8c9.3-18.2,11-39.5,13-59.6c1-9.6,2.9-19.2,3.1-28.9c0.2-10.9-1.2-23.2,4.2-33.1
				c-1.1-0.2-2.1-0.4-3.1-0.6c2.8,13.2-2.4,25.8-4.1,38.9s-1.8,26.3-3.9,39.3c-0.3,2,2.9,4,3.7,1.8c3.9-9.6,7.9-19.1,12.5-28.4
				c-1-0.6-2-1.2-3-1.8c-1.3,3.1-2.8,6.1-4.1,9.2c-0.9,2.1,2,4.1,3.3,2.1c3.1-4.7,6-9.5,9.9-13.6c-0.9-0.9-1.9-1.9-2.8-2.8
				c-5,6.4-6.2,13.7-8.6,21.3c-2.9,8.6-6.1,17.2-9.1,25.8c-6.5,18-13.3,35.9-20.9,53.5c0.9,0.6,1.8,1.1,2.7,1.7
				c6.2-15.2,10.7-31.3,14-47.4c3.4-16.2,3.1-32.8,8.8-48.6c-1.2-0.3-2.2-0.8-3.4-1.1C257,619.2,256.8,625.5,254.4,631.4
				L254.4,631.4z"/>
		</g>
	</g>
	<g>
		<g>
			<path class="st4" d="M254,652.2c0.5-2.3-3.3-3.7-3.6-1.2c-5.9,32.1-12.5,63.5-23.4,94.3c0.9,0.4,2,0.7,3.1,1
				c2.2-16.8,8-33.4,13.7-49.3c5.9-16.6,12.6-32.8,19.1-49.2c0.9-2.4-1.7-4.5-3.8-3c-7,5.3-10.5,14.2-13.5,22.1
				c-3.4,9-5.6,18.2-8.2,27.5c-7.6,26.7-21.6,51.2-31.3,77.2c2.3,0.7,4.6,1.4,6.9,2.2c0.3-9.2,4.2-18.3,7.7-26.7
				c3.2-7.8,6.5-15.7,10.1-23.4c1-2.3-2.4-4.6-3.6-2.3c-2.7,5.3-3.9,10.8-4.6,16.6c1.3,0.3,2.5,0.5,3.8,0.8
				c-0.2-2.4-1.2-4.7-1.4-7.1c-0.1-0.9-1.5-2-2.3-1.1c-13.1,16-8.8,39.4-15.1,58.1c-0.3,1.1,1.5,1.9,2,0.9
				c7-18.2,3.6-40.9,15.4-57.2c-0.8-0.3-1.6-0.5-2.5-0.8c0.4,2.2,0.7,4.3,0.3,6.6c-0.4,2.3,3.3,3.8,3.8,1.3c1-5.4,2.2-10.6,4.3-15.7
				c-1.3-0.8-2.4-1.5-3.6-2.3c-3.3,8.4-7.5,16.6-11,25c-3.6,8.2-6.1,16.9-10.1,25c-1.9,3.9,4.4,8.1,6.5,4
				c6.9-13.3,12.5-27.4,18.1-41.2c4.5-11.3,9.5-22.8,12.6-34.6c2.4-9.3,4.4-18.7,7.1-27.8c2.4-8.2,5.3-17.9,12-23.7
				c-1.4-0.8-2.6-1.7-4-2.4c-5.3,16.6-11.5,32.9-17.3,49.3c-5.7,16.5-10.2,33.1-14.3,50.1c-0.3,1.7,2.2,3.1,3,1.4
				C243.7,717.3,248.3,683.8,254,652.2L254,652.2z"/>
		</g>
	</g>
	<g>
		<g>
			<path class="st4" d="M207.6,795.9c1-3.1-4.3-5.1-5.3-1.9c-6.8,20.5-17.9,40.7-20,62.5c-0.2,2.4,3.2,4,4,1.3
				c2.9-9.1,5.4-18.6,8.8-27.6c0.7-1.9-1.5-4.1-3.2-2.6c-7.9,6.6-10.4,18.9-13.4,28.3c1.4,0.5,2.8,0.9,4.1,1.3
				c2.9-12.4,8.7-23.9,12.7-35.9c3.6-10.9,7.4-23.3,5.3-34.8c-0.5-2.2-3.9-2.1-3.9,0.2c-0.7,23.7-8.7,47-18.1,68.7
				c-1,2.3,2.5,4.7,3.7,2.3c4.2-8.7,4.9-20.1,12.4-27.1c-1.2-0.7-2.3-1.4-3.4-2.1c-2,9.1-4.8,19.1-8.9,27.6c1.3,0.6,2.5,1.2,3.8,1.8
				C191.6,836.6,200.7,816.7,207.6,795.9L207.6,795.9z"/>
		</g>
	</g>
	<g>
		<g>
			<path class="st4" d="M129.9,952.8c1-2.3-2.6-4.7-3.5-2.3c-3.6,7.6-2.9,16.2,0.9,23.7c0.9,1.7,3.3,1.9,4.3,0.3
				c6.3-9.6,2-25.7-2.4-35.4c-0.6-1.4-2.8-2.1-4.1-1.3c-13.3,7.5-3.3,31.9,3.7,40.6c1.5,1.8,5.2,1.4,5.7-1.2
				c1.8-12.1,0-25.1-5.2-36.2c-1.2-2.6-5.8-2-5.5,1.1c0.8,10.9,5.2,20.4,9.5,30.3c1,2.5,5.3,2.1,4.3-0.9c-1.7-4.4-2.9-9-3.9-13.5
				c-0.3-1.3-2.3-1.3-2.3,0.1c0.2,4.8,0.8,9.6,1.9,14.3c1.4-0.3,2.9-0.5,4.3-0.9c-3.2-9.3-8.2-18.9-7.8-29c-1.9,0.1-3.8,0.2-5.8,0.4
				c3.9,10.2,5.8,21.3,3.9,32.1c2.1-0.1,4.1-0.3,6.2-0.4c-3.5-4.6-5.8-10-7.4-15.4c-1.3-4.7-3.5-13.3,1.7-16.3
				c-1.4-0.4-2.8-0.9-4.1-1.3c3.8,7.9,7.8,22,2.9,30.1c1.4,0.1,2.9,0.2,4.3,0.3C128,966.1,127.2,959,129.9,952.8L129.9,952.8z"/>
		</g>
	</g>
	<g>
		<g>
			<path class="st4" d="M131.3,943.6c0.2,2.2,3.8,2.7,3.5,0.1c-1-12.1-1.7-24.3-3.5-36.3c-1.1-7.5-2.7-23.4-11.3-26.6
				c-0.9-0.4-1.7,0.6-1.5,1.4c2.7,9.8,4.6,20.1,6.7,30c2.3,10.5,4.3,21.6,1.5,32.1c0.5,0,1,0.1,1.5,0.1c-4.3-11.1-6.5-23.1-9.9-34.5
				c-0.3-1.1-2.3-1.3-2.2,0.2c0.5,9.7,3.2,19.2,4.8,28.8c0.2,1,1.7,1.3,1.6,0.1c-0.6-9.7-3.6-19.1-4-28.8c-0.7,0.1-1.5,0.1-2.2,0.2
				c4.6,11,7,22.9,10.7,34.3c0.3,0.7,1.3,0.9,1.5,0.1c2.8-9.4,1.3-19.7-0.5-29.3c-1.1-5.7-2.5-11.4-3.8-17.1
				c-1.3-5.3-3.1-11-3.1-16.4c-0.6,0.4-1.3,0.7-1.8,1.1c3.4,2.2,4.7,7.6,5.7,11.3c1.6,5.8,2.6,12,3.4,18
				C129.6,922.7,130.2,933.1,131.3,943.6L131.3,943.6z"/>
		</g>
	</g>
	<g>
		<g>
			<path class="st4" d="M158.3,980.8c-1.1,0.9,0.6,2.6,1.8,1.9c3.8-3.3,7.5-6.6,10.6-10.7c-0.7-0.6-1.5-1.2-2.2-1.8
				c-5.3,8.3-11.7,15.8-21,19.7c0.6,1.1,1.3,2.2,2,3.4c7.5-4.5,15.2-8.9,22.3-13.9c5.7-4,13.2-9.4,15.3-16.5
				c0.4-1.3-1.6-2.8-2.5-1.6c-5.2,6.4-10.3,11.7-17.2,16.4c-6.4,4.3-13.4,8-19.8,12.2c-2,1.2,0,4.5,2,3.4
				c8.9-5.4,16.3-12.5,21.3-21.7c0.7-1.5-1.5-3-2.4-1.5C165.9,974.3,161.9,977.4,158.3,980.8L158.3,980.8z"/>
		</g>
	</g>
	<g>
		<g>
			<path class="st4" d="M281.1,443.9c0.1,2.4,4.1,3,3.8,0c-0.4-8.7,0.8-17.5,1-26.2c0-2.2-3.4-3.1-4-0.8c-7.2,27-7.1,54.9-12.1,82.2
				c-0.3,2.1,3.1,3.5,3.5,1.1c3.4-17,0.7-34.6,5-51.4c-1.3-0.4-2.5-0.8-3.7-1.2c-4,21.8-0.6,44.2-4.4,66.1c1.1,0.2,2.3,0.5,3.3,0.7
				c-0.3-3.8-1.1-7.7-2.3-11.4c-0.4-1.2-2.6-1.9-2.8-0.2c-2.5,19.6-1.1,40.2,5.4,59c0.4,1.3,2.4,1.1,2.1-0.4
				c-2.2-9.3-5-18.7-5.4-28.3c-0.4-9.8-0.3-19.5,0.8-29.2c-0.9-0.1-1.9-0.1-2.8-0.2c1.1,3.5,1.7,7,1.7,10.7c0,1.8,2.8,2.6,3.3,0.7
				c5.6-21.5,0.9-44.2,4.7-66c0.3-2.2-3.2-3.6-3.7-1.2c-3.4,17.1-0.7,34.7-4.7,51.6c1.3,0.4,2.4,0.8,3.5,1.1
				c5.6-27,4.1-55.6,12.7-82c-1.3-0.5-2.7-0.9-4-1.3C281.4,426,280.7,435,281.1,443.9L281.1,443.9z"/>
		</g>
	</g>
	<g>
		<g>
			<path class="st4" d="M288.3,335c0,2.7,4.5,3.4,4.6,0.4c0.2-10.5,1-20.9-0.9-31.3c-0.5-2.2-3.5-2.2-4.2-0.2
				c-6.1,17.5-2.5,36.9-2.4,55c1.1,0.1,2.2,0.1,3.3,0.3c0-8.1,1.3-16.1,0.8-24.1c0-1.5-2.4-2.3-2.8-0.6c-1,4.3-1.6,8.3-0.7,12.6
				c0.3,1.4,2.3,1.4,2.7,0.1c4.7-13.4,5.4-28.1,5-42.1c-0.3-7.2-1.1-14.3-1.8-21.4c-0.4-4-0.8-8-0.4-11.9c0.3-3.7,0.7-3.3-1.1-6.1
				c-0.5-0.9-2.4-0.9-2.2,0.5c0.7,7.8,1.3,15.7,0.5,23.5c-0.1,1.2,1.8,2.1,2.1,0.6c1.7-7.9-0.3-16-0.2-24c-0.8,0-1.5,0.1-2.4,0.1
				c1,2.2,0.3,4,0.2,6.4c-0.2,3.3,0.6,6.2,1.2,9.4c1.4,6.9,1.7,14,1.8,21.1c0.2,14.3-0.8,29.3-5.7,42.9c0.9,0,1.8,0.1,2.7,0.1
				c-0.8-3.8,0-7.5,0.9-11.1c-0.9-0.2-1.9-0.4-2.8-0.6c0.4,8.1-1.1,16.1-1.2,24.1c0,2.1,3.3,2.5,3.3,0.3c0.3-17.4-3.3-36.7,3.1-53.4
				c-1.3-0.5-2.8-0.9-4.1-1.3C289.3,314.5,288.6,324.8,288.3,335L288.3,335z"/>
		</g>
	</g>
	<g>
		<g>
			<path class="st4" d="M231.2,88.4c0.7,0.7,1.6-0.2,1-1c-3.9-4.7-8.7-8.8-11.3-14.5c-0.5,0.2-1,0.5-1.5,0.7
				c11.3,19.2,26.5,35.6,39.7,53.5c11.1,14.9,26.2,31.9,27.8,51c0.1,0.8,1.4,1,1.4,0.1c-0.4-18.3-14.9-35-25.1-49.2
				c-13.7-19.1-29.3-36.5-42.4-56.1c-0.6-0.9-2-0.3-1.5,0.7C222.3,79.4,227.1,83.5,231.2,88.4L231.2,88.4z"/>
		</g>
	</g>
	<g>
		<g>
			<path class="st4" d="M279.3,149.8c-0.7-2.3-4.3-1.8-3.5,0.7c5.6,17.9,10.9,35.8,14.5,54.2c1.7,8.7,2.6,17.4,3.6,26.1
				c0.6,6.5,1.4,12.9,4.3,18.8c0.4,0.9,1.8,0.7,1.8-0.3c0.2-5.7-1.3-10.9-2.3-16.4c-0.1-0.8-1.5-1-1.7-0.1
				c-3.1,12-4.8,24.4-5.7,36.8c-1,12.4-1.2,24.9,1.8,37c0.3,1.2,2.4,1.2,2.2-0.2c-3.9-24.3,0.5-48.9,3.5-73.1
				c-0.6-0.1-1.1-0.1-1.7-0.1c1.5,5.1,2.5,10.3,2,15.6c0.6,0,1.3,0.1,1.9,0.1c-2.5-7.2-3.1-14.9-3.7-22.6c-0.7-7.8-1.6-15.5-3-23.3
				C290.1,185,284.8,167.4,279.3,149.8L279.3,149.8z"/>
		</g>
	</g>
	<g>
		<g>
			<path class="st5" d="M187.5,858.7c-0.7,1.2,1.2,2.3,2,1.2c0.8-1.2,1.7-2.3,2.6-3.3c1-1.2-0.7-2.9-2-1.9c-3.3,2.6-6.1,5.6-8.5,9
				c-0.9,1.3,1.4,3.1,2.5,1.9c2.2-2.6,4.2-5.5,6.5-8c0.8-0.9-0.4-2.3-1.5-1.8c-1.8,0.8-10.7,5.4-11.7,4.2c-0.7-0.9,0-4.2,0.2-5.3
				c0.3-3.1,0.7-6.1,1-9.2c0.2-2.1-3.1-4.5-4.2-2c-2.7,5.9-2.7,12.2-3.5,18.5c-0.3,2,2.8,4.1,3.9,1.8c4.3-8.9,6.1-18.6,9-28
				c3.5-11.1,8.2-22.1,10-33.7c0.3-2-2.5-3.2-3.3-1.1c-3.6,10.4-7.3,20.9-10.7,31.4c-3.1,9.5-4.4,19.9-8.7,28.9
				c1.3,0.6,2.6,1.2,3.9,1.8c0.7-6,0.6-11.9,3.3-17.4c-1.4-0.7-2.8-1.3-4.2-2c-0.6,4.7-3.7,14.9,0.5,18.8c4.3,4,12.2-2.8,15.5-5
				c-0.5-0.6-1-1.2-1.5-1.8c-2.1,2.6-4.5,5.2-7,7.4c0.8,0.8,1.4,1.5,2.2,2.3c2.7-3,5.1-6.1,8-9c-0.7-0.6-1.4-1.1-2.1-1.7
				C189.1,856.1,188.3,857.4,187.5,858.7L187.5,858.7z"/>
		</g>
	</g>
	<g>
		<g>
			<path class="st5" d="M174.8,873.7c1.4,2.8,5.4,0.8,3.9-1.9c-1.3-2.7-2.3-4.4-5.2-5.4c-0.7-0.2-1.7-0.1-2.2,0.5
				c-5.1,5.7-8.2,13.6-8.6,21.3c-0.1,2.1,3.1,3.3,4.2,1.4c2.7-4.7,4.2-9.8,5.9-14.8c0.6-1.9-2.4-3.3-3.4-1.6
				c-3,5.2-5.2,10.7-6.2,16.6c-0.4,1.9,2.6,3.8,3.6,1.7c1.2-2.5,2.8-4.7,4.1-7.1c-1.2-0.7-2.3-1.4-3.4-2.1c-1.2,2.5-2.4,5-3.6,7.4
				c-0.9,1.9,1.6,4.1,3.2,2.6c4.2-3.8,7.4-8.4,10.9-12.9c-0.8,0.3-1.6,0.4-2.4,0.5c0.4,0.2,0.6,0.3,1,0.5c0.8,0.6,2.2,0.6,2.9-0.2
				c0.8-1,1.5-2,2.3-3c-1.6-0.7-3.3-1.6-4.8-2.3c0.1-0.1,0.1-0.1,0.2-0.2c1.5,0.1,3.1,0.2,4.6,0.3c-0.4-0.8-0.9-1.5-1.6-2.1
				c-1.7-1.4-4.1-0.5-3.5,1.8c0.1,0.5,0.2,1.2,0.3,1.8c0.4,1.7,3.2,3.2,4.5,1.5c0.7-0.8,0.8-1.3,1-2.3c0.6-2.9-3.5-5-5.2-2.4
				c-0.7,0.9-0.7,2.2-1.4,3c1.1,0,2.3,0.2,3.4,0.2c-1-0.8-1.6-1.2-2.7-1.7c-1-0.4-2.2,0.1-2.7,1c-2.8,4.7-5.8,9.2-9.6,13.2
				c1.2,0.8,2.2,1.8,3.2,2.6c1.1-2.5,2.3-5.1,3.5-7.5c0.9-2.1-2.3-4.2-3.4-2.1c-1.2,2.4-2.8,4.6-4.2,7c1.2,0.6,2.4,1.1,3.6,1.7
				c1.3-5.4,3-10.8,5.7-15.8c-1.2-0.6-2.3-1.1-3.4-1.6c-1.3,4.6-3.1,9.1-6,13c1.4,0.8,2.6,1.7,3.9,2.4c1.7-6.7,3-13.3,7.8-18.5
				c-0.7,0.2-1.5,0.3-2.2,0.5C173.9,871.2,174.3,872.7,174.8,873.7L174.8,873.7z"/>
		</g>
	</g>
	<g>
		<g>
			<path class="st5" d="M187.1,615.5c-0.3-1.1-2.1-0.8-1.9,0.2c3,8.9,7,17.3,9.3,26.4c0.6-0.1,1.2-0.3,1.8-0.3
				c-4.8-12-9-24.4-10-37.3c-0.7,0.1-1.5,0.1-2.2,0.2c1.4,4.9,3.5,9.2,6.3,13.4c0.9,1.3,2.6,0.4,1.9-0.9c-2.3-4.6-3.3-9.8-4.7-14.7
				c-0.6,0.1-1.2,0.3-1.8,0.3c8.3,23.4,14.1,46.7,15.8,71.5c0.1,0.7,1.3,0.9,1.2,0c-0.4-24.3-7.4-49.1-15.2-71.9
				c-0.4-1.1-2.2-0.9-1.8,0.3c1.4,5.1,2.6,10.1,4.5,15.1c0.7-0.3,1.3-0.4,2-0.7c-2.5-4.1-4.6-8.3-6.1-12.9c-0.3-1.1-2.3-1.2-2.2,0.2
				c1.2,13.1,5.7,25.6,10.4,37.8c0.4,1.1,2.2,0.9,1.8-0.3C194.1,632.8,190.1,624.3,187.1,615.5L187.1,615.5z"/>
		</g>
	</g>
	<g>
		<g>
			<path class="st5" d="M288.6,393.5c0,1.7,2.7,2.1,2.9,0.2c0.2-7.1,1.3-13.6,4.3-20c-0.9-0.3-1.6-0.5-2.5-0.8
				c1.7,14.4-5.3,27.9-5.1,42.2c0,1,1.6,1.5,1.9,0.4c0.9-5.5,2-11.1,3-16.6c0.2-0.8-1.1-1.3-1.2-0.5c-1.1,5.6-2.4,11-3.6,16.5
				c0.6,0.2,1.3,0.4,1.8,0.6c1.9-14,6.6-28.1,5.8-42.4c-0.1-1.1-1.8-2-2.5-0.8C289.8,378.8,288.8,386.1,288.6,393.5L288.6,393.5z"/>
		</g>
	</g>
	<g>
		<g>
			<path class="st5" d="M294.4,391.4c0.4-0.7-0.8-1.5-1.1-0.7c-2.5,5.8-4.5,11.9-6.9,17.8c-0.2,0.6,0.7,1.2,0.9,0.6
				C289.9,403.2,291.8,397.2,294.4,391.4L294.4,391.4z"/>
		</g>
	</g>
	<g>
		<g>
			<path class="st5" d="M288.1,397.9c0.2-1.4-1.9-2.2-2.2-0.9c-1,4.6-2.1,9.1-2.9,13.7c0.9,0.2,1.7,0.3,2.5,0.5
				c0.2-2.6-0.2-5.2,0-7.9c0-1-1.4-1.5-2-0.6c-1.2,1.8-2.4,3.6-3.1,5.7c-0.3,1,1.2,1.6,1.8,0.8c1.1-1.8,2.1-3.7,3.2-5.4
				c-0.7-0.1-1.4-0.4-2-0.6c-0.1,2.5-0.1,5.1-0.4,7.6c-0.2,1.5,2.1,2.5,2.5,0.8C286.4,407,287.3,402.5,288.1,397.9L288.1,397.9z"/>
		</g>
	</g>
	<g>
		<g>
			<path class="st5" d="M460.6,361.1c-1.1,0.3-0.5,1.9,0.5,1.5c9.2-2.8,20.1-4.9,26.5-12.8c0.4-0.6-0.4-1.5-1-1
				c-10.9,8.3-23.7,17.9-38.1,17.8c-0.9,0-0.8,1.3,0,1.3c7.1,0.8,14.1-1.9,20.3-5.1c6.7-3.3,13.6-7.5,18.7-13
				c-0.4-0.3-0.7-0.6-1.1-0.8C480.7,356.9,469.4,358.6,460.6,361.1L460.6,361.1z"/>
		</g>
	</g>
	<g>
		<g>
			<path class="st5" d="M459.6,348.2c-1.4,0.2-0.6,2.4,0.8,2.1c8.4-1.3,16.6-3.7,24.5-6.6c7.7-2.9,16.3-6,23-11
				c0.7-0.6-0.2-1.7-0.9-1.5c-17.8,4-31.4,17.9-48.4,24c-18.7,6.7-36.4,15.6-52.1,27.9c-0.6,0.4,0.3,1.4,0.9,0.9
				c16-11.9,33.6-20.1,52.3-26.9c8.6-3.1,16.1-7.9,23.8-12.9c7.3-4.8,15.1-9.9,23.9-11.3c-0.3-0.6-0.5-1.1-0.8-1.7
				c-7.6,3.3-14.6,7.3-22.3,10.3C476.4,344.5,468.1,346.9,459.6,348.2L459.6,348.2z"/>
		</g>
	</g>
	<g>
		<g>
			<path class="st5" d="M235.3,831.3c-0.4,0.5,0.4,1.3,0.7,0.9c5.1-6.3,9-13.3,13.3-20.2c-0.5-0.3-0.9-0.6-1.4-0.9
				c-3.8,10.2-10,19.1-16.7,27.7c-6.1,7.7-13,15.4-17.4,24.2c-0.4,0.7,0.7,1.5,1.3,0.8c6.5-9,13.6-17.6,20.3-26.6
				c5.9-7.8,11.2-16,13.9-25.5c0.3-0.8-1-1.4-1.4-0.7C244.4,818.3,240.4,825.1,235.3,831.3L235.3,831.3z"/>
		</g>
	</g>
	<g>
		<g>
			<path class="st5" d="M223.4,856.3c1.7-1.7-1.1-4.5-2.8-2.8c-12.4,12.6-22.2,27.6-35.3,39.6c-0.8,0.8,0.4,1.9,1.3,1.3
				C200.8,883.5,210.9,868.7,223.4,856.3L223.4,856.3z"/>
		</g>
	</g>
	<g>
		<g>
			<path class="st5" d="M164.3,917.8c0.8-1.3-1.4-2.6-2.2-1.4c-5,8.8-9.9,17.5-14.2,26.5c-0.4,1,1.2,2.2,1.7,1.1
				C154.3,935.2,159.3,926.5,164.3,917.8L164.3,917.8z"/>
		</g>
	</g>
	<g>
		<g>
			<path class="st5" d="M138.9,966.8c0.8-1.7-1.9-3.5-3-1.7c-1.3,3.1-2.9,6.2-4.1,9.4c-0.7,1.9,2.2,3.2,2.7,1.3
				c2-7.8,6-15.6,9.1-23.1c3.2-7.5,6.8-14.9,12.1-21.3c-0.9-0.8-1.7-1.5-2.6-2.2c-3.9,6.1-6.2,12.9-10.2,19c1.1,0.7,2.3,1.4,3.4,2.1
				c2.7-6,5.5-12,8.5-17.9c1-1.9-1.7-4.3-3.3-2.7c-4.7,4.8-7.3,11-9.7,17.2c1.4,0.7,2.8,1.3,4.2,2c0.5-1.7,0.8-3.5,1.2-5.3
				c0.4-1.9-2.6-3.7-3.5-1.6c-2.9,6.8-4.9,13.6-6.2,20.9c-1.2,7-2.7,14.7-2.7,21.8c0,1,1.7,2,2.3,0.8c2.5-5.9,3.1-13.1,4.2-19.5
				c1.3-7.4,2.6-15,5.9-21.9c-1.2-0.6-2.3-1.1-3.5-1.6c-0.5,1.5-1,3.1-1.6,4.6c-0.9,2.4,2.7,5,4,2.4c2.6-5.7,4.6-11.8,8.8-16.6
				c-1.2-0.7-2.3-1.5-3.5-2.2c-1.5,6.1-5.4,11.9-8.2,17.5c-1,2,2.1,4.2,3.4,2.1c3.8-6.2,5.8-13.1,9.6-19.3c1-1.4-1.5-3.6-2.6-2.2
				c-5.1,6.2-8.6,13.2-11.5,20.7c-2.9,7.9-4.5,17.9-9.7,24.6c0.8,0.7,1.6,1.2,2.4,1.9C136.2,973.1,137.5,969.9,138.9,966.8
				L138.9,966.8z"/>
		</g>
	</g>
	<g>
		<g>
			<path class="st5" d="M82.4,845.5c-1.4-1.9-4.8-0.4-2.9,1.7c5.7,7.5,11.1,15.7,17.6,22.7c1.2,1.3,2.9-0.1,2.2-1.6
				c-3.9-8-10-14.7-13.7-22.8c-0.8,0.4-1.5,0.8-2.3,1.2c4.4,9.1,10.4,17.6,17.6,24.6c1.1,1.1,2.8,0,2-1.5c-1.9-3.7-4-7.1-5.7-10.8
				c-0.8,0.4-1.6,0.8-2.4,1.2c3.7,7.3,8.2,14.2,12.6,21.2c0.6,1,2.4,1,2.3-0.4c-0.1-1.1-0.1-2.4-0.1-3.5c-0.7,0.1-1.5,0.1-2.3,0.1
				c0.9,3,1.5,6.1,1.8,9.2c0.8-0.3,1.5-0.5,2.3-0.8c-7.8-9.7-7.9-23.7-15.5-33.7c-9-11.9-19.8-21.4-25.5-35.5
				c-0.4-0.8-1.7-0.7-1.4,0.2c4.5,13.5,15.1,23.3,23.7,34.1c8.7,11,8.1,25.8,16.8,36.6c0.7,1,2.4,0.5,2.3-0.8
				c-0.4-3.4-1.3-6.6-2.3-9.9c-0.4-1.2-2.2-1.2-2.3,0.1c-0.1,1.1-0.1,2.1-0.2,3.2c0.8,0,1.5-0.1,2.4-0.1
				c-3.8-7.3-8.4-14.2-12.4-21.4c-0.9-1.6-3.3-0.5-2.4,1.2c1.8,3.6,4,7.1,5.8,10.8c0.6-0.5,1.3-1.1,2-1.5
				c-6.9-7.1-12.9-15.1-17.3-24c-0.8-1.6-3.1-0.5-2.3,1.2c3.8,8,9.9,14.4,13.4,22.5c0.9-0.3,1.7-0.6,2.6-0.9
				C94.5,860.2,88,852.9,82.4,845.5L82.4,845.5z"/>
		</g>
	</g>
	<g>
		<g>
			<path class="st5" d="M295.8,248.7c-0.6,2.3,3.5,3.9,4.2,1.1c0-0.7,0.2-1.3,0.3-2c0.4-2.4-3.4-3.9-3.8-1.3
				c-0.9,4.8-2.1,9.6-2.2,14.4c0,2,3.1,2.4,3.2,0.2c0.3-4.8,1.3-9.6,2.6-14.4c-1-0.3-1.8-0.6-2.8-0.9c-0.5,2.8-1.2,5.4-1.5,8.1
				c-0.1,1.2,1.6,2.4,2.2,1.1c2.4-4.7,4.3-9.4,5.9-14.5c0.3-0.9-1-1.4-1.5-0.7c-0.6,1.1-1,2-1.2,3.3c-0.2,1,1.3,2,1.9,0.9
				c1.8-3.9,3.2-8.1,5.1-12.1c0.5-0.9-1-1.9-1.5-0.9c-0.5,1.1-1.1,2.2-1.6,3.3c0.5,0.2,1,0.5,1.5,0.7c1.2-11.4,8.1-21.5,8-33.1
				c-0.1-0.7-1.1-0.8-1.1-0.1c-0.7,11.4-6.4,21.5-8.5,32.6c-0.2,0.8,1,1.5,1.5,0.7c0.6-1,1.2-2.1,1.8-3.2c-0.6-0.2-1.1-0.5-1.7-0.8
				c-1.4,4.1-2.8,8.2-5.3,11.8c0.6,0.3,1.2,0.6,1.9,0.9c0.2-1.1,0.4-2.2,0.7-3.2c-0.5-0.2-1.1-0.3-1.5-0.5c-1,4.7-3.3,9.7-6.3,13.5
				c0.7,0.4,1.4,0.8,2.1,1.2c0.6-2.6,1.5-5.2,1.9-7.9c0.2-1.6-2.2-2.6-2.8-0.9c-1.5,4.9-2.4,9.7-3.1,14.7c1.1,0.3,2.1,0.7,3.2,1
				c0.4-4.7,1.8-9.2,2.9-13.8c-1.2-0.5-2.6-0.8-3.8-1.3C296,247.4,295.9,248,295.8,248.7L295.8,248.7z"/>
		</g>
	</g>
	<g>
		<g>
			<path class="st5" d="M295.4,202.8c0.4,2.5,4.8,3.1,4.5,0.3c-0.6-3.1-1.1-6.1-1.4-9.2c-0.3-2.5-4.3-3.2-4.3-0.3
				c0.1,5.2,0,10.4,1,15.5c0.3,1.8,3.6,1.9,3.4-0.2c-0.5-5.7-1.8-12,0.9-17.5c-0.7-0.1-1.4-0.4-2-0.6c0.2,1.9,0.2,3.8,0.5,5.7
				c0.2,1.1,2.1,2.3,2.7,0.9c0.9-2.3,1.4-4.5,1.6-6.9c0.1-1.3,0.7-9.4,1.4-8.7c0.3,0.3,0.7,0.4,0.9,0c0.5-1,0.2-0.6,0.4-1.8
				c0.1-0.6-0.9-1-1.1-0.3c-0.2,0.9,0,0.7-0.9,0c-0.5-0.3-0.9-0.1-1,0.3c-1.8,5.3-1,11-3.8,15.9c0.9,0.2,1.7,0.3,2.5,0.5
				c-0.3-1.9-0.7-3.8-1.2-5.7c-0.3-0.8-1.6-1.2-2-0.4c-2.8,5.9-2.2,12-2.5,18.4c1.2,0,2.3,0.2,3.5,0.2c-0.1-5-0.3-10-0.2-15
				c-1.5-0.1-2.9-0.2-4.3-0.3C294.4,196.7,294.9,199.7,295.4,202.8L295.4,202.8z"/>
		</g>
	</g>
	<g>
		<g>
			<path class="st5" d="M309.3,157.9c0.7-1.9-2.2-3.3-2.8-1.3c-0.3,0.9-0.8,1.7-1.2,2.5c-0.6,0.9-1.1,1.4-0.9,2.5
				c0.1,0.5,0.6,0.9,1.1,0.9c1.2,0,1.7-0.9,2.3-1.8S308.9,158.8,309.3,157.9L309.3,157.9z"/>
		</g>
	</g>
	<g>
		<g>
			<path class="st5" d="M238.9,97.6c0.5,1.5,2.9,1.2,2.3-0.4c-0.5-1.5-1-3.2-1.5-4.8c-0.8,0.3-1.4,0.5-2.2,0.8
				c1.7,2.4,3.1,4.9,5,7.2c0.6,0.8,1.9,0.3,2-0.7c0.2-4-1.2-7.9-2.2-11.8c-0.2-1.1-2.1-1.1-2,0.1c0.3,2.3,1,4.6,2.3,6.6
				c0.5,0.8,1.7,0.2,1.3-0.7c-0.8-1.9-1.4-3.8-1.6-5.8c-0.6,0.1-1.3,0-2,0.1c0.9,3.7,2.1,7.5,1.8,11.3c0.7-0.3,1.3-0.4,2-0.7
				c-1.6-2.1-3-4.5-4.4-6.7c-0.7-1.1-2.6-0.7-2.2,0.8S238.5,96,238.9,97.6L238.9,97.6z"/>
		</g>
	</g>
	<g>
		<g>
			<path class="st5" d="M243.4,83.3c0.2-0.5-0.4-0.9-0.6-0.3c-0.5,1.1-1,2.1-1.7,3.2c0.2,0.1,0.5,0.2,0.7,0.4
				c1.1-5.3,2.7-10.6,3.3-16.1c0.1-0.6-0.8-1.2-1.1-0.5c-1.7,3.1-3.4,6.8-3.9,10.3c-0.1,1,1.6,1.8,1.8,0.6c0.8-3.6,1.6-6.9,3.2-10.3
				c-0.4-0.2-0.7-0.4-1.1-0.5c-0.5,5.5-2,10.8-2.9,16.2c-0.1,0.4,0.4,0.8,0.7,0.4C242.4,85.6,242.9,84.5,243.4,83.3L243.4,83.3z"/>
		</g>
	</g>
	<g>
		<g>
			<path class="st5" d="M241.1,72c0.1-1.3-2-1.5-1.9,0c-0.1,2.8,0.3,5.7,1.6,8.2c0.6-0.3,1.3-0.7,1.8-1c-1.7-2.8-2.6-5.7-2.9-9
				c-0.7,0-1.3,0-2.1,0.1c0.3,1.4,0.8,2.8,1.1,4.2c0.2,1.1,2.1,1.1,2-0.1c-0.1-1.4-0.8-2.3-1.3-3.5c-0.4-0.8-1.7-0.5-1.4,0.4
				c0.3,1,0.7,1.8,0.6,2.9c0.6-0.1,1.3,0,2-0.1c-0.3-1.4-0.8-2.8-1.1-4.2c-0.3-1.1-2.2-1.2-2.1,0.1c0.3,3.5,1.4,6.9,3.2,10
				c0.7,1.3,2.5,0.4,1.8-1C241.3,76.8,241,74.4,241.1,72L241.1,72z"/>
		</g>
	</g>
	<g>
		<g>
			<path class="st5" d="M246.7,64.4c0.4-0.9-1.1-2-1.7-1.2c-0.5,1.1-1.1,1.7-0.7,3c0.2,1,1.5,1,1.8,0.2c0.9-2.6,1.5-5.3,2.3-7.9
				c0.3-0.8-0.9-1.5-1.5-0.9c-1.3,1.2-2.5,3-2.8,4.6c-0.1,1.1,1.2,1.9,1.9,0.9c0.9-1.4,1.6-2.9,2.4-4.3c-0.5-0.2-1.1-0.3-1.6-0.5
				c0.1,2.6-1.7,5.3-2.4,7.7c0.6,0.1,1.2,0.1,1.8,0.2C246,65.5,246.5,65,246.7,64.4L246.7,64.4z"/>
		</g>
	</g>
	<g>
		<g>
			<path class="st5" d="M249,76.9c0.8-0.9-0.6-2.4-1.3-1.5c-0.5,0.5-0.9,0.8-1.6,1.1c0.4,0.5,0.9,0.9,1.3,1.4c1.1-1.9,2.6-3.7,4-5.3
				c0.6-0.7-0.2-1.9-1.1-1.5c-2.1,1-3.6,3.5-4.2,5.7c-0.3,1,0.9,1.6,1.7,1.4c0.7-0.3,1.4-0.6,2-1c1-0.6,0-1.9-1-1.6
				c-0.7,0.3-1.4,0.4-2.1,0.6c0.5,0.4,0.9,0.9,1.4,1.4c0.6-2.1,2-3.5,3.3-5.1c-0.5-0.4-1-0.8-1.5-1.2c-1.7,1.8-3.2,3.6-4.4,5.6
				c-0.5,0.8,0.6,1.7,1.3,1.4C247.7,78,248.4,77.5,249,76.9L249,76.9z"/>
		</g>
	</g>
	<g>
		<g>
			<path class="st5" d="M246.3,87.6c0,0.8,1.4,0.9,1.2,0.1c-0.1-0.7-0.4-1.5-0.1-2.3c-0.3-0.1-0.7-0.2-1-0.3c0,2.5-1.2,4.2-2.5,6.1
				c-0.6,0.8,0.6,2.1,1.5,1.8c0.6-0.2,1.2-0.3,1.8-0.4c-0.3-0.4-0.8-0.8-1.1-1.1c-0.5,1.5-1.4,2.8-2,4.3c-0.4,0.9,0.9,2.3,1.7,1.4
				c1.3-1.6,1.4-3.3,2.1-5.1c0.2-0.6-0.4-1.2-0.9-1.2c-0.7,0-1.3-0.2-2-0.2c0.4,0.6,0.8,1.3,1.2,1.9c0.9-2.4,1.6-5,1.3-7.5
				c0-0.4-0.7-0.7-1-0.3C246,85.8,246.3,86.5,246.3,87.6L246.3,87.6z"/>
		</g>
	</g>
	<g>
		<g>
			<path class="st5" d="M191.4,88c1.3,0.5,1.6-1.4,0.5-1.9c-1.4-0.5-1.6,1.1-1.4,2.1c0.2,1.5,0.7,3,1.2,4.4c0.3,1.1,2.1,1.2,2.1-0.1
				c-0.1-2-1.3-4.3-3-5.3c-0.8-0.5-1.4,0.5-0.8,1.2c0.6,0.6,1.1,1.1,1.4,1.8c0.3,0.7,0.3,1.5,0.4,2.2c0.6,0,1.3,0,2.1-0.1
				c-0.4-0.9-0.8-1.8-1-2.7c-0.1-0.5-0.2-1-0.3-1.4c-0.1-0.1,0-0.3-0.1-0.4l0-0.1C192.2,87.8,191.9,88,191.4,88L191.4,88z"/>
		</g>
	</g>
	<g>
		<g>
			<path class="st5" d="M196.6,100.7c1.8,0,1-3.1-0.6-3.1c-7.5,0-13.9-4.8-20,1.9c-1.7,1.8,0.7,4.7,2.7,3.6c3.2-1.6,6.3-3.3,10-3.8
				c-0.4-1-0.8-1.9-1.3-2.8c-2.8,1.6-6.7,3.8-8,6.8c-0.4,1.1,0.7,2.6,2,1.9c2.9-1.6,5.8-4.2,8-6.4c1-0.9,0.1-2.5-1.1-2.6
				c-4.2,0-7.9,1.4-11.8,2.8c0.9,1.2,1.9,2.4,2.7,3.6C184,97,190.4,101,196.6,100.7L196.6,100.7z"/>
		</g>
	</g>
	<g>
		<g>
			<path class="st5" d="M181,109.7c0.4-1.1-1.2-2-1.6-0.7c-0.5,1.3-1.1,2.5-2.1,3.6c-0.5,0.6,0.4,1.6,1,1
				C179.6,112.6,180.4,111.1,181,109.7L181,109.7z"/>
		</g>
	</g>
	<g>
		<g>
			<path class="st5" d="M180.6,113.8c0.5-2.8-4.2-4.4-4.5-1.3c-0.2,2.2-0.7,5,1.2,6.6c1,0.8,3,0.7,2.9-1c-0.3-2.9-0.7-5.7-2.5-8.2
				c-0.5-0.6-1.9-1-2.1,0.1c-0.1,1-0.4,2.1-0.7,3c0.5-0.2,0.8-0.4,1.2-0.5c0.2,0.2,0.2,0.4,0.4,0.5c-0.2-0.6-1-0.9-1.5-0.3
				c0,0.2-0.1,0.3-0.1,0.5c0,0.5,0.7,1.1,1.3,0.8c0.9-0.5,1.4-2.4,1.6-3.3c-0.7,0-1.3,0-2.1,0.1c1.2,1.6,1.9,4.1,1.1,6
				c1,0.7,2.1,1.3,3.1,2C180.5,117.3,180.4,115.4,180.6,113.8L180.6,113.8z"/>
		</g>
	</g>
	<g>
		<g>
			<path class="st5" d="M174.1,112.2c1.6-1.7-1.3-4.1-2.7-2.3c-0.7,0.9-1.4,1.3-2.4,1.8c0.7,0.2,1.3,0.6,2,0.9
				c-0.3-0.8-0.7-1.6-0.6-2.5c0.1-0.8-0.9-1.3-1.5-1c-3.1,1.2-5.8,2.9-8.9,4.1c0.9,0.7,1.7,1.4,2.5,2c0.4-0.9,1.8-1.6,2.7-2
				c1-0.5,0.2-2.2-0.8-1.9c-1.6,0.5-2.9,1-4.3,2c-1.6,1.1-0.4,3.4,1.4,3.1c3.6-0.4,5.8-3.4,8.5-5.4c-0.5-0.2-1-0.5-1.5-0.7
				c0.1,0.7,0.1,1.5,0,2.2c-0.2,0.8,0.6,1.6,1.4,1.7C171.5,114.4,173,113.5,174.1,112.2L174.1,112.2z"/>
		</g>
	</g>
	<g>
		<g>
			<path class="st5" d="M170.1,103.1c0,1.2,2.3,1.9,2.3,0.4c0.2-2.1-1.8-2.8-3.4-2c0.6,0.1,1.2,0.3,1.7,0.6c-1-1.5-1.3-3.2-1.2-5
				c-0.5,0.1-1,0.2-1.5,0.3c1.2,2.6,0,5.7,1.3,8.2c0.4,0.8,1.9,0.9,2.1-0.1c0.3-1.4-0.1-3-0.4-4.4c-0.3-1.6-0.8-2.9-1.5-4.4
				c-0.3-0.6-1.4-0.6-1.5,0.1c-0.2,2.1-0.2,4.3,0.6,6.2c0.3,0.8,1.1,1.2,1.9,0.9L170.1,103.1L170.1,103.1z"/>
		</g>
	</g>
	<g>
		<g>
			<path class="st5" d="M177.4,77.8c0.7-1.5-1.6-3.1-2.5-1.6c-1.1,2-2.3,4-3.4,6.1c0.8,0.5,1.7,0.8,2.5,1.2c0.1-0.3,0.1-0.6,0.2-0.9
				c0.5-1-0.8-2.1-1.7-1.4c-2.1,1.7-3.7,4-4.5,6.7c-0.6,2.1-1.7,4.4-0.7,6.5c0.3-0.1,0.7-0.4,1-0.5c-0.7-1.1-1.3-1.5-2.4-2.2
				c-0.7-0.5-1.5,0.6-0.8,1.2c1,0.8,1.3,1,2.4,1.8c0.5,0.4,1.2,0.1,1-0.5c-0.5-2.4,1.2-4.8,2.3-6.6c0.8-1.4,1.9-3.6,3.2-4.6
				c-0.3-0.6-0.7-1.3-1.1-1.8c-0.5,0.3-0.7,0.5-1.1,0.9c-1.4,1.3,1.1,3.4,2.2,1.8C175.2,81.9,176.3,79.9,177.4,77.8L177.4,77.8z"/>
		</g>
	</g>
	<g>
		<g>
			<path class="st5" d="M179.2,71.4c-0.8,1.2,0.2,2.8,1.3,3.4c1.2,0.6,2.7,0,3-1.3c0.2-1.1,0-2.2,0.3-3.3c0.3-1.3-1.1-2.5-2.4-1.9
				c-1,0.4-2,0.8-2.7,1.7c-0.8,0.9-1.1,2-1,3.3c0,0.6,0.4,1.1,1,1.3c0.5,0.1,1.2,0,1.4-0.5c0.5-1.2,1.1-2.6,2.6-2.8
				c-0.6-0.9-1.2-1.9-1.7-2.8C180.1,69.2,179.9,70.4,179.2,71.4L179.2,71.4z"/>
		</g>
	</g>
	<g>
		<g>
			<path class="st5" d="M167.3,68.3c1.5-0.4,0.7-2.5-0.8-2.2c-1.7,0.2-3.3,0.9-4.5,2.1c-0.7,0.8,0.4,2.2,1.4,1.7
				C164.6,69.3,165.9,68.6,167.3,68.3L167.3,68.3z"/>
		</g>
	</g>
	<g>
		<g>
			<path class="st5" d="M163.3,71.1c1.6-0.7,0-3.2-1.3-2.4c-3.4,1.7-5.4,4.7-7.8,7.5c-0.7,0.8,0.4,2,1.3,1.3
				C158,75.3,160.2,72.6,163.3,71.1L163.3,71.1z"/>
		</g>
	</g>
	<g>
		<g>
			<path class="st5" d="M151.4,76.5c-0.5,0.8,1,1.7,1.4,0.9c0.3-0.5,0.5-1,0.8-1.5c0.5-0.7-0.8-1.6-1.3-0.8
				C152,75.6,151.7,76,151.4,76.5L151.4,76.5z"/>
		</g>
	</g>
	<g>
		<g>
			<path class="st5" d="M147.2,64c-0.2,1.5,2.1,2.1,2,0.4c0.1-0.9-0.1-1.7-0.2-2.7c-0.1-0.7,0-1.5-0.1-2.3c0-0.9-1.2-1.9-2.1-1.3
				c-1.7,1.1-2.3,3.8-0.9,5.4c1.3,1.5,3.4,1.7,4.9,0.4c0.6-0.6,0-1.8-0.9-1.8c-0.4,0-0.9,0-1.3-0.1c-0.1,0-0.3-0.2-0.4-0.2
				c-0.1,0-0.2-0.1-0.1,0c0,0-0.1-0.1,0-0.3c0.1-0.5,0.5-0.9,0.7-1.4c-0.8-0.1-1.6-0.1-2.4-0.2C147.5,61.2,147.4,62.5,147.2,64
				L147.2,64z"/>
		</g>
	</g>
	<g>
		<g>
			<path class="st5" d="M140.1,71.7c0.5-0.2,0.3-1.1-0.2-1c-1,0-2.3,0.1-3,1c-0.7,1-0.5,2.1,0.1,3.1c0.5,0.7,1.7,0.5,1.4-0.5
				c-0.1-0.4-0.5-1.1-0.2-1.7C138.6,72,139.5,71.9,140.1,71.7L140.1,71.7z"/>
		</g>
	</g>
	<g>
		<g>
			<path class="st5" d="M139.6,80.8c1.6-0.8,0-3.4-1.3-2.5c-0.9,0.4-1.5,1-2,1.8c-0.4,0.5-0.1,1.2,0.3,1.7c0.6,0.7,1.1,1.6,1.9,2.1
				c0.2-0.8,0.3-1.7,0.5-2.4c-1-0.1-1.9-0.9-2.8-1.1c-1.3-0.3-2.1,1.1-1.1,2c0.6,0.6,1.1,0.9,1.9,1.3c0.7,0.4,1.4,0.4,2.3,0.5
				c0.5,0,1.1-0.4,1.2-1c0.1-0.7-0.2-1.2-0.7-1.6c-0.2-0.1-0.3-0.4-0.5-0.6c-0.2-0.4-0.6-0.7-0.8-1.1c0.1,0.5,0.2,1.2,0.3,1.7
				C138.9,81.3,139.1,81,139.6,80.8L139.6,80.8z"/>
		</g>
	</g>
	<g>
		<g>
			<path class="st5" d="M174.8,57.7c1.3-0.4,0.9-2.6-0.4-2.4c-1.4,0-2.9,0-4.2,0.3c-2.1,0.4-1.2,3.6,0.7,3.7c1.9,0,4-0.5,5.8-1
				c-0.8-0.7-1.6-1.2-2.4-1.9c0,0.5,0,0.9,0.1,1.5c0.2,1.1,1.4,1.9,2.4,1.1c0.6-0.5,0.9-1.3,1-1.9c0.3-1.4-1.1-2.6-2.4-2.4
				c-0.9,0.2-1.8,0.3-2.6,0.5c-0.8,0.1-1.8,0.2-2.6,0.4c0.5,1.1,1.1,2.4,1.5,3.5C172.7,58.4,173.7,57.9,174.8,57.7L174.8,57.7z"/>
		</g>
	</g>
	<g>
		<g>
			<path class="st5" d="M185.1,61.8c-0.7,0.4,0,1.5,0.6,1.2c0.5-0.2,0.8-0.4,1.3-0.3c-0.1-0.3-0.4-0.7-0.6-1
				c-0.4,1.9,0.3,3.9,1.6,5.2c0.7,0.9,2.4,0.7,2.7-0.6c0.2-1.2-0.3-2.2-1-3.1c-0.5-0.6-1.2-1.1-1.7-1.7c-0.1-0.3-0.5-0.6-0.9-0.5
				C186.3,61.2,185.7,61.4,185.1,61.8L185.1,61.8z"/>
		</g>
	</g>
	<g>
		<g>
			<path class="st5" d="M215.9,69.8c1.5,1.1,3.6,0.7,4.5-0.5c1.1-1.6,0.6-3.4-0.6-4.8c-1.3-1.7-3.1-2.2-5.2-1.9
				c-3,0.5-3.2,3.6-2.2,5.8c-0.5-1,0.5,1.6,0.5,1.6c0.5,0.9,1,1.4,1.9,2.1c1.6,1.1,3.7,0.4,4.7-1c0.4-0.5,0.6-1,0.7-1.7
				c0.2-3.7-5.3-5.1-5.4-1.1c0,0.1,0,0.1,0,0.2c0.3-0.5,0.6-1.1,0.9-1.6c-3.1,1.5-6.5,2.7-9.7,4c1.4,0.4,2.8,0.9,4.1,1.3
				c-0.2-0.4-0.4-0.8-0.6-1.1c-0.5-0.9-2-1.8-3.1-1.4c-0.5,0.2-1.1,0.4-1.6,0.7c-1.2,0.7-1.4,2-0.7,3.1c2.8,4.9,7.4,8.8,13.4,7.6
				c2.1-0.5,0.9-3.1-0.6-3.4c-3.2-0.5-8-1.1-8.5-5.1c-0.7,0.8-1.4,1.4-2.2,2.2c0.2,0,0.3,0,0.5,0c-0.7-0.9-1.4-1.8-2.1-2.7
				c0.1,0.1-0.1,0.8,0,1.2c0,2.2,3.6,4.6,5.2,2.5c2-2.3,4.2-5,7.5-5.3c-0.7-0.4-1.5-0.7-2.2-1.1c0.1,0,0.1,0.1,0.2,0.1
				c0.5-1.3,1-2.5,1.5-3.9c0.2-0.1,0.3,0,0.5,0c0.9,1.5,1.8,2.9,2.7,4.4c0.4-1.4,0.3-3.1,0-4.5c-0.3,1.3-0.6,2.5-0.9,3.8
				c0.1-0.2,0.3-0.3,0.4-0.4c-0.9,0.3-1.8,0.7-2.7,1C216.5,69.9,216.2,69.9,215.9,69.8L215.9,69.8z"/>
		</g>
	</g>
	<g>
		<g>
			<path class="st5" d="M219.4,81.3c-0.7-1-2.1,0.3-1.1,1.2c0.4,0.3,0.7,0.6,0.9,1.1c0.1,0.1,0.5,0.9,0.5,1c0.2-0.1,0.4-0.2,0.6-0.4
				c-0.7,0.3-1,0.5-1.4,1c-0.8,1.2,0.5,2.7,1.5,3c1.3,0.3,2.4-0.9,2-2.2c-0.2-0.5-0.3-0.9-0.8-1.2c-0.3-0.3-0.5-0.3-0.7-0.5
				c0.2,0.1,0.2,0.4,0.4,0.5C220.8,83.5,220.3,82.4,219.4,81.3L219.4,81.3z"/>
		</g>
	</g>
	<g>
		<g>
			<path class="st5" d="M211.9,98.9c-1.8,0.2-0.8,3.1,0.9,2.7c2.3-0.4,4.8-0.7,6.9-2.1c1.1-0.7,0.4-2.2-0.7-2.3
				c-3.1-0.2-6.2,0.3-9.3,0.6c-1,0.1-0.6,1.7,0.3,1.7c2.9-0.1,6-0.7,8.8,0.2c-0.1-0.7-0.1-1.5-0.1-2.3
				C216.6,98.2,214.4,98.6,211.9,98.9L211.9,98.9z"/>
		</g>
	</g>
	<g>
		<g>
			<path class="st5" d="M208.6,92.7c0.7-0.3,0.8-1.4,0.5-2c-0.4-0.7-1.3-1.1-2-0.7c-0.7,0.5-1.6,0.6-2.4,0.8c0.5,0.7,1.1,1.3,1.5,2
				c0.3-0.5,0.5-1.1,0.7-1.6c0.2-0.3,0.4-1.1,0.7-1.3c1.4-0.8,0.2-3.2-1.3-2.8c-1.5,0.5-3.1,1.9-3.3,3.5c-0.2,1.4,1.1,2.7,2.4,2
				c1.2-0.6,1.8-2.2,2.5-3.3c-0.8-0.4-1.8-0.9-2.7-1.3c-0.2,0.6-0.5,1-0.7,1.6c-0.2,0.6-0.4,1.1-0.8,1.7c-0.6,1,0.5,2.2,1.5,2
				C206.6,93.3,207.6,93.1,208.6,92.7L208.6,92.7z"/>
		</g>
	</g>
	<g>
		<g>
			<path class="st5" d="M203.5,100.9c0.2-0.8-0.2-1.7-0.6-2.2c-0.5-0.5-1.4-1-2.2-0.8c-0.5,0.1-1,0.3-1.4,0.7
				c-0.2,0.3-0.4,0.5-0.6,0.8c-0.3,0.5-0.4,1.1-0.4,1.8c0,0.3,0.1,0.5,0.2,0.7c0.3,0.7,0.7,1.2,1.3,1.5c0.5,0.3,1.3,0.4,1.7,0
				c0.5-0.3,0.9-0.5,1.2-1.1c0.1-0.3,0.2-0.5,0.3-0.6c-0.1,0.1-0.3,0.3-0.4,0.4c0.1-0.2,0.3-0.4,0.4-0.6
				C203.4,101.4,203.4,101.2,203.5,100.9L203.5,100.9z"/>
		</g>
	</g>
	<g>
		<g>
			<path class="st5" d="M204,118.2c0.2,1.8,1.5,3.1,3.2,3c1.7,0.2,3-1.2,2.9-2.8c-0.1-2.4-1.6-3.9-3.6-4.8c-0.9-0.4-2.3-0.2-3,0.6
				c-0.8,0.9-1.5,1.8-1.6,3c-0.1,1.5,0.2,2.9,1.2,4c1.3,1.4,3.3,1.9,5.1,1.4c1.8-0.4,3.3-1.7,4-3.4c0.9-2.7-2-4.6-4.4-4.6
				c-1.7,0-1.9,2.1-0.6,2.9c0.2,0.1,0.4,0.3,0.5,0.4c-0.1-0.1,0.8,0.3,0.6,0.2c-0.1-0.1-0.1-0.1,0.1,0c-0.1,0-0.1-0.1-0.2-0.1
				c-0.2-0.5-0.3-0.7-0.2-0.4c0.1,0.1,0.1,0.1,0,0c0.2-0.5,0.4-1,0.6-1.5c-0.1,0.2-0.3,0.3-0.4,0.4c0.4-0.3,0,0-0.1,0.1
				c-0.1,0.1-0.2,0.2-0.4,0.2c-0.3,0.1-0.3,0,0,0c-0.2,0.1-0.4,0-0.5,0.1c-0.5,0.2,0.5-0.1,0,0c-0.1,0-0.6-0.1-0.1,0
				c0.5,0.1,0,0-0.1,0c-0.5-0.3,0.7,0.5,0.3,0.2c-0.5-0.2,0.6,0.5,0.4,0.3c-0.3-0.3,0.5,0.8,0.3,0.4c0.4,0.8,0.4,0.7,0.2,0.4
				c0.1,0.1,0.3,0.8,0.1,0.9c0,0,0.1-0.3,0.1-0.4c0.2-0.6,0,0.1,0,0.1l0.3-0.5c-1.1,0.4-2.3,0.9-3.4,1.2
				C204.6,119.4,204.1,118.8,204,118.2L204,118.2z"/>
		</g>
	</g>
	<g>
		<g>
			<path class="st5" d="M198.6,126c5.3,1.1,5.3-6.1,0.8-6.8c-5.1-0.7-8.6,2.6-12.5,5.2c-1.8,1.2-0.1,3.9,1.7,3
				c0.7-0.4,1.4-0.6,2.1-0.9c1.1-0.4,0.7-2.1-0.4-2.1c-2.5-0.1-5.2,0.4-7.4,1.7c-1.2,0.7-1,2.3,0.1,2.9c1.5,0.9,3.1,1.4,4.9,1.6
				c1.4,0.1,1.3-1.9,0.1-2.2c-1.3-0.4-2.3-0.9-3.2-1.8c-0.1,0.9-0.1,1.7-0.2,2.6c2-1.2,3.8-1.9,5.9-2.6c-0.2-0.7-0.2-1.4-0.4-2.1
				c-0.9,0-1.8-0.1-2.7-0.1c0.2,1.1,0.4,2.2,0.6,3.3C191.5,127.3,195.1,125.2,198.6,126L198.6,126z"/>
		</g>
	</g>
	<g>
		<g>
			<path class="st5" d="M193,140.9c1.4-2.7-3.1-5-4-1.9c-0.7,1.8-0.8,3.7-0.1,5.6c0.3,0.9,2,1.7,2.4,0.5
				C191.8,143.7,192.3,142.2,193,140.9L193,140.9z"/>
		</g>
	</g>
	<g>
		<g>
			<path class="st5" d="M190.7,136.7c-1.2,2.2,2.4,4.6,3.8,2.2c0.8-1.6,1.5-3.1,1.9-4.8c0.3-1.9-2.4-4.3-3.9-2.4
				c-1.7,2.1-2.7,4.3-3.8,6.8c-1,2.1-2.6,4.5-2.6,6.8c0,1.1,1.2,2.2,2.3,1.9c2.4-0.6,3.5-3,4.4-5.1c1-2.5,1.8-5,3.2-7.4
				c-1.3-0.5-2.8-0.9-4.2-1.4C191.7,134.6,191.2,135.6,190.7,136.7L190.7,136.7z"/>
		</g>
	</g>
	<g>
		<g>
			<path class="st5" d="M184.1,137.1c2.7,0,2.3-4.1-0.4-3.9c-2.2,0.1-4.3,0.2-6.4-0.5c0.4,1,0.7,2.1,1,3.1c0.4-0.4,0.8-1,1.2-1.5
				c0.6-0.7,0.5-1.5-0.1-2.2c-2.2-2.6-5.1-3-8.2-1.8c-0.7,0.3-1,1.1-1,1.7c0.4,4.9,5.7,7.8,9.2,10.3c1.1,0.7,2.5-0.6,1.7-1.7
				c-2.1-2.8-6.1-5.3-6.8-8.9c-0.3,0.8-0.6,1.5-0.9,2.3c1.4-0.7,2.7-1.2,4,0c0-0.7,0-1.4-0.1-2.2c-0.4,0.2-0.8,0.5-1.3,0.8
				c-1.1,0.6-1,2.5,0.2,3.1C178.8,137,181.3,137,184.1,137.1L184.1,137.1z"/>
		</g>
	</g>
	<g>
		<g>
			<path class="st5" d="M203.1,124.7c-1,0.3-1.6,1.1-1.6,2.1c0.1,0.9,1.1,2,2.2,2c1,0,1.9-0.4,2.1-1.5c0.4-1.4-0.7-2.6-2-2.9
				c-1.7-0.3-3.1,1.2-3.8,2.6c-0.5,1-0.2,2.2,0.5,3c0.7,0.7,2.1,1.1,2.9,0.6c1.7-1.1,3.2-2,4.2-3.7c0.6-0.9,0.1-2.1-0.7-2.7
				c-0.9-0.7-1.9-0.7-2.7,0c-1.2,1.1-1.5,2.9-1.9,4.4c-0.4,1.4,1.3,2.4,2.3,1.5c0.5-0.4,0.9-0.9,1.2-1.4c0.3-0.3,0.4-0.5,0.6-0.7
				c0.1-0.1,0.2-0.2,0.4-0.2c0,0,0.2-0.2,0.1-0.1c-0.9-1.2-1.8-2.3-2.7-3.5c-0.3,0.4-0.6,0.7-0.9,0.9c-0.1,0.2,0.2-0.1-0.1,0.1
				c-0.1,0.1-0.3,0.1-0.5,0.2c-0.7,0.3-1.3,0.5-1.9,0.9c1.2,1.2,2.3,2.3,3.5,3.5c0.2-0.4,0.6-1,0.7-1.4c0-0.1-0.4,0.4,0,0.1
				c0.2-0.1,0.1,0-0.3,0.3c-0.7,0.3-1.4,0.2-2-0.2c-0.3-0.3-0.6-0.6-0.8-0.9c-0.1-0.1-0.1-0.3-0.2-0.5c0-0.4-0.1-0.7-0.1-1.1
				C202,125.3,202.5,124.9,203.1,124.7L203.1,124.7z"/>
		</g>
	</g>
	<g>
		<g>
			<path class="st5" d="M218,130.3c0.1-0.3-0.1-0.5-0.4-0.6c-0.2-0.1-0.5,0-0.6,0.3c0,0.2-0.1,0.3-0.1,0.5s0.1,0.5,0.4,0.6
				c0.3,0.2,0.5,0,0.6-0.3C217.9,130.6,218,130.5,218,130.3L218,130.3z"/>
		</g>
	</g>
	<g>
		<g>
			<path class="st5" d="M223,126.8c0.5,0.1,0.6-0.6,0.1-0.7S222.5,126.7,223,126.8L223,126.8z"/>
		</g>
	</g>
	<g>
		<g>
			<path class="st5" d="M233.4,123c0.5,0.1,0.6-0.6,0.1-0.7S232.9,122.9,233.4,123L233.4,123z"/>
		</g>
	</g>
	<g>
		<g>
			<path class="st5" d="M222.7,120.3c2.7,1.2,3.9-3.1,1.8-4.4c-2.6-1.3-5.4-2.4-8.4-2.7c-1.4-0.1-2.9,0.9-3.1,2.3
				c-0.6,3.6,2,7.6,6,7.7c3.4,0.2,6.3-2.1,7.1-5.4c0.4-2.1-1-4.1-2.8-4.7c-2.7-0.9-5.1,0-6.4,2.5c-1.1,1.9,0.6,3.9,2.5,4.2
				c0.6,0.1,1.3,0.3,1.8,0c0.7-0.3-0.1,0.1-0.4-0.1c-0.6-1.6-1-3.4-1.6-5c-0.5,0.7,0.4-0.2-0.2,0.3c-0.3,0.3-0.7,0.5-0.1,0.2
				c-0.2,0.2-0.6,0.3-0.8,0.4c0.5-0.2,0.5-0.1,0,0c-0.3,0,0.7,0.1-0.1,0c-0.3-0.1,0.7,0.1,0.9,0.3c0.2,0.1,0.4,0.3,0.5,0.5
				c0.2,0.4,0.2,0.4,0,0c0.1,0.3,0.2,0.4,0.1,0.1c-0.1-0.2-0.1-0.3-0.2-0.5c-0.5,1.2-0.9,2.5-1.4,3.7
				C219.5,118.9,221.1,119.5,222.7,120.3L222.7,120.3z"/>
		</g>
	</g>
	<g>
		<g>
			<path class="st5" d="M223.5,132c0.6-0.5,1-0.9,1.3-1.8c0.2-0.7,0-1.4-0.4-2.1c-0.8-1.3-2.6-2.1-4-1.3c-0.8,0.4-1.3,1.1-1.9,1.8
				c-0.7,0.9-0.8,1.9-0.5,3c0.4,1.6,2.4,2.7,4,1.9c0.6-0.3,0.9-0.5,1.2-1.1C223.3,132.2,223.5,132.1,223.5,132
				c-0.1,0.2-0.3,0.4-0.4,0.5c0.3-0.3,0.5-0.6,0.9-0.8C223.7,131.8,223.6,132,223.5,132C223.4,132.1,223.5,132,223.5,132L223.5,132z
				"/>
		</g>
	</g>
	<g>
		<g>
			<path class="st5" d="M225.7,129c0.5,0.1,0.6-0.7,0.1-0.7C225.4,128.2,225.2,128.9,225.7,129L225.7,129z"/>
		</g>
	</g>
	<g>
		<g>
			<path class="st5" d="M242.3,131.3c0.5,0.1,0.6-0.6,0.1-0.7C242,130.5,241.8,131.2,242.3,131.3L242.3,131.3z"/>
		</g>
	</g>
	<g>
		<g>
			<path class="st5" d="M263.2,176.7c0,1.9,1.8,3.5,3.6,3.6c2,0.2,3.2-1.4,3.3-3.2c0.2-2.4-0.9-4.6-2.7-6.2
				c-1.2-1.1-2.9-1.7-4.4-0.9c-1.6,1-2.9,2.4-3.3,4.3c-0.4,2,0.1,4.5,1.8,5.9c0.9,0.7,1.7,1.2,2.8,1.1c0.8,0,1.9-0.5,2.3-1.5
				c0.4-0.8,0.5-1.3,0.6-2.2c0.1-0.4,0.1-0.4,0,0.1c0-0.2,0.1-0.4,0.1-0.6c0-0.2,0.1-0.4,0.1-0.6c-0.2,0.5-0.2,0.5,0,0.1
				c0.1-0.2,0.2-0.4,0.3-0.5c-0.3,0.4-0.3,0.4,0,0c-1.5,0.1-2.9,0.2-4.4,0.3c0.6,0.3-0.5-0.5,0,0c0.6,0.6-0.4-0.7,0,0
				c-0.4-0.8-0.1-0.1,0,0.1C263,175.7,263.2,176.5,263.2,176.7L263.2,176.7z"/>
		</g>
	</g>
	<g>
		<g>
			<path class="st5" d="M267.1,174.2c0.5,0.1,0.6-0.6,0.1-0.7C266.8,173.4,266.8,174.1,267.1,174.2L267.1,174.2z"/>
		</g>
	</g>
	<g>
		<g>
			<path class="st5" d="M274.2,176.1c0.5,0.1,0.6-0.6,0.1-0.7C273.9,175.4,273.7,176,274.2,176.1L274.2,176.1z"/>
		</g>
	</g>
	<g>
		<g>
			<path class="st5" d="M278.2,188.2c-0.7-1.1-2.3-1.7-3.1-0.6c-0.9,0.9-0.6,2.7,0.6,3.3c0.9,0.4,1.8,0.8,2.8,0.5
				c0.8-0.3,1.4-0.8,1.8-1.6c0.4-0.8-0.3-1.9-1.3-1.7C278.6,188.1,278.4,188.1,278.2,188.2C278,188.1,278,188.1,278.2,188.2
				C277.9,188.1,277.9,188.1,278.2,188.2c0,0,0,0-0.2,0C278.3,188.3,278.3,188.3,278.2,188.2C278.3,188.3,278.3,188.3,278.2,188.2
				C278.3,188.3,278.2,188.4,278.2,188.2L278.2,188.2z"/>
		</g>
	</g>
	<g>
		<g>
			<path class="st5" d="M278.6,188.8c0.5,0.1,0.6-0.6,0.1-0.7C278.2,188,278.1,188.7,278.6,188.8L278.6,188.8z"/>
		</g>
	</g>
	<g>
		<g>
			<path class="st5" d="M277.8,181.5c0.2-0.4-0.4-0.8-0.6-0.2c0.2-0.4,0.2-0.2,0-0.2c-0.1-0.1-0.2,0-0.3-0.1c-0.3,0-0.5,0-0.8,0
				c-0.9,0-1.9,0.3-2.7,0.8c-0.3,0.1,0,0.8,0.4,0.6c0.9-0.5,1.9-0.8,3-0.8C277.1,181.6,277.7,181.7,277.8,181.5L277.8,181.5z"/>
		</g>
	</g>
	<g>
		<g>
			<path class="st5" d="M284.9,195.4c-1.5-1.7-4.3-1.9-6.2-0.2c-1.6,1.4-1.3,4.6,0.3,6c0.3,0.3,0.6,0.5,0.9,0.8c0,0,0.8,0.8,0.4,0.4
				c-0.6-0.6,1.1,1.5,0.4,0.5c0.4,0.5,0.7,1.1,1.1,1.5c0.7-2,1.5-4,2.2-6c0,0-0.1,0-0.2,0c0.8,0.4,1.6,0.7,2.4,1.1
				c-0.8-0.7-1.1-1.1-1.5-2.1c-0.4-1.3-0.5-2.9-1.7-3.8c-0.9-0.9-2.1-1-3.2-0.2c-1.6,1.1-1.1,3.8-0.7,5.3c0.4,1.6,1.2,3.2,2,4.5
				c-0.1-0.5-0.3-1.1-0.5-1.6c0,0,0,0.1,0,0.2c-0.1,1.9,2,3.7,3.8,3.8c2.1,0.1,3.4-1.5,3.4-3.4C288.1,199.5,286.4,197.2,284.9,195.4
				L284.9,195.4z"/>
		</g>
	</g>
	<g>
		<g>
			<path class="st5" d="M284.4,227.1c0.1-0.7-0.2-1.4-0.9-1.6c-0.6-0.1-1.5,0.1-1.5,0.8c-0.1,1-0.4,1.9-0.9,2.8
				c-0.6,0.9,0.9,2.2,1.7,1.4C283.7,229.5,284.2,228.4,284.4,227.1L284.4,227.1z"/>
		</g>
	</g>
	<g>
		<g>
			<path class="st5" d="M276.9,212.3c-0.1-1.2-1.2-2.3-2.4-2c-1.4,0.1-1.9,1.2-1.6,2.4l0,0.1c0-0.3-0.1-0.7-0.1-1c0,0.1,0.2-0.4,0,0
				c-0.1,0.2-0.2,0.5-0.2,0.7c-0.2,0.9,0.3,1.8,1.1,2.3c0.7,0.4,1.5,0.3,2.2-0.1c0.8-0.4,1.2-1,1.2-1.9c0-3.3-2.4-6.1-5.7-6.7
				c-1.5-0.3-3,0.2-3.7,1.6c-1.1,2.2,0.5,4.6,2.2,5.9c1.4,1,3.1-0.4,2.8-2c-0.1-0.5-0.2-1-0.4-1.4c-0.2-0.5,0.1,0.3,0,0
				c-0.1-0.2,0-0.3-0.1-0.4c-0.1-0.1-0.3-0.8-0.1-0.3c0.1,0.3,0,0,0-0.1c0,0.1-0.1,0.6-0.1,0.3c0.1-0.3-0.2,0.4,0,0.2
				c0.1-0.2-0.4,0.4-0.1,0.2c0.1-0.2-0.5,0.2,0,0c0.1-0.1-0.4,0.1-0.1,0.1c0.1,0,0.1-0.1,0.2-0.1c0.4,0-0.3-0.1,0.1,0
				c0.1,0,0.2,0,0.3,0.1c0.3,0.1-0.2,0,0,0c0.2,0,0.4,0.2,0.6,0.2c-0.4-0.2,0.2,0.1,0.3,0.2c0.1,0,0.2,0,0.3,0.2
				c-0.3-0.3-0.1-0.1,0,0c0.5,0.5,0.8,0.9,0.7,1.8c0.5-0.3,1-0.7,1.4-1c-0.6,0-0.8-0.3,0,0.2c0.3,0.4,0.6,0.8,1,1.2l0,0
				c0,0.5-0.1,0.9-0.1,1.4c-0.7,0.7-0.8,0.8-0.2,0.3c0.1,0,0.1-0.1,0.1-0.1c0.1-0.2,0.3-0.5,0.4-0.6
				C276.9,213.2,276.9,212.8,276.9,212.3L276.9,212.3z"/>
		</g>
	</g>
	<g>
		<g>
			<path class="st5" d="M272.1,223.7c0.4,0.1,0.5-0.6,0.1-0.7C271.7,222.9,271.7,223.6,272.1,223.7L272.1,223.7z"/>
		</g>
	</g>
	<g>
		<g>
			<path class="st5" d="M275.9,225.6c0.5,0.1,0.6-0.7,0.1-0.7C275.5,224.8,275.4,225.5,275.9,225.6L275.9,225.6z"/>
		</g>
	</g>
	<g>
		<g>
			<path class="st5" d="M254.2,199.9c0.3,2.4,2.3,4.4,4.7,4.2c2.3-0.1,4-2.5,3.1-4.7c-0.9-2.4-2.2-5.6-5.3-5.7
				c-1.8-0.1-3.3,1.7-2.7,3.5c1.2,3.2,2.7,6.2,4.4,9.2c0.7,1.3,2.8,1.1,2.8-0.6c0-1.4-0.2-2.8-0.7-4.2c-0.3-1.3-0.9-2.7-0.7-4
				c-1.9-0.6-3.9-1.3-5.8-1.9C253.6,197.2,253.9,198.4,254.2,199.9L254.2,199.9z"/>
		</g>
	</g>
	<g>
		<g>
			<path class="st5" d="M253.5,203c0.3-0.3,0.5-0.7,0.5-1.1c0.1-0.5,0.1-0.9,0-1.3c-0.2-0.6-0.6-1.4-1.3-1.7
				c-1.4-0.9-3.3-0.4-3.6,1.3c-0.2,1-0.2,2,0.3,2.9c0.4,0.8,1.1,1.3,1.9,1.7c0.5,0.2,1.1,0.1,1.5-0.2c0.5-0.3,0.6-0.7,0.7-1.3
				C253.5,203.9,253.5,203.2,253.5,203c0-0.1-0.2,0.6-0.1,0.3c0.2-0.3,0.2-0.5,0.3-0.8C253.7,202.7,253.6,202.9,253.5,203
				c0.1-0.1,0.2-0.3,0.3-0.5c-0.1,0.2-0.3,0.4-0.4,0.5C253.5,203.1,253.5,203,253.5,203L253.5,203z"/>
		</g>
	</g>
	<g>
		<g>
			<path class="st5" d="M241.6,202.7c2,0.4,1.7-2.9-0.2-3.1c-2.2-0.2-4.4-0.2-6.6,0.2c-1.4,0.2-0.8,2.2,0.4,2.2
				C237.3,202,239.5,202.2,241.6,202.7L241.6,202.7z"/>
		</g>
	</g>
	<g>
		<g>
			<path class="st5" d="M232.4,211.8c1.3-0.9,1.5-2.3,0.5-3.5c-0.8-1.1-2.4-1.5-3.6-0.5c-0.9,0.9-1.9,1.9-2.9,2.8
				c-0.8,0.8-0.6,2,0,2.7s1.9,1.3,2.7,0.8C230.2,213.3,231.4,212.6,232.4,211.8L232.4,211.8z"/>
		</g>
	</g>
	<g>
		<g>
			<path class="st5" d="M227.2,199.5c-0.6,0.1-1,0.5-1.1,1.3c0,0.5,0.2,1.1,0.6,1.4c0.4,0.4,1,0.5,1.6,0.2c0.5-0.3,0.7-0.8,0.7-1.3
				c0-0.1,0-0.2,0,0.1c-0.1,0.2-0.2,0.4-0.3,0.5c0.1-0.2,0.3-0.4,0.4-0.4c0.1-0.1,0.2-0.1,0.2-0.2c0.1-0.1-0.2,0.2,0,0
				c0.1-0.2,0.4-0.2,0.5-0.3c0.3-0.1,0.5-0.4,0.7-0.8c0.2-0.5-0.2-1.1-0.6-1.2c-0.4-0.2-0.7-0.2-1.1-0.1c-0.3,0-0.5,0.1-0.8,0.3
				c-0.5,0.2-0.8,0.4-1.2,0.8c0.2-0.1,0.4-0.2,0.6-0.3C227.4,199.5,227.3,199.6,227.2,199.5L227.2,199.5z"/>
		</g>
	</g>
	<g>
		<g>
			<path class="st5" d="M215.9,206.4c0.5,0.1,0.5-0.6,0.1-0.7C215.5,205.6,215.4,206.3,215.9,206.4L215.9,206.4z"/>
		</g>
	</g>
	<g>
		<g>
			<path class="st5" d="M213.6,208.9c0.5,0,0.6-0.5,0.5-0.9c-0.1-0.4-0.6-0.7-1-0.6c-0.5,0.1-1.1,0.2-1.6,0.3
				c-0.4,0-0.6,0.5-0.5,0.8c0.1,0.4,0.5,0.6,0.9,0.6C212.4,209,213,209,213.6,208.9L213.6,208.9z"/>
		</g>
	</g>
	<g>
		<g>
			<path class="st5" d="M207.7,209.6c0.6,0.1,0.6-0.6,0.1-0.7C207.4,208.8,207.2,209.5,207.7,209.6L207.7,209.6z"/>
		</g>
	</g>
	<g>
		<g>
			<path class="st5" d="M177.9,191.7c-1.1,0.1-2,0.3-2.6,1.2c-0.8,0.6-1.1,1.7-1.1,2.7c0.1,2.1,2.1,4.2,4.2,4.2c0.6,0,1.2-0.1,1.8,0
				c-1.5-1.8-2.9-3.5-4.2-5.3c0.2-0.7,0.3-0.8,0.1-0.4c0.4-0.5,0.6-0.7,0.3-0.4c-0.1,0.2-0.4,0.4-0.6,0.6c0.3-0.3,0.6-0.4,0.8-0.6
				c-0.5,0.3-0.9,0.5-1.5,0.7c0.3-0.1,0.7-0.3,1-0.4c-0.8,0.3-1.4,0.4-2.1,0.9c1.8,0.4,3.4,0.7,5.2,1.1c-0.1-0.1-0.2-0.1-0.3-0.3
				c0.3,0.9,0.8,1.7,1.1,2.6c0,0.6,0,0.7,0,0.4c0.4-1.8-0.8-3.2-2.3-3.8c-0.5-0.2-1.1-0.3-1.7-0.3c-2.4-0.3-4.1,1.7-4.1,4
				c0,2.2,2.2,4.5,4.5,4.6c3.7,0,6.4-2.8,7.4-6.2c0.6-2.3-1.7-5.5-4.2-5.3C179.1,191.6,178.5,191.6,177.9,191.7L177.9,191.7z"/>
		</g>
	</g>
	<g>
		<g>
			<path class="st5" d="M188.6,180.1c0.3,1.3,1.8,2.2,2.9,1.9c1.4-0.2,1.8-1.6,1.6-2.8c0-0.3-0.1-0.5-0.1-0.8
				c-0.2-1.2-0.8-2.2-1.9-2.5c-1.6-0.4-3.3-0.4-4.9,0.3c-0.8,0.4-1.6,0.9-2.1,1.7c-0.5,0.8-0.5,1.8-0.3,2.8c0.1,0.8,1.3,1.8,2.2,1.8
				c0.7-0.1,1.4-0.1,1.9-0.3c0.4-0.1,0.8-0.4,1.2-0.7c0.2-0.2,0.4-0.2,0.1-0.1c0.4-0.2,0.8-0.4,1.2-0.6c-0.3,0.1,0.2-0.1,0.3,0
				c0.2-0.1,0.4-0.1,0.6-0.2c-1-0.6-2.1-1.3-3.1-2C188.4,179.1,188.5,179.5,188.6,180.1L188.6,180.1z"/>
		</g>
	</g>
	<g>
		<g>
			<path class="st5" d="M188.7,171.3c1-0.9-0.6-2.3-1.5-1.5c-4.3,3.2-13,5.1-13.4,11.5c0,1.7,2.4,2.5,3.4,1.1c1.5-2.3,3-4.3,5.1-6.1
				C184.4,174.5,186.8,173,188.7,171.3L188.7,171.3z"/>
		</g>
	</g>
	<g>
		<g>
			<path class="st5" d="M179.9,184c-1.3-1.2-2.5,0.6-1.2,1.7c1.8,1.4,3.8,2.4,5.4,3.9c0.8,0.7,1.7,1.6,1.6,2.7
				c-0.1,1.1-1.1,1.9-1.2,3c-0.2,1.5,1.3,2.6,2.6,1.7c2.3-1.8,0.6-5.5-0.8-7.3C184.6,187.3,182.1,185.9,179.9,184L179.9,184z"/>
		</g>
	</g>
	<g>
		<g>
			<path class="st5" d="M188.8,192.8c0.5,0.1,0.6-0.6,0.1-0.7C188.4,192.1,188.3,192.7,188.8,192.8L188.8,192.8z"/>
		</g>
	</g>
	<g>
		<g>
			<path class="st5" d="M264.4,258.1c-1.2,0.8-1.9,1.8-1.8,3.2c0,1.3,0.7,2.4,1.7,3.2c1.8,1.5,5.5,1.3,5.9-1.6c0.3-2,0.9-3.9,1-5.9
				c0-1.9-2.6-3-3.9-1.8c-0.6,0.6-1.1,1.1-1.7,1.7c-0.3,0.4-0.5,0.6-0.9,0.9C264.6,257.9,263.9,258.5,264.4,258.1L264.4,258.1z"/>
		</g>
	</g>
	<g>
		<g>
			<path class="st5" d="M272.2,254.1c0.5,0.1,0.6-0.6,0.1-0.7C271.9,253.3,271.7,254,272.2,254.1L272.2,254.1z"/>
		</g>
	</g>
	<g>
		<g>
			<path class="st5" d="M276.2,242.7c0.5,0.1,0.6-0.6,0.1-0.7C275.8,241.9,275.7,242.6,276.2,242.7L276.2,242.7z"/>
		</g>
	</g>
	<g>
		<g>
			<path class="st5" d="M261.3,249.2c2-0.6,0.9-3.7-0.9-3.1c-3.5,1-8.2-0.7-11.3-2.1c-2.2-0.9-5.6-3.2-7.7-1.3
				c-1.9,1.7,0.8,4.2,2.7,3.5c2-0.8,6.7,0.7,8.6,1.4C255.4,248.6,258.3,250,261.3,249.2L261.3,249.2z"/>
		</g>
	</g>
	<g>
		<g>
			<path class="st5" d="M248.1,249.4c0.8-2.7-1.6-5.4-4-5.8c-2.9-0.6-4.8,1.4-4.9,4.1c0.1-0.5,0,0.7-0.1,0.8c-0.1,0.5-0.2,1-0.3,1.5
				c-0.2,0.9-0.2,1.9-0.4,2.9c-0.2,1.7,0.5,3.3,1.9,4.2c1.2,0.8,3.3,0.9,4.2-0.3c0.8-1.1,1.8-2.1,2.2-3.3
				C247.3,252.1,247.7,250.8,248.1,249.4L248.1,249.4z"/>
		</g>
	</g>
	<g>
		<g>
			<path class="st5" d="M241.9,259.1c0.5,0.1,0.5-0.5,0.1-0.7C241.6,258.3,241.5,259,241.9,259.1L241.9,259.1z"/>
		</g>
	</g>
	<g>
		<g>
			<path class="st5" d="M236.2,253.3c2.8,0.1,2.4-4.2-0.2-4.2c-2.1,0-4.3-0.1-6.4-0.2c-1,0-2.3,0.1-3.1-0.6c-0.8-0.7-0.9-1.5-2-2
				c-1.9-1-4.2,0.8-2.9,2.9c1.4,2.3,4.3,2.5,6.7,3.3C230.7,253.3,233.4,253.3,236.2,253.3L236.2,253.3z"/>
		</g>
	</g>
	<g>
		<g>
			<path class="st5" d="M273.3,287.5c0.2,2.4,2.6,4.5,4.9,4c2.6-0.5,3.2-3.3,2.1-5.4c-0.7-1.4-2-2.4-3.5-2.8c-1.4-0.3-3,0.1-3.8,1.4
				c-0.6,0.8-0.8,2-0.9,3c-0.1,1-0.2,2,0.4,2.9c0.4,0.7,1.4,1.3,2.1,1c1.3-0.4,2.4-1.3,3.5-2.2c-0.5,0.3-1,0.5-1.5,0.8
				c0.6-0.1,0.2-0.2-1.1-0.1c-0.5-0.3-0.9-0.6-1.4-0.9C273.6,288.8,273.3,288.2,273.3,287.5C273.3,287.3,273.3,287.2,273.3,287.5
				L273.3,287.5z"/>
		</g>
	</g>
	<g>
		<g>
			<path class="st5" d="M275.6,298c-0.1-1.4-2.3-1.7-2.1-0.1c0,1,0.1,2-0.1,2.9c-0.1,0.4-0.1,0.7-0.3,1.1c-0.1,0.2-0.3,0.4-0.2,0.3
				c-0.7,0.4-0.4,1.6,0.3,1.8C276.5,304.6,275.9,299.8,275.6,298L275.6,298z"/>
		</g>
	</g>
	<g>
		<g>
			<path class="st5" d="M272.1,302c0.5,0.1,0.6-0.6,0.1-0.7C271.7,301.3,271.6,301.9,272.1,302L272.1,302z"/>
		</g>
	</g>
	<g>
		<g>
			<path class="st5" d="M264.9,298.2c2.2,1.9,5.4,2.5,7.2,0c1.8-2.5,0.5-5.7-1.8-7.3c-3.2-2.2-7.7-4.6-11.8-4.2
				c-1.3,0.2-1.8,1.6-1.5,2.7C258.2,293.1,262.1,295.8,264.9,298.2L264.9,298.2z"/>
		</g>
	</g>
	<g>
		<g>
			<path class="st5" d="M284.8,301.5c0.6-0.3,0-0.9-0.4-0.8c-2.8,0.2-4.4,2.7-3.8,5.5c0.5,2.2,4.2,1.7,3.4-0.6
				c-0.1-0.4-0.3-0.9-0.4-1.3c-0.3-0.9-2-1.7-2.5-0.5c-0.2,0.5-0.4,1-0.5,1.5c1.1,0,2.3,0.2,3.4,0.2
				C283.7,303.8,282.9,302.2,284.8,301.5L284.8,301.5z"/>
		</g>
	</g>
	<g>
		<g>
			<path class="st5" d="M303.9,160.2c-0.2,1.4,0.7,2.7,2.1,2.9c0.6,0.1,1.3,0,1.8-0.5c0.5-0.5,0.6-1,0.6-1.6c0-0.1,0-0.1,0-0.2
				c0.1,0.2,0,0.4,0,0.6c0-0.1,0.1-0.3,0.1-0.5c0,0.2-0.2,0.4-0.2,0.6c0,0,0.1-0.1,0.1-0.2c0,0.2-0.2,0.3-0.3,0.5l0.1-0.1
				c-0.1,0.1-0.4,0.2-0.5,0.3c0-0.1,0.1-0.1,0.1-0.1c-0.2,0.1-0.3,0.1-0.5,0.2l0.1,0c-0.1,0-0.3,0-0.5,0c0.1,0,0.1,0,0.2,0
				c-0.2,0-0.4-0.1-0.6-0.1c0.1,0,0.1,0,0.1,0c-0.5-1-1-2.1-1.5-3.3c-0.5,0.8-0.8,1.7-0.6,2.6c0.1,0.6,0.4,1.2,0.9,1.5
				c0.5,0.3,1.1,0.3,1.6,0.1c0.3-0.1,0.7-0.4,1.1-0.7c0.3-0.4,0.6-0.8,0.8-1.2c0.3-0.5,0.3-1.4,0-1.9c-0.4-0.7-0.9-1.2-1.5-1.4
				c-0.9-0.4-2-0.2-2.6,0.5C304.3,158.8,304,159.5,303.9,160.2L303.9,160.2z"/>
		</g>
	</g>
	<g>
		<g>
			<path class="st5" d="M287.6,157c-0.8,1.8-0.1,3.5,1.5,4.6c1.4,0.9,3.7,0.8,4.5-0.9c1.1-2.5,1-5.3-1.1-7.4
				c-0.9-0.9-2.3-1.4-3.6-0.9c-1.2,0.5-2,1.6-1.9,2.9c0,1.4,0.5,2.7,1.2,4c0.2,0.4,0.6,0.7,0.8,1.1c0.1,0,0.2,0.1,0.3,0.3
				c-0.4-0.6-0.3-0.5,0.3,0.3c0.9,0.9,2.1,1.1,3.2,0.7c0.9-0.3,1.3-1.4,1.3-2.2c0-0.8-0.2-1.5-0.4-2.2c-0.1-0.1,0-0.3-0.1-0.4
				c0-0.1-0.1-0.5,0-0.1c0.1,0.5,0-0.1,0-0.2c0-0.3,0-0.1,0,0.1C291.6,156.7,289.6,156.8,287.6,157c0.2,0,0.2,0.4,0.4,0.5
				c-0.2-0.5-0.3-0.6-0.2-0.4c0.1,0.2,0,0.1-0.1-0.4c0.1,0.6,0.2-0.6,0,0C287.6,156.8,287.6,157,287.6,157
				C287.7,156.7,287.8,156.6,287.6,157L287.6,157z"/>
		</g>
	</g>
	<g>
		<g>
			<path class="st5" d="M294.4,175.1c1.8-3.1-3.4-6.5-5.2-3.2c-0.8,1.3-1.5,2.5-2.3,3.8c-0.9,1.4-1.4,3.4,0.3,4.6
				C290.4,182.4,293.1,177.3,294.4,175.1L294.4,175.1z"/>
		</g>
	</g>
	<g>
		<g>
			<path class="st5" d="M267.7,114.6c-0.2,2.9,4.8,3.6,4.9,0.4c0.1-2.3-0.8-4.5-2.6-5.9c-1.1-0.9-2.8-1.2-3.7,0.3
				c-1.8,2.9-1.2,7,0.2,9.8c0.5,0.9,2.3,1.1,2.6-0.2c0.4-2.5,0-4.8,1.4-7.1c-1.2,0.1-2.5,0.2-3.7,0.3
				C267.8,112.9,267.9,113.5,267.7,114.6L267.7,114.6z"/>
		</g>
	</g>
	<g>
		<g>
			<path class="st5" d="M275.6,133.3c0.7-2.1-1.4-4.4-3.3-4.7c-1.1-0.2-2.2,0-3,0.8c-0.6,0.7-0.8,1.5-0.9,2.5
				c-0.1,1.9-0.3,4.1,0.7,5.9c0.6,0.9,2.1,1.8,3.3,1.1C274.2,137.8,274.8,135.3,275.6,133.3L275.6,133.3z"/>
		</g>
	</g>
	<g>
		<g>
			<path class="st6" d="M245.7,127.3c-0.5-0.9-1.8-1.4-2.6-0.9c-0.9,0.4-1.2,1.7-0.6,2.5c0.6,0.7,0.9,1.6,1.6,2.2
				c1,0.7,2,0.5,3.1,0.1c0.7-0.3,0.8-1.2,0.7-1.8c-0.6-2.1-1.4-4.2-2.8-5.9c-0.7-0.9-2.3-0.1-1.9,1c0.6,1.7,1.3,3.3,1.5,5.1
				c0.3-0.5,0.7-1,1.1-1.5c-1.3,0.3,1-0.3,0.5,0.6c0,0.1,0.1,0.1,0-0.1C246.2,128.2,245.9,127.7,245.7,127.3L245.7,127.3z"/>
		</g>
	</g>
	<g>
		<g>
			<path class="st6" d="M230.4,125c0.3,1.7,2.2,2.8,3.5,2.7c1.6-0.1,2.8-1.5,2.8-3.1c-0.1-1-0.2-2.1-0.6-3.1c-2,0.7-4.1,1.4-6,2.1
				c1.4,2,2.6,4.1,4.5,5.6c1.1,0.8,2.8,0.2,3.1-1.1c0.5-2.5-0.7-5.1-1.8-7.4c-0.7-1.5-2.7-2.2-4.3-1.7c-1.6,0.6-2.2,2.2-1.8,3.8
				C230.1,123.5,230.3,124.2,230.4,125L230.4,125z"/>
		</g>
	</g>
	<g>
		<g>
			<path class="st6" d="M231.8,129.9c-0.6-1.1-2.4-1.7-3.5-1.4c-1.2,0.6-1.6,2.3-0.8,3.4c0.6,1,1,0.3,1.2-2.2
				c0.7,0.1,1.3,0.3,1.9,0.4c-0.1,0-0.2-0.1-0.3-0.2c-0.1,0-0.2-0.1-0.3-0.2c0.4,0.3,0.5,0.3,0.3,0.2c-0.1-0.1-0.3-0.3-0.3-0.4
				c-0.4-0.3,0.5,0.7,0.2,0.4c-1.3,1.3-2.4,2.5-3.7,3.6c1.6,0.9,3.4,1.1,5.2,1.1c0.9,0,1.8-0.5,2-1.5c0.2-1.1-0.4-2-1.2-2.6
				c-0.6-0.5-1.4-0.9-2.1-1.1c-0.2-0.1-0.5-0.2-0.7-0.4c-0.2,0-0.4-0.2-0.6-0.2c-0.3-0.1-0.4-0.1-0.1,0c-0.9-0.4-1.9-0.7-2.8-0.2
				c-0.7,0.4-1.1,1-1.3,1.7s0,1.4,0.4,2.1c0.5,1,1.4,1.4,2.5,1.6c0.2,0-0.9-0.3-0.3-0.1c0.1,0.1,0.6,0.1,0.7,0.2c0,0-0.5-0.2-0.2,0
				c0.1,0.1,0.1,0.1,0.2,0.1c0.5,0.2,0.8,0.5,1.3,0.5c1.1,0,2.3-0.7,2.7-1.7C232.6,131.9,232.3,130.9,231.8,129.9L231.8,129.9z"/>
		</g>
	</g>
	<g>
		<g>
			<path class="st6" d="M242.4,140.8c1.4-0.7,2.2-2.1,2.3-3.6c0-0.8-0.3-1.5-0.7-2.2c-0.3-0.6-0.7-1.1-1.3-1.4
				c-0.4-0.5-1-0.7-1.5-0.9c-0.8-0.3-1.5-0.3-2.2-0.1c-1.4,0.3-2.6,1.4-2.9,2.9c-0.1,0.3-0.2,0.6-0.3,0.9c0.1-0.4,0.2-0.7,0.3-1
				c-0.2,0.4-0.4,0.7-0.4,1.1c-0.1,0.3-0.2,0.8-0.1,1.1c0.1,0.2,0,0.3,0,0.4c0,0.7,0.4,1.5,0.8,2c0.3,0.4,0.6,0.6,1,0.9
				c0.3,0.2,0.6,0.2,0.8,0.4c0.2,0,0.5,0.1,0.8,0.2c0.2,0,0.4,0.1,0.6,0.1c0.7,0.1,0.9,0,1.5-0.2C241.5,141.2,242,141,242.4,140.8
				L242.4,140.8z"/>
		</g>
	</g>
	<g>
		<g>
			<path class="st6" d="M202.4,59c0-0.8-0.7-1.6-1.6-1.7c-0.7,0.1-1.5,0.6-1.4,1.4c0.2,1.8,0,3.8,0.7,5.5c0.4,1.1,2.1,1.7,2.5,0.2
				C203.1,62.7,202.6,60.6,202.4,59L202.4,59z"/>
		</g>
	</g>
	<g>
		<g>
			<path class="st6" d="M196.5,67.4c0.7,0.9,2,1,3,0.4c0.8-0.5,1.1-1.9,0.5-2.8c-0.9-1.2-1.8-2-3.4-2.2c-1.1-0.1-1.9,0.6-2.2,1.6
				c-0.3,0.8-0.4,1.5-0.7,2.3c-0.1,0.5-0.5,1-0.8,1.6c1.4,0.1,2.7,0.1,4.1,0.2c-0.5-0.8-1-1.7-1.3-2.7c-0.3-0.7-0.9-1.2-1.6-1.2
				c-0.6,0-1.4,0.3-1.4,1c-0.2,1.3-0.2,2.6-0.2,3.8c0,1.6,2,3.1,3.6,2.3c2.2-1.2,2.1-3.8,2.6-5.9C198.1,66.3,197.3,66.8,196.5,67.4
				C197.2,67.4,196,66.9,196.5,67.4L196.5,67.4z"/>
		</g>
	</g>
	<g>
		<g>
			<path class="st6" d="M194.9,59.2c0.5,0.1,0.6-0.6,0.1-0.7C194.6,58.4,194.5,59.1,194.9,59.2L194.9,59.2z"/>
		</g>
	</g>
	<g>
		<g>
			<path class="st6" d="M224.7,104.5c1.6-0.3,2-2.2,1.3-3.3c-0.3-0.6-0.8-1-1.5-1.2c-0.4-0.1-0.8-0.2-1.2,0c-0.4,0-0.8,0.3-1,0.5
				c-0.2,0.2-0.4,0.4-0.5,0.7c-0.2,0.4-0.2,0.4-0.2,0.9c0,0.8,0.4,1.5,1,1.9C223.3,104.4,224,104.6,224.7,104.5
				c0.2-0.1,0.5-0.2,0.6-0.1c0.3-0.1,0.7-0.3,1.1-0.3c-0.7-0.4-1.5-0.7-2.2-1.1c0.2,0.2,0.3,0.5,0.5,0.6c-0.2-0.5-0.4-1.1-0.6-1.6
				c0.1-0.3,0.3-0.5,0.6-0.7c-0.1,0.1-0.2,0.2-0.4,0.2c-0.1,0.1-0.2,0.3-0.3,0.5c-0.2,0.5-0.1,1.3,0.4,1.7c0.5,0.4,1.1,0.7,1.8,0.6
				c0.6-0.1,1-0.4,1.3-0.9c-0.2,0.2-0.4,0.4-0.6,0.6c0.7-0.4,1-1,1-1.7c0-0.9-0.7-1.7-1.5-1.9c-0.8-0.4-1.7-0.3-2.4-0.5
				c0.2,0,0.4,0.1,0.6,0.1l0,0c0.6,1.1,1.1,2.4,1.6,3.5l0,0C225.6,103.9,225.1,104.2,224.7,104.5L224.7,104.5L224.7,104.5z"/>
		</g>
	</g>
	<g>
		<g>
			<path class="st6" d="M234.3,105c-1,0.1-1.4,1.3-1.5,2.2c0.2,1,1.3,1.7,2.3,1.5c0.1-0.1,0.3-0.1,0.4-0.1c-0.2,0-0.2,0,0,0l0.1,0
				c0.4,0-0.3-0.1,0.1,0c0.1,0.1,0.3,0.2,0.4,0.2c-0.4-0.4-0.8-0.9-1.3-1.3c0-0.2,0.1-0.3,0-0.1c0-0.2,0.1-0.3,0-0.1
				c0.2-0.4,0,0,0,0.1c-0.2,0.4-0.2,0.7-0.4,1c-0.1,0.5,0.3,1.2,0.6,1.5c0.5,0.3,0.9,0.4,1.5,0.2c0.6-0.2,1-0.6,1.4-1.2
				c0.2-0.6,0.3-1.2,0.3-1.7c0-1.1-1-1.7-1.9-2C235.6,104.9,235,104.9,234.3,105L234.3,105z"/>
		</g>
	</g>
	<g>
		<g>
			<path class="st6" d="M213.2,86.4c-0.5,0-0.8,0.1-1.3,0.3c-0.3,0.4-0.4,0.7-0.2,1.2c0.2,1,1.1,1.6,2.1,1.4c0.2-0.1,0.4,0,0.6-0.1
				c-0.3-0.1-0.5,0-0.8-0.1l0.1,0c-0.3-0.9-0.5-1.8-0.9-2.7c-0.5,0.5-1.1,1.2-1,2c0,0.6,0.3,1.2,0.7,1.6c0.2,0.1,0.4,0.3,0.5,0.4
				c0.5,0.3,0.9,0.4,1.6,0.3c0.4,0,1-0.5,1.2-0.9c0.2-0.3,0.2-0.7,0.2-1c0.1-0.5-0.2-1-0.4-1.3c-0.3-0.4-0.7-0.6-1.2-0.8
				c-0.4-0.1-0.7,0-1.1,0c0.2,0,0.3,0,0.5,0c-0.1,0-0.1,0-0.1,0c0.2,0,0.3,0.1,0.5,0.1l0,0c0.1,0,0.3,0.2,0.5,0.2l0,0
				c0.2,0.1,0.3,0.3,0.4,0.4l0,0c0.1,0.2,0.2,0.4,0.3,0.5l0,0c0.1,0.1,0.1,0.3,0.2,0.5c-0.1,0-0.1-0.1-0.1-0.1
				c0.1,0.2,0,0.3,0.1,0.5c0-0.2,0-0.4,0-0.6c0.1,0.1,0,0.3,0,0.4l0-0.1c0.1-0.4,0-0.7-0.1-1c-0.1-0.3-0.3-0.6-0.6-0.7
				C214.4,86.3,213.7,86.2,213.2,86.4C213.1,86.5,213.1,86.5,213.2,86.4c0.2,0,0.5,0,0.7-0.1C213.6,86.4,213.4,86.3,213.2,86.4
				L213.2,86.4z"/>
		</g>
	</g>
	<g>
		<g>
			<path class="st6" d="M188.3,96.1c1.5,0.2,1.3-2,0.2-2.4c-1.4-0.4-2.9-0.9-4.3-1.5c-0.5-0.2-1.1,0-1.5,0.3c0,0.1-0.1,0.1-0.1,0.2
				c-0.3,0.3-0.4,0.7-0.2,1.2c0.4,1.3,1.4,1.4,2.7,1.7C186.1,95.8,187.2,96,188.3,96.1L188.3,96.1z"/>
		</g>
	</g>
	<g>
		<g>
			<path class="st6" d="M170.8,94.2c0.9,0.7,2.2,0.3,2.8-0.6c0.6-1-0.1-2.3-1-2.8c-0.5-0.3-1-0.7-1.4-1c-0.4-0.4-0.8-0.7-1.6-0.9
				c-1.3-0.4-2.5,0.6-2,1.9c0.3,0.9,0.7,1.5,1.4,2C169.5,93.2,170.1,93.7,170.8,94.2L170.8,94.2z"/>
		</g>
	</g>
	<g>
		<g>
			<path class="st6" d="M254.5,168.5c-0.5,0.8,0.6,2.1,1.2,1.5c0.4-0.2,0.8-0.4,0.9-0.9c0-0.6-0.2-1.1-0.6-1.4
				c-0.6-0.4-1.7,0-2.3,0.2c-0.7,0.4-1.4,0.9-1.7,1.7c-0.4,0.7-0.3,1.4,0.2,2c0.4,0.6,1.1,0.9,1.9,0.8c0.6-0.1,1.2-0.4,1.7-0.8
				c0.6-0.4,1.1-0.8,1.4-1.4c0.3-0.5,0.1-1.2-0.3-1.7c-0.4-0.5-1.1-0.5-1.7-0.3c-0.3,0.1,0.2,0-0.1,0.1c-0.2,0.1-0.3,0.1-0.5,0.2
				c-0.2,0.1-0.4,0.2-0.6,0.3c-0.1,0.1-0.2,0.1-0.3,0.1c-0.1,0.1,0.3-0.1,0,0c-0.3,0-0.6,0.2-0.9,0.3c0.9,0.7,1.7,1.5,2.6,2.2
				c0-0.2,0.1-0.3,0.1-0.4c0.1-0.3-0.1,0.2,0,0c0.1-0.2,0.2-0.4,0.3-0.5c0-0.2-0.1,0.1,0-0.1s0.3-0.4,0.4-0.5l0-0.1
				c0,0.1,0,0.1,0,0.1c0.1-0.1,0.1-0.1,0,0c0,0-0.1,0,0,0c-0.1,0.1-0.3,0-0.5,0.1l0,0c-0.4-0.3-0.8-0.7-1.1-0.9l0,0
				c0-0.2,0-0.4,0-0.6c0,0.1,0.1-0.2,0-0.1C254.6,168.3,254.6,168.4,254.5,168.5L254.5,168.5z"/>
		</g>
	</g>
	<g>
		<g>
			<path class="st6" d="M245.9,172.7c1.1-1,0.9-2.8,0-3.8c-0.9-1.2-2.5-1.8-3.9-1.1c-0.6,0.3,0,0.1,0.2,0c0.4,0.1,0.4,0.1,0.2,0
				c-0.1-0.1-0.3-0.2-0.4-0.2c0.9,1.3,1.6,2.7,2.5,4c0.4-0.8,0.4-1.9,0.4-2.8c0.1-2-2.4-3.7-4.1-2.7c-1.7,1-3.7,2-3.7,4.2
				c0,0.9,0.8,1.9,1.6,2.1c1.9,0.5,3.4-0.6,5.1-1.3c-1.1-1.5-2.3-3-3.5-4.5c-0.4,0.3-0.7,0.8-0.8,1.2c-0.2,0.3-0.9,1.4-0.2,0.5
				c-1.2,1.6-1,3.9,0.9,5C242.1,174.6,244.2,174.2,245.9,172.7L245.9,172.7z"/>
		</g>
	</g>
	<g>
		<g>
			<path class="st6" d="M249.4,159.6c0,1.1,1.2,2.1,2.2,2.3c1.1,0.1,1.9-0.9,1.9-2c0-1.8-1.7-3.3-3.5-2.9c-0.8,0.3-1.4,0.6-1.9,1
				c-0.5,0.4-1.1,0.9-1.2,1.6c-0.3,1,0.4,1.9,1.3,2.3c0.3,0.2-0.8-0.4-0.1,0c0.3,0.1,0.5,0.1,0.8,0.2c0.5,0,0.9-0.1,1.3-0.4l0.3-0.3
				c0,0-0.4,0.2,0,0c0.1-0.1,0.2-0.2,0.4-0.2c0-0.1,0.1-0.1,0.2-0.2c0,0,0.5-0.2,0.1-0.1c-0.2,0.2,0,0,0.1,0c0.4,0-0.4-0.1-0.1,0
				C250.4,160.9,249.7,160.3,249.4,159.6C249.4,159.2,249.4,159.4,249.4,159.6L249.4,159.6z"/>
		</g>
	</g>
	<g>
		<g>
			<path class="st6" d="M237.8,158.6c0.1,2.3,3.6,2.8,3.7,0.3c0-1.7-1-3.1-2.5-3.8c-0.6-0.3-1.5-0.7-2-0.9c-0.5-0.2-1.1-0.5-1.5-0.7
				c-1-0.5-2.4-0.2-2.3,1.2c0.1,1.6,1.4,2.6,2.9,3.2c0.5,0.1,1.1,0.3,1.5,0.5C237.3,158.4,238.2,158.9,237.8,158.6
				C237.7,158.5,237.8,158.1,237.8,158.6L237.8,158.6z"/>
		</g>
	</g>
	<g>
		<g>
			<path class="st6" d="M211.1,178.7c1.5-1.9-1.4-5-3-3c-0.8,1.1-1.8,2-2.9,2.7c1,0.4,2.1,0.9,3.1,1.4c-0.2-0.6-0.2-1.2-0.1-1.9
				c0-1.2-1.2-2.9-2.5-2c-2.7,1.7-4.9,4-6.5,6.7c-0.7,1.2,1.1,2.6,2.1,1.7c1-0.8,1.8-1.9,2.7-2.8c0.8-0.9,1.9-2.2,3-2.4
				c-0.6-0.8-1.3-1.7-1.9-2.5c-0.6,1.2-0.8,2.3-0.8,3.6c-0.1,1.3,1.9,2.8,3.2,2C208.8,181.1,210,180,211.1,178.7L211.1,178.7z"/>
		</g>
	</g>
	<g>
		<g>
			<path class="st6" d="M197.4,189c0.9-1.4,0-3.3-1.3-4c-1.4-0.8-3-0.5-3.8,0.9c-0.5,0.7-1.4,1.7-2.1,2.1c1.1,0.2,2.1,0.4,3.1,0.6
				c-0.2-0.2-0.3-0.5-0.5-0.6c-0.3-0.3-0.5-0.7-0.2,0c-0.6-1.6-2.4-2.5-3.8-1.3c-1,0.8-1.7,1.8-2.2,2.9c1.3,0.8,2.6,1.7,3.9,2.4
				c0.5-1.3,1-2.6,1.3-4.1c0.5-1.8-2.1-3.1-3.3-1.5c-0.7,1.1-1.4,2.2-2,3.3c-1.4,2.3,2.6,4.9,3.9,2.4c0.5-0.7,0.9-1.4,1.6-1.9
				c-1.2-0.5-2.6-0.8-3.8-1.3c0.1,0.4,0.3,0.9,0.5,1.3c0.1,0.1,0.2,0.4,0.3,0.5c-0.1-0.2-0.1-0.2,0,0.1c0.3,1.5,1.9,2.2,3.2,2.1
				C194.6,192.5,196.2,190.9,197.4,189L197.4,189z"/>
		</g>
	</g>
	<g>
		<g>
			<path class="st6" d="M197.3,167.2c-1.4,2.7,3.1,5.4,4.3,2.7c0.8-1.7,0.8-2.3,0.4-4.2c-0.3-1.3-1.8-2.1-3-1.9
				c-1.8,0.2-3.4,1-5.3,1c0.7,0.9,1.5,1.8,2.2,2.8c0.5-1.3,0.9-2.6,1.5-3.8c0.6-1.3-0.3-2.8-1.8-2.9c-3.7-0.1-7,1.8-10.6,2.8
				c0.8,0.8,1.6,1.7,2.4,2.4c0.1-0.4,0.2-0.8,0.2-1.2c0.2-1.1-1.3-2.7-2.5-1.9c-2.5,1.8-6,0.9-8.4,3c-2,1.7-2.1,4.3-1.6,6.7
				c0.2,1.1,2.2,1.5,2.3,0.2c0.7-4.3,5.1-6,9-6.8c-0.5-0.9-1.2-1.9-1.7-2.8c-0.3,0.3-0.4,0.6-0.7,0.9c-1.1,1.5,0.1,3.5,1.9,3.2
				c3.3-0.5,6.2-3,9.6-2.6c-0.6-0.9-1.1-2-1.8-2.9c-0.8,1.4-1.6,2.5-2.2,3.9c-0.6,1.5,0.5,3.3,2.1,3.4c2,0.1,3.9-0.5,5.9-0.6
				c-0.7-0.9-1.6-1.7-2.4-2.5C197.5,166.5,197.4,166.8,197.3,167.2L197.3,167.2z"/>
		</g>
	</g>
	<g>
		<g>
			<path class="st6" d="M177.3,175.1c0.5,0.1,0.6-0.7,0.1-0.7C176.9,174.3,176.8,175,177.3,175.1L177.3,175.1z"/>
		</g>
	</g>
	<g>
		<g>
			<path class="st6" d="M194.4,172.6c-1,1.7,1.9,3.7,2.8,1.8c0.2-0.3,0.3-0.5,0.5-0.7c-1-0.6-2-1.2-3-1.8c-0.8,1.6-1.6,3.2-2.5,4.7
				c-1.4,2.3,2.2,5.2,4,3.3c1.3-1.5,2-3.7,1.7-5.6c-0.2-1.8-2.5-3.1-3.7-1.3c-0.7,1.2-1.3,2.4-2.1,3.6c1.6,0.7,3.1,1.4,4.7,2.2
				c0.3-1.9,1-3.8,1.1-5.8c0.1-1.6-2.3-2.5-3.2-1C194.7,172.1,194.6,172.3,194.4,172.6L194.4,172.6z"/>
		</g>
	</g>
	<g>
		<g>
			<path class="st6" d="M219.9,207.2c-0.6,0.6-0.4,1.5,0.2,2.1c0.4,0.5,1.5,0.7,2,0.1c0.3-0.4,0.6-0.8,1-0.9c-0.6-0.7-1-1.5-1.5-2.3
				c-0.4,0.5-0.9,0.9-1.5,1.3c-0.6,0.5-1.4,0.6-1.9,1.2c-0.9,0.9,0,2.1,1.1,2.4c1.9,0.4,3.6-1.7,4.5-3.2c0.7-1.1-0.8-2.4-2-1.9
				C221.1,206.3,220.5,206.7,219.9,207.2L219.9,207.2z"/>
		</g>
	</g>
	<g>
		<g>
			<path class="st6" d="M217.9,204.6c0.5,0.9,1.8,0.1,1.1-0.7c-0.6-0.6-0.4-1.3-0.1-2c0.3-0.5-0.2-1.4-0.8-1.4
				c-1.3-0.1-2.6,0.3-3.6,1.4c-0.8,1,0.3,2.2,1.4,1.8s1.9-0.9,2.8-1.6c-0.4-0.4-0.9-0.7-1.3-1.1
				C217.1,202.3,217.3,203.5,217.9,204.6L217.9,204.6z"/>
		</g>
	</g>
	<g>
		<g>
			<path class="st6" d="M241.3,193.6c0,3,4.9,3.6,5.1,0.4c-0.1-2,0.5-4,0.3-6c-0.2-2.9-4.3-4.1-5.3-1.1c-0.8,2.4,0.7,5.9,3.7,5.2
				c1.3-0.3,2-1.4,1.7-2.7c0-0.1-0.5-1.1-0.6-1.1c0.1-0.1,0.1,0.8,0.1,0.8c-0.1,0,0.1-0.6,0.1-0.6c-1.7-0.1-3.4-0.2-5.1-0.3
				C241.9,189.9,241.2,191.9,241.3,193.6L241.3,193.6z"/>
		</g>
	</g>
	<g>
		<g>
			<path class="st6" d="M249.3,192.3c0.5,0.1,0.5-0.5,0.1-0.7C248.9,191.5,248.9,192.2,249.3,192.3L249.3,192.3z"/>
		</g>
	</g>
	<g>
		<g>
			<path class="st6" d="M253.4,190c-0.7,0.9,0.8,2.1,1.3,1c0.4-0.5,0.8-1.1,0.9-1.8c0-0.6-0.7-1.4-1.3-0.8c-1.4,1.7-2,3.4-2.5,5.4
				c-0.3,0.9,1.2,1.7,1.6,0.7c0.4-0.7,0.6-1.5,0.8-2.4c0.3-0.9,0.5-1.9,1.2-2.6c-0.5-0.3-0.8-0.5-1.3-0.8
				C254.1,189.3,253.7,189.6,253.4,190L253.4,190z"/>
		</g>
	</g>
	<g>
		<g>
			<path class="st6" d="M241.5,209.7c0.3-0.9,0-1.8-0.5-2.9c-0.5-0.8-1.3-1.5-2.3-1.8c-0.8-0.3-1.8-0.2-2.6,0.2
				c-0.8,0.4-1.4,1.2-1.5,2c-0.1,0.5-0.2,0.9-0.3,1.4c-0.3,2.1,1,4,3.1,4.4c1,0.2,2.1,0,2.8-0.8c0.6-0.7,0.9-1.4,0.9-2.4l0-0.1
				c-0.1,0.6-0.2,1.1-0.3,1.7c0.4-0.8,0.7-1.6,1-2.4c0.3-0.8-0.1-1.6-0.4-2.3c-0.4-0.7-1-1.1-1.6-1.5c-1.3-0.6-3.1-0.3-3.8,1.1
				c0,0.2-0.1,0.3-0.2,0.4c0.1-0.2,0.3-0.5,0.4-0.6c-0.3,0.4-0.6,0.7-0.8,1.1c-0.3,0.4-0.3,0.6-0.5,1.1c-0.2,0.6-0.1,1.3,0.2,1.9
				c0.3,0.6,0.6,0.9,1.1,1.3c1,0.7,2.3,1.1,3.4,0.5c0.8-0.4,1.4-1.2,1.8-1.9c-0.1,0.2-0.3,0.5-0.4,0.6c0.1-0.1,0.1-0.2,0.3-0.3
				c-1.7-1.4-3.4-2.7-5.1-4.1c0,0.2-0.2,0.4-0.3,0.5c0.1-0.2,0.3-0.5,0.4-0.6c-0.3,0.4-0.6,0.7-0.8,1c0.5-0.3,1-0.5,1.5-0.8
				c0,0.1-0.1,0.1-0.1,0.1c1.4,1.8,2.8,3.5,4.1,5.3C241,211.1,241.2,210.4,241.5,209.7L241.5,209.7z"/>
		</g>
	</g>
	<g>
		<g>
			<path class="st6" d="M275.6,224.8c0.3-1.8-0.9-3.6-2.8-3.8c-1.9-0.4-3.2,0.9-3.3,2.7c-0.1,1.9,0.7,3.9,2.2,5.2
				c1.3,1.1,3.4,1.4,4.4-0.3c1-1.9,1.2-4,0.2-6.1c-0.5-1-1.8-1.6-3-1.4c-1.2,0.2-1.8,1.3-1.8,2.4c0,0.8,0.2,1.6,0.7,2.2
				c0.6,0.7,1.7,1.6,2.7,0.9c0.5-0.2,0.8-0.5,1.2-0.9c-1.4-0.5-3-1-4.4-1.5c0.1,0.1,0.1,0.2,0.1,0.3c0-0.3-0.1-0.4-0.1-0.2
				c0.1,0.1,0.1,0.2,0,0.3c0-0.2,0.1-0.3,0-0.1c0,0.1,0,0.2-0.1,0.3c0.2-0.3,0.2-0.3,0,0c0,0.1-0.1,0.1-0.1,0.2c0.3-0.3,0.3-0.3,0,0
				c1.5,0.3,2.9,0.6,4.4,0.9c0-0.1-0.4-0.7-0.4-0.7c0.1,0.4,0.2,0.5,0.1,0.2c0,0-0.1-0.1-0.1-0.2c-0.2-0.7,0,0.5,0-0.1
				C275.7,225,275.6,224.8,275.6,224.8C275.6,225.1,275.6,225.1,275.6,224.8L275.6,224.8z"/>
		</g>
	</g>
	<g>
		<g>
			<path class="st6" d="M281.2,218.4c-0.3,1.4,1.8,2.4,2.4,1.3c1-1.7,0.5-4-1.3-5c-1.9-1-4.2,0.1-4.5,2.2c-0.1,1.1,0.7,2.3,1.9,2.3
				c1.2,0.1,2.4-0.7,2.3-2.1c-0.1-1-0.9-1.5-1.8-1.5c-0.1,0.1-0.3,0.1-0.4,0.1c0.3,0-0.2,0-0.2,0c0.7,0.7,1.2,1.6,1.9,2.3
				c0-0.1,0.1-0.6,0.1-0.3c-0.2,0.3,0-0.1,0-0.1c0-0.1-0.3,0.4,0,0.1c0.3-0.3-0.2,0.2-0.1,0.1c0.3-0.3-0.2,0.1-0.1,0
				c0.1-0.1,0.4-0.1,0.1-0.1c-0.3,0,0.5,0.1,0.2,0c-0.1,0-0.1,0,0,0s0.1,0-0.2-0.1l0.3,0.2c0,0-0.5-0.3-0.1,0
				c-0.1-0.1-0.1-0.1-0.2-0.2c0,0,0.1,0,0.1,0.1c-0.1,0,0-0.3,0,0c-0.1-0.2,0,0,0,0.1C281.3,217.9,281.3,218.1,281.2,218.4
				L281.2,218.4z"/>
		</g>
	</g>
	<g>
		<g>
			<path class="st6" d="M266.5,195.8c-1.3-0.3-1.2,1.5-0.1,1.7c0.2,0-0.1-0.2,0,0s0,0.4,0,0.5c0,0.3,0,0.7-0.1,1
				c-0.1,1-0.1,1.8,0.3,2.7c0.4,1,1.7,1.8,2.6,0.8c1.9-2-0.4-5.4-1.5-7.1c-0.6-1-2.1-0.6-1.9,0.6c0.1,0.9,0.6,1.6,0.8,2.5
				c0,0.4,0.3,0.8,0.3,1.2c0,0.1,0,0.3,0,0.4c0-0.1,0.4-0.3,0,0c0.8,0.2,1.7,0.3,2.4,0.5C268.3,199,268.9,196.3,266.5,195.8
				L266.5,195.8z"/>
		</g>
	</g>
	<g>
		<g>
			<path class="st6" d="M281.5,242.1c0.8-0.6,0.6-1.9,0-2.9c-0.8-0.7-2-0.8-2.7-0.1c-0.8,0.8-1.7,1.3-2.8,1.8c0.9,1,1.8,1.9,2.7,2.8
				c0.5-0.8,0.9-1.8,1.7-2.2c-1-1-2-1.9-2.9-2.9c-0.5,1-0.8,2.1-1.2,3.1c-0.2,0.7,0.3,1.6,0.8,1.9c0.6,0.4,1.4,0.4,2-0.1
				c1.1-0.8,1.8-1.9,2.2-3.1c0.2-1-0.5-2-1.3-2.4c-0.9-0.4-1.9-0.1-2.5,0.7c-0.6,1-1.4,2-2.1,3c-0.5,0.7-0.1,1.8,0.4,2.3
				c0.6,0.6,1.5,0.8,2.3,0.5C279.2,243.9,280.4,243,281.5,242.1L281.5,242.1z"/>
		</g>
	</g>
	<g>
		<g>
			<path class="st6" d="M269.2,247.3c-0.8-0.1-1.6,0.6-1.5,1.4c0,0.9,0.8,1.7,1.7,1.8c0.4,0.1,0.7,0,1.1,0.1
				c-0.5-0.8-1.1-1.7-1.6-2.6c-0.6,1.2-1.6,2-2.2,3.2c-0.5,1.1,0.6,2.8,1.9,2.4c0.7-0.2,1.4-0.4,2.1-0.8c1.2-0.7,0.5-2.4-0.7-2.5
				c-0.8-0.1-1.5,0-2.3,0.1c0.5,0.8,1.2,1.6,1.9,2.4c0.6-1.1,1.9-1.9,2.4-3.1c0.4-1-0.3-2.5-1.6-2.6
				C269.9,247.3,269.5,247.2,269.2,247.3L269.2,247.3z"/>
		</g>
	</g>
	<g>
		<g>
			<path class="st6" d="M278.6,260.2c0.6-0.4,1-0.8,1-1.5c0.2-0.7,0-1.4-0.3-2c-0.7-1.2-2.4-2-3.6-1.2c-0.5,0.3-1.1,0.7-1.5,1.2
				c-0.6,0.7-0.9,1.3-1.1,2.1c-0.4,0.8,0.2,2,0.8,2.6c0.6,0.5,1.7,1.2,2.6,0.8c1.3-0.4,2.6-1.1,3.6-2.2c-1.3-1.4-2.8-2.8-4.1-4.2
				c-0.4,0.5-0.9,1-1.4,1.4c0.2-0.1,0.4-0.2,0.6-0.4c-0.6,0.4-1.3,0.7-1.8,1.2c1.6,0.8,3.3,1.6,4.8,2.3c0-0.7,0-1.4-0.5-2.1
				c-0.5-0.8-1.3-1.4-2.4-1.2c-0.8,0-1.2,0.6-1.8,1.1c-0.8,0.8-0.8,2.1-0.4,3c0.5,0.9,1.6,1.8,2.7,1.9c0.7-0.1,1.5-0.1,2-0.5
				c0.4-0.2,0.8-0.5,1.2-0.9c0.6-0.6,1.2-1.3,1.6-2c0.8-1.2,0.1-2.8-0.9-3.7c-0.5-0.3-1.1-0.6-1.7-0.7c-0.6,0-1.6,0.2-2,0.7
				c-0.3,0.4-0.6,0.7-1,1c-0.2,0.2,0.6-0.3,0.1-0.1c0,0.1-0.1,0.1-0.2,0.2c-0.1,0.2-0.4,0.2-0.6,0.3c1.4,1.1,2.7,2.2,4.1,3.3
				c0.1-0.6-0.3,0.5,0,0C278.5,260.5,278.7,260.2,278.6,260.2c-0.2,0.3-0.3,0.4-0.1,0.2C278.6,260.3,278.6,260.3,278.6,260.2
				C278.8,260.1,279.2,259.8,278.6,260.2L278.6,260.2z"/>
		</g>
	</g>
	<g>
		<g>
			<path class="st6" d="M298,213.4c0.3,3.2,5.3,4,5.2,0.4c0-0.3,0-0.6,0-0.9c0-1.4-1.2-2.6-2.5-2.9c-1.5-0.3-2.5,0.5-2.9,1.8
				c-0.8,2.2-1.5,4.6-1.4,6.9c0,1.3,1,2.6,2.3,2.9c1.1,0.4,2.7,0,3.2-1.1c1-2.3,1.6-5.3-0.5-7.1c-1-0.8-2.1-0.8-2.8,0.1
				s-0.7,2.2-1.4,3.2c1.6,0.9,3.3,2,4.9,3c0.5-2,0.6-4.2,1.2-6.2c-1.8-0.4-3.6-0.7-5.4-1.1C298,212.8,298,213.1,298,213.4L298,213.4
				z"/>
		</g>
	</g>
	<g>
		<g>
			<path class="st6" d="M305.6,201.7c0.6,0.5,1.8,0.3,2.2-0.5c0.4-0.8-0.1-1.7-0.8-2.3c-0.1-0.1,0.6,0.4,0.5,0.6c0,0,0-0.4,0-0.5
				c0-0.3,0-0.7,0-1c0.1-0.4,0.1-0.8,0-1.2c-0.1-0.2-0.1-0.5-0.2-0.7c0,0.3-0.1-0.4-0.1-0.5c-0.3-1.2-1.9-2-3-1.4
				c-1.7,1-2.5,3.3-1.2,5c0.2,0.4,0.9,0.6,1.3,0.5c1.1-0.3,2-1.5,2.7-2.5c-1,0-2.1,0.1-3.1,0.2c-0.5-0.7-0.1-0.2,0,0.2
				c-0.1-0.2,0,0.5,0,0.4c0,0.4,0.1,0.8,0.2,1.3C304.4,200.1,304.8,201,305.6,201.7L305.6,201.7z"/>
		</g>
	</g>
	<g>
		<g>
			<path class="st6" d="M307.5,179.4c-0.1,1.1,0.4,2.3,1.6,2.6c1,0.3,2.4-0.1,2.5-1.3c0.3-2.7,1.2-5.8,0.1-8.5
				c-0.7-1.6-2.4-2.5-3.9-1.3c-1.7,1.4-2.5,3.6-2.8,5.7c0.7-0.5,1.4-1,2.1-1.5c0.8,0.6,1.1,0.7,0.6,0.3c-0.5-0.6-1.7-1-2.4-0.2
				c-0.8,1.2-0.8,2.7,0.4,3.6c0.9,0.9,2.8,1.3,3.5-0.2c0.7-1.4,0.9-3.1,2-4.2c-1.2-0.2-2.4-0.5-3.6-0.7
				C308.5,175.4,307.8,177.8,307.5,179.4L307.5,179.4z"/>
		</g>
	</g>
	<g>
		<g>
			<path class="st6" d="M296.1,165.3c-0.2,1.3,0.5,2.4,1.7,2.8c1,0.4,2.4-0.2,2.6-1.4c0.4-1.8-0.1-3.4-1.4-4.8
				c-0.8-0.9-2.3-1.1-3.2-0.2c-0.5,0.5-0.9,0.9-1.3,1.5c-0.6,0.8-0.9,1.4-1.2,2.3c1.4-0.1,2.7-0.2,4-0.3c0,0-0.3-0.6-0.2-0.2
				c-0.1-0.2-0.1-0.4-0.2-0.6c-0.1-0.2,0-0.8-0.1-1.1c0-1.5-2.1-2.4-3-1c-0.8,1.4-0.8,2.9-0.5,4.4c0.3,1.5,2.6,2.6,3.7,1.3
				c0.4-0.5,0.7-1.1,1.1-1.6c0.3-0.4,0,0.1,0.3-0.3c0.2-0.2,0.4-0.4,0.6-0.7c-1.1-0.1-2.1-0.1-3.2-0.2c0.4,0.5-0.1-0.3,0.1,0.1
				c0.3,0.5,0-0.3,0,0c0.1,0.2,0-0.4,0,0C296.1,165.1,296,165.7,296.1,165.3L296.1,165.3z"/>
		</g>
	</g>
	<g>
		<g>
			<path class="st6" d="M269.9,160.8c1.2,2.2,4.4,0.7,3.2-1.6c-1.3-2.6-2.6-5.1-4.1-7.7c-0.7-1.4-3.2-1.6-3.5,0.2
				c-0.6,3,0.7,5.9,1.3,8.8c1.2-0.5,2.4-0.8,3.6-1.3c-2.9-6.2-4.8-12.8-7.8-19c-0.6-1.4-2.9-0.7-2.4,0.8c2.2,6.8,3.8,13.4,6.8,19.9
				c0.8,1.7,3.9,1.3,3.7-0.8c-0.3-2.6-1.5-5.1-1.4-7.8c-1.2,0.3-2.3,0.4-3.5,0.7C267.1,155.6,268.5,158.2,269.9,160.8L269.9,160.8z"
				/>
		</g>
	</g>
	<g>
		<g>
			<path class="st6" d="M253.4,145.8c1.3,0.9,2.2-1.1,1.1-1.8c-2.1-1.2-4.9-2.8-4.5-5.7c0.1-0.7-0.9-1.6-1.5-0.9
				C245.7,140.6,251.2,144.2,253.4,145.8L253.4,145.8z"/>
		</g>
	</g>
	<g>
		<g>
			<path class="st6" d="M247.9,133.7c0.5,0.1,0.5-0.6,0.1-0.7C247.6,132.9,247.5,133.6,247.9,133.7L247.9,133.7z"/>
		</g>
	</g>
	<g>
		<g>
			<path class="st6" d="M262.4,112c-0.5-1.7-2.4-2.8-4.4-2.7c-1.7,0.3-2.6,2.3-2.1,3.9c0.6,1.6,1.3,3.2,2.2,4.6
				c0.8,1.1,2.1,1.9,3.4,1.6c1.4-0.3,2-1.4,2.1-2.7c0.1-0.3,0.1-0.3,0-0.1c0-0.1,0.1-0.3,0.1-0.4c0-0.4,0.1-0.8,0-1.2
				c0-0.6-0.1-1.4-0.3-2c-0.4-1.5-1.4-3.1-3.1-3.5c-0.8-0.2-1.7,0.2-2,0.9c-0.5,0.8-0.2,1.6,0,2.4c0.2,0.5,0.3,0.7,0.3,1.3
				c0.1-0.3-0.1,0.5-0.1,0.5c0,0.7,0.5-0.6,0-0.1c1.7,0.6,3.4,1.1,5.1,1.6C263.2,114.7,262.8,113.4,262.4,112L262.4,112z"/>
		</g>
	</g>
	<g>
		<g>
			<path class="st6" d="M255.8,104.1c0.5-0.1,0.9-0.5,0.9-1.1c0.1-0.3,0-0.5-0.1-0.7c-0.1-0.1-0.1-0.3-0.3-0.5
				c-0.1-0.1-0.3-0.3-0.4-0.4c-0.2-0.1-0.4-0.2-0.7-0.2c-0.2,0.1-0.4,0.1-0.6,0.2c-0.2,0.2-0.4,0.3-0.5,0.5c0,0.1-0.1,0.2-0.2,0.3
				c0,0.2-0.1,0.3-0.1,0.5c0,0.1,0,0.2,0,0.3c0.1,0.1,0.1,0.2,0.1,0.3c0,0.1,0.1,0.2,0.1,0.3c0.1,0.1,0.2,0.2,0.3,0.4
				c0.1,0,0.2,0.1,0.3,0.2c0.1,0,0.2,0,0.3,0.1c0.1,0,0.2-0.1,0.3,0C255.6,104.2,255.7,104.1,255.8,104.1L255.8,104.1z"/>
		</g>
	</g>
	<g>
		<g>
			<path class="st6" d="M250.7,100.9c0.5,0.1,0.6-0.6,0.1-0.7C250.4,100.2,250.2,100.8,250.7,100.9L250.7,100.9z"/>
		</g>
	</g>
	<g>
		<g>
			<path class="st6" d="M246.8,103.3c0.4,0.1,0.5-0.5,0.1-0.7C246.4,102.5,246.4,103.2,246.8,103.3L246.8,103.3z"/>
		</g>
	</g>
	<g>
		<g>
			<path class="st6" d="M236.5,80.2c-1.4-0.3-2.9,0.7-3.6,1.8c-0.8,1.4-0.6,2.9,0.2,4.2c0.7,1.4,2.2,2.3,3.8,2.4
				c1.5,0.1,2.8-0.7,3.6-1.9c0.5-0.7,0.7-1.5,0.7-2.4c0-0.8-0.4-1.5-0.8-2.3c-0.4-0.9-1.1-1.6-1.9-2.1c-1.5-1-4-1.2-5,0.7
				c-0.5,0.7-0.4,1.6-0.2,2.4c0.3,0.8,0.8,1.3,1.2,1.9c-0.2-0.2-0.4-0.5-0.6-0.7c0.1,0.1,0.2,0.2,0.2,0.4c0-0.3-0.2-0.5-0.3-0.9
				c0,0.1,0.1,0.1,0.1,0.2c0-0.3-0.1-0.6-0.1-0.9c0.1,0,0.1,0.1,0.1,0.2c0.1-0.3,0-0.6,0.1-0.9c0,0.2-0.1,0.4-0.1,0.6
				c0.1-0.3,0.2-0.6,0.3-0.9l0,0.1c1-0.5,2.2-1.1,3.2-1.7C237,80.3,236.7,80.2,236.5,80.2L236.5,80.2z"/>
		</g>
	</g>
	<g>
		<g>
			<path class="st6" d="M234.2,91.1c0.5,0.1,0.6-0.6,0.1-0.7C233.8,90.3,233.7,91,234.2,91.1L234.2,91.1z"/>
		</g>
	</g>
	<g>
		<g>
			<path class="st6" d="M250,104.6c0.5,0.1,0.6-0.6,0.1-0.7C249.6,103.8,249.5,104.5,250,104.6L250,104.6z"/>
		</g>
	</g>
	<g>
		<g>
			<path class="st6" d="M225.1,162.7c-0.2-0.2-0.3-0.5-0.7-0.6c-0.2-0.1-0.4-0.3-0.6-0.3c-0.2,0-0.3-0.1-0.5-0.1c-0.1,0-0.3,0-0.4,0
				c-0.1,0-0.3,0-0.4,0.1c-0.2,0.1-0.4,0.2-0.5,0.4c-0.1,0.1-0.1,0.2-0.2,0.4c0,0.1,0,0.2-0.1,0.4c-0.1,0.3,0,0.5,0.1,0.7
				c0.1,0.1,0.1,0.3,0.2,0.5c0.1,0.1,0.3,0.3,0.3,0.4c0.2,0.2,0.3,0.4,0.6,0.4c0.2,0.1,0.3,0.2,0.5,0.2s0.4,0.1,0.5,0
				c0.2-0.1,0.4,0,0.6-0.2c0.1-0.1,0.2-0.2,0.4-0.2l0.1-0.1c0.1-0.2,0.3-0.4,0.3-0.5c0-0.1,0.1-0.3,0.1-0.4c0-0.2,0-0.4-0.1-0.6
				c0-0.1-0.1-0.2-0.1-0.3L225.1,162.7L225.1,162.7z"/>
		</g>
	</g>
	<g>
		<g>
			<path class="st6" d="M222.4,167.8c0.5,0.1,0.5-0.6,0.1-0.7C222.1,167,222,167.7,222.4,167.8L222.4,167.8z"/>
		</g>
	</g>
	<g>
		<g>
			<path class="st6" d="M214.3,178.5c0.5,0.1,0.6-0.6,0.1-0.7C214,177.7,213.8,178.4,214.3,178.5L214.3,178.5z"/>
		</g>
	</g>
	<g>
		<g>
			<path class="st6" d="M216.3,174.8c0.5,0.1,0.6-0.7,0.1-0.7C216,174,215.8,174.7,216.3,174.8L216.3,174.8z"/>
		</g>
	</g>
	<g>
		<g>
			<path class="st6" d="M220.2,174c0.5,0.1,0.6-0.6,0.1-0.7C219.9,173.3,219.7,173.9,220.2,174L220.2,174z"/>
		</g>
	</g>
	<g>
		<g>
			<path class="st6" d="M216.1,171.1c0.3-0.1,0.5-0.4,0.4-0.7c-0.2-0.4-0.5-0.5-0.8-0.4c-0.5,0.2-1,0.6-1.4,1
				c-0.2,0.3-0.1,0.5,0.1,0.7c0.2,0.1,0.6,0.2,0.7,0C215.3,171.4,215.7,171.2,216.1,171.1L216.1,171.1z"/>
		</g>
	</g>
	<g>
		<g>
			<path class="st6" d="M225.4,174.1c0.7-0.7,1-1.7,0.8-2.6c-0.1-0.9-0.6-1.6-1.3-2.2c-0.7-0.6-1.7-1-2.7-0.8
				c-0.2,0.1-0.5,0.2-0.8,0.3c-0.5,0.2-0.8,0.6-1.1,1.1c-0.2,0.3-0.3,0.5-0.4,0.8c-0.1,0.2-0.2,0.4-0.2,0.7
				c-0.1,0.6-0.1,1.1,0.1,1.7c0,0.3,0.3,0.7,0.4,1c0.7,1.3,2.5,1.9,3.8,1.5c0.6-0.2,1.1-0.6,1.5-1.1c0.3-0.6,0.3-1.5,0.1-2.2l0-0.1
				c0.1,0.2,0.1,0.5,0.2,0.7c-0.1-0.1-0.1-0.1-0.1-0.2c-0.1,0.3,0,0.5-0.1,0.8c0,0,0-0.1,0-0.2C225.5,173.6,225.5,173.9,225.4,174.1
				c0-0.2,0.2-0.3,0.1-0.3c-0.1,0.2-0.3,0.5-0.4,0.6C225.2,174.3,225.3,174.2,225.4,174.1L225.4,174.1z"/>
		</g>
	</g>
	<g>
		<g>
			<path class="st6" d="M218.3,171.9c0.5,0.1,0.6-0.6,0.1-0.7C218,171.1,217.9,171.8,218.3,171.9L218.3,171.9z"/>
		</g>
	</g>
	<g>
		<g>
			<path class="st6" d="M217.2,167.5c0.5,0.1,0.6-0.6,0.1-0.7C216.8,166.7,216.7,167.4,217.2,167.5L217.2,167.5z"/>
		</g>
	</g>
	<g>
		<g>
			<path class="st6" d="M233.2,162.3c0.5,0.1,0.6-0.7,0.1-0.7C232.9,161.5,232.7,162.2,233.2,162.3L233.2,162.3z"/>
		</g>
	</g>
	<g>
		<g>
			<path class="st6" d="M226.2,160.8c3.1,0.8,3.8-3.7,1-4.5c-2.8-0.8-5.5-1.6-8.4-1.1c-1.9,0.4-1.5,3.3,0.2,3.6
				C221.4,159.4,223.8,160.1,226.2,160.8L226.2,160.8z"/>
		</g>
	</g>
	<g>
		<g>
			<path class="st6" d="M212.6,160c1.8-0.2,2.5-2.2,1.9-3.5c-0.6-1.7-2.3-2.8-4-2.5c-0.5,0.1-1.1,0.2-1.6,0.3c-1,0.2-1.8,1-2,2
				c0.2-0.5,0.2-0.5,0-0.2c0.4-0.2,0.6-0.6,0.9-0.8c-0.7,0.3-1.6,0.3-2.3,0.7c-0.9,0.4-1.5,1-2,1.9c-0.8,1.6,0.5,3.7,2.2,3.7
				c0.9,0,1.8,0,2.9,0c-0.6-0.8-1.3-1.7-1.9-2.5c-0.2,0.5-0.6,0.7-0.7,1.3c-0.2,1.1,0.5,1.9,1.5,2c1.2,0,2.1-0.7,2.6-1.7
				c0.6-1-0.1-2.6-1.3-2.8c-1.1-0.2-1.9-0.6-2.9-1c0.4,1.3,0.9,2.7,1.3,4c-0.3,0.3,0.4-0.2,0.4-0.2c1.1-0.7,0.1-0.2,0.7-0.5
				c0.4-0.2,0.8-0.5,1.3-0.5c-0.6-0.1-1.2-0.2-1.8-0.4c0.4,0.2,0.3,0.2-0.1-0.1c0.3,0.2,0.4,0.4,0.7,0.6c0.7,0.5,1.5,0.5,2.4,0.5
				C211.4,160.1,212,160.1,212.6,160L212.6,160z"/>
		</g>
	</g>
	<g>
		<g>
			<path class="st6" d="M205.3,166c0.5,0.1,0.6-0.6,0.1-0.7C205,165.2,204.9,165.9,205.3,166L205.3,166z"/>
		</g>
	</g>
	<g>
		<g>
			<path class="st6" d="M208.5,168.1c0.5,0.1,0.6-0.5,0.1-0.7C208.1,167.3,208.1,168,208.5,168.1L208.5,168.1z"/>
		</g>
	</g>
</g>
</svg>
